<ttFont>
    <TTGlyph name=".notdef" xMin="120" yMin="0" xMax="958" yMax="1410">
      <contour>
        <pt x="120" y="1410" on="1"/>
        <pt x="958" y="1410" on="1"/>
        <pt x="958" y="0" on="1"/>
        <pt x="120" y="0" on="1"/>
      </contour>
      <contour>
        <pt x="911" y="47" on="1"/>
        <pt x="911" y="1363" on="1"/>
        <pt x="167" y="1363" on="1"/>
        <pt x="167" y="47" on="1"/>
      </contour>
      <contour>
        <pt x="389" y="674" on="1"/>
        <pt x="389" y="736" on="0"/>
        <pt x="477" y="824" on="0"/>
        <pt x="539" y="824" on="1"/>
        <pt x="601" y="824" on="0"/>
        <pt x="689" y="736" on="0"/>
        <pt x="689" y="674" on="1"/>
        <pt x="689" y="612" on="0"/>
        <pt x="601" y="524" on="0"/>
        <pt x="539" y="524" on="1"/>
        <pt x="477" y="524" on="0"/>
        <pt x="389" y="612" on="0"/>
      </contour>
    </TTGlyph>
    <TTGlyph name="1E0A" xMin="0" yMin="0" xMax="1619" yMax="1917">
      <component glyphName="dotaccent" x="510" y="571" flags="0x1004"/>
      <component glyphName="D" x="0" y="0" flags="0x1004"/>
    </TTGlyph>
    <TTGlyph name="A" xMin="-20" yMin="0" xMax="1483" yMax="1417">
      <contour>
        <pt x="-20" y="12" on="1"/>
        <pt x="-20" y="40" on="0"/>
        <pt x="1" y="40" on="1"/>
        <pt x="23" y="40" on="1"/>
        <pt x="61" y="40" on="0"/>
        <pt x="101" y="69" on="0"/>
        <pt x="201" y="200" on="0"/>
        <pt x="380" y="432" on="0"/>
        <pt x="561" y="668" on="0"/>
        <pt x="740" y="902" on="0"/>
        <pt x="905" y="1117" on="0"/>
        <pt x="1050" y="1306" on="0"/>
        <pt x="1116" y="1392" on="0"/>
        <pt x="1147" y="1417" on="0"/>
        <pt x="1170" y="1417" on="1"/>
        <pt x="1196" y="1417" on="1"/>
        <pt x="1225" y="1417" on="0"/>
        <pt x="1241" y="1386" on="0"/>
        <pt x="1242" y="1363" on="1"/>
        <pt x="1271" y="150" on="1"/>
        <pt x="1274" y="66" on="0"/>
        <pt x="1374" y="46" on="1"/>
        <pt x="1401" y="40" on="0"/>
        <pt x="1426" y="40" on="1"/>
        <pt x="1470" y="40" on="1"/>
        <pt x="1483" y="40" on="0"/>
        <pt x="1483" y="25" on="1"/>
        <pt x="1483" y="14" on="1"/>
        <pt x="1483" y="0" on="0"/>
        <pt x="1469" y="0" on="1"/>
        <pt x="848" y="0" on="1"/>
        <pt x="834" y="0" on="0"/>
        <pt x="834" y="11" on="1"/>
        <pt x="834" y="30" on="1"/>
        <pt x="834" y="40" on="0"/>
        <pt x="884" y="40" on="0"/>
        <pt x="939" y="44" on="0"/>
        <pt x="958" y="48" on="1"/>
        <pt x="1030" y="60" on="0"/>
        <pt x="1074" y="118" on="0"/>
        <pt x="1082" y="144" on="1"/>
        <pt x="1094" y="182" on="0"/>
        <pt x="1094" y="252" on="1"/>
        <pt x="1087" y="540" on="1"/>
        <pt x="1087" y="558" on="1"/>
        <pt x="1087" y="602" on="0"/>
        <pt x="1034" y="602" on="1"/>
        <pt x="632" y="602" on="1"/>
        <pt x="592" y="602" on="0"/>
        <pt x="567" y="568" on="1"/>
        <pt x="516" y="499" on="0"/>
        <pt x="411" y="365" on="0"/>
        <pt x="347" y="280" on="0"/>
        <pt x="321" y="244" on="0"/>
        <pt x="310" y="225" on="1"/>
        <pt x="285" y="182" on="0"/>
        <pt x="285" y="96" on="0"/>
        <pt x="360" y="40" on="0"/>
        <pt x="421" y="40" on="1"/>
        <pt x="470" y="40" on="1"/>
        <pt x="483" y="40" on="0"/>
        <pt x="483" y="29" on="1"/>
        <pt x="479" y="4" on="0"/>
        <pt x="468" y="0" on="0"/>
        <pt x="458" y="0" on="1"/>
        <pt x="-1" y="0" on="1"/>
        <pt x="-20" y="0" on="0"/>
      </contour>
      <contour>
        <pt x="1083" y="727" on="1"/>
        <pt x="1072" y="1175" on="1"/>
        <pt x="1072" y="1202" on="0"/>
        <pt x="1062" y="1202" on="1"/>
        <pt x="1051" y="1201" on="0"/>
        <pt x="1013" y="1149" on="0"/>
        <pt x="933" y="1043" on="0"/>
        <pt x="885" y="982" on="1"/>
        <pt x="779" y="846" on="0"/>
        <pt x="689" y="727" on="0"/>
        <pt x="679" y="714" on="0"/>
        <pt x="674" y="707" on="1"/>
        <pt x="661" y="689" on="0"/>
        <pt x="661" y="677" on="0"/>
        <pt x="666" y="677" on="1"/>
        <pt x="1035" y="677" on="1"/>
        <pt x="1057" y="677" on="0"/>
        <pt x="1083" y="704" on="0"/>
      </contour>
    </TTGlyph>
    <TTGlyph name="A.sc" xMin="23" yMin="0" xMax="1035" yMax="945">
      <contour>
        <pt x="376" y="48" on="1"/>
        <pt x="381" y="48" on="0"/>
        <pt x="381" y="42" on="1"/>
        <pt x="381" y="5" on="1"/>
        <pt x="381" y="0" on="0"/>
        <pt x="376" y="0" on="1"/>
        <pt x="28" y="0" on="1"/>
        <pt x="23" y="0" on="0"/>
        <pt x="23" y="5" on="1"/>
        <pt x="23" y="42" on="1"/>
        <pt x="23" y="48" on="0"/>
        <pt x="41" y="49" on="0"/>
        <pt x="77" y="54" on="0"/>
        <pt x="96" y="64" on="1"/>
        <pt x="144" y="88" on="0"/>
        <pt x="164" y="146" on="1"/>
        <pt x="429" y="916" on="1"/>
        <pt x="422" y="941" on="1"/>
        <pt x="422" y="945" on="0"/>
        <pt x="425" y="945" on="1"/>
        <pt x="602" y="945" on="1"/>
        <pt x="603" y="944" on="0"/>
        <pt x="607" y="942" on="0"/>
        <pt x="609" y="939" on="1"/>
        <pt x="885" y="165" on="1"/>
        <pt x="929" y="48" on="0"/>
        <pt x="1030" y="48" on="1"/>
        <pt x="1035" y="48" on="0"/>
        <pt x="1035" y="42" on="1"/>
        <pt x="1035" y="5" on="1"/>
        <pt x="1035" y="0" on="0"/>
        <pt x="1030" y="0" on="1"/>
        <pt x="583" y="0" on="1"/>
        <pt x="578" y="0" on="0"/>
        <pt x="578" y="5" on="1"/>
        <pt x="578" y="42" on="1"/>
        <pt x="578" y="48" on="0"/>
        <pt x="583" y="48" on="1"/>
        <pt x="592" y="48" on="1"/>
        <pt x="603" y="49" on="0"/>
        <pt x="649" y="51" on="0"/>
        <pt x="672" y="57" on="1"/>
        <pt x="729" y="72" on="0"/>
        <pt x="729" y="114" on="1"/>
        <pt x="728" y="124" on="1"/>
        <pt x="645" y="357" on="1"/>
        <pt x="644" y="360" on="0"/>
        <pt x="626" y="385" on="0"/>
        <pt x="610" y="385" on="1"/>
        <pt x="357" y="385" on="1"/>
        <pt x="335" y="385" on="0"/>
        <pt x="324" y="364" on="1"/>
        <pt x="321" y="359" on="0"/>
        <pt x="321" y="358" on="1"/>
        <pt x="238" y="117" on="1"/>
        <pt x="238" y="81" on="0"/>
        <pt x="289" y="60" on="1"/>
        <pt x="318" y="48" on="0"/>
        <pt x="359" y="48" on="1"/>
      </contour>
      <contour>
        <pt x="587" y="470" on="1"/>
        <pt x="600" y="470" on="0"/>
        <pt x="600" y="481" on="1"/>
        <pt x="600" y="484" on="0"/>
        <pt x="596" y="492" on="1"/>
        <pt x="489" y="789" on="1"/>
        <pt x="483" y="806" on="0"/>
        <pt x="476" y="806" on="0"/>
        <pt x="468" y="787" on="1"/>
        <pt x="369" y="492" on="1"/>
        <pt x="368" y="489" on="0"/>
        <pt x="365" y="482" on="0"/>
        <pt x="365" y="480" on="1"/>
        <pt x="365" y="470" on="0"/>
        <pt x="376" y="470" on="1"/>
      </contour>
    </TTGlyph>
    <TTGlyph name="AE" xMin="-20" yMin="0" xMax="2089" yMax="1410">
      <contour>
        <pt x="2006" y="311" on="1"/>
        <pt x="2006" y="299" on="0"/>
        <pt x="1956" y="185" on="0"/>
        <pt x="1922" y="79" on="0"/>
        <pt x="1900" y="21" on="0"/>
        <pt x="1874" y="0" on="0"/>
        <pt x="1846" y="0" on="1"/>
        <pt x="755" y="0" on="1"/>
        <pt x="748" y="0" on="0"/>
        <pt x="748" y="8" on="1"/>
        <pt x="753" y="32" on="1"/>
        <pt x="757" y="40" on="0"/>
        <pt x="798" y="40" on="0"/>
        <pt x="857" y="49" on="0"/>
        <pt x="880" y="64" on="1"/>
        <pt x="929" y="96" on="0"/>
        <pt x="947" y="183" on="1"/>
        <pt x="1029" y="567" on="1"/>
        <pt x="608" y="567" on="1"/>
        <pt x="567" y="567" on="0"/>
        <pt x="516" y="499" on="0"/>
        <pt x="473" y="442" on="0"/>
        <pt x="452" y="414" on="1"/>
        <pt x="402" y="350" on="0"/>
        <pt x="346" y="278" on="0"/>
        <pt x="316" y="232" on="0"/>
        <pt x="304" y="208" on="1"/>
        <pt x="277" y="152" on="0"/>
        <pt x="277" y="114" on="1"/>
        <pt x="277" y="40" on="0"/>
        <pt x="373" y="40" on="1"/>
        <pt x="434" y="40" on="1"/>
        <pt x="446" y="40" on="0"/>
        <pt x="446" y="29" on="1"/>
        <pt x="446" y="14" on="1"/>
        <pt x="446" y="0" on="0"/>
        <pt x="426" y="0" on="1"/>
        <pt x="-1" y="0" on="1"/>
        <pt x="-20" y="0" on="0"/>
        <pt x="-20" y="12" on="1"/>
        <pt x="-20" y="22" on="1"/>
        <pt x="-20" y="40" on="0"/>
        <pt x="-5" y="40" on="1"/>
        <pt x="23" y="40" on="1"/>
        <pt x="64" y="40" on="0"/>
        <pt x="104" y="74" on="0"/>
        <pt x="155" y="139" on="0"/>
        <pt x="258" y="274" on="0"/>
        <pt x="383" y="438" on="0"/>
        <pt x="525" y="623" on="0"/>
        <pt x="670" y="813" on="0"/>
        <pt x="813" y="1000" on="0"/>
        <pt x="942" y="1168" on="0"/>
        <pt x="1051" y="1308" on="0"/>
        <pt x="1089" y="1357" on="1"/>
        <pt x="1045" y="1370" on="0"/>
        <pt x="983" y="1370" on="1"/>
        <pt x="977" y="1370" on="0"/>
        <pt x="977" y="1378" on="1"/>
        <pt x="982" y="1402" on="1"/>
        <pt x="984" y="1410" on="0"/>
        <pt x="992" y="1410" on="1"/>
        <pt x="2039" y="1410" on="1"/>
        <pt x="2062" y="1410" on="0"/>
        <pt x="2089" y="1401" on="0"/>
        <pt x="2089" y="1378" on="0"/>
        <pt x="2088" y="1366" on="0"/>
        <pt x="2084" y="1341" on="1"/>
        <pt x="2080" y="1314" on="0"/>
        <pt x="2051" y="1103" on="1"/>
        <pt x="2049" y="1089" on="0"/>
        <pt x="2036" y="1089" on="1"/>
        <pt x="2007" y="1089" on="0"/>
        <pt x="2003" y="1112" on="1"/>
        <pt x="2000" y="1127" on="0"/>
        <pt x="2000" y="1166" on="0"/>
        <pt x="1993" y="1217" on="0"/>
        <pt x="1965" y="1282" on="0"/>
        <pt x="1942" y="1305" on="1"/>
        <pt x="1892" y="1355" on="0"/>
        <pt x="1815" y="1355" on="1"/>
        <pt x="1448" y="1355" on="1"/>
        <pt x="1393" y="1355" on="0"/>
        <pt x="1383" y="1347" on="1"/>
        <pt x="1370" y="1337" on="0"/>
        <pt x="1360" y="1290" on="1"/>
        <pt x="1255" y="790" on="1"/>
        <pt x="1253" y="782" on="0"/>
        <pt x="1253" y="778" on="1"/>
        <pt x="1253" y="753" on="0"/>
        <pt x="1295" y="753" on="1"/>
        <pt x="1662" y="753" on="1"/>
        <pt x="1727" y="753" on="0"/>
        <pt x="1788" y="800" on="1"/>
        <pt x="1836" y="837" on="0"/>
        <pt x="1868" y="896" on="1"/>
        <pt x="1874" y="909" on="0"/>
        <pt x="1885" y="909" on="1"/>
        <pt x="1902" y="909" on="1"/>
        <pt x="1911" y="909" on="0"/>
        <pt x="1911" y="895" on="0"/>
        <pt x="1910" y="895" on="0"/>
        <pt x="1910" y="893" on="1"/>
        <pt x="1830" y="520" on="1"/>
        <pt x="1826" y="499" on="0"/>
        <pt x="1810" y="499" on="1"/>
        <pt x="1799" y="499" on="0"/>
        <pt x="1792" y="506" on="0"/>
        <pt x="1788" y="532" on="0"/>
        <pt x="1787" y="566" on="0"/>
        <pt x="1775" y="615" on="0"/>
        <pt x="1748" y="651" on="0"/>
        <pt x="1728" y="661" on="1"/>
        <pt x="1695" y="678" on="0"/>
        <pt x="1631" y="678" on="1"/>
        <pt x="1270" y="678" on="1"/>
        <pt x="1262" y="678" on="0"/>
        <pt x="1232" y="664" on="0"/>
        <pt x="1220" y="626" on="0"/>
        <pt x="1213" y="589" on="0"/>
        <pt x="1189" y="485" on="0"/>
        <pt x="1159" y="333" on="0"/>
        <pt x="1148" y="284" on="1"/>
        <pt x="1133" y="216" on="0"/>
        <pt x="1133" y="133" on="0"/>
        <pt x="1166" y="88" on="0"/>
        <pt x="1195" y="77" on="1"/>
        <pt x="1265" y="51" on="0"/>
        <pt x="1500" y="65" on="1"/>
        <pt x="1631" y="73" on="0"/>
        <pt x="1737" y="115" on="0"/>
        <pt x="1768" y="136" on="1"/>
        <pt x="1810" y="166" on="0"/>
        <pt x="1906" y="264" on="0"/>
        <pt x="1928" y="291" on="0"/>
        <pt x="1939" y="302" on="1"/>
        <pt x="1965" y="330" on="0"/>
        <pt x="2006" y="330" on="0"/>
      </contour>
      <contour>
        <pt x="646" y="667" on="1"/>
        <pt x="636" y="657" on="0"/>
        <pt x="636" y="646" on="1"/>
        <pt x="636" y="642" on="0"/>
        <pt x="656" y="642" on="1"/>
        <pt x="1008" y="642" on="1"/>
        <pt x="1044" y="642" on="0"/>
        <pt x="1051" y="670" on="1"/>
        <pt x="1175" y="1250" on="1"/>
        <pt x="1179" y="1264" on="0"/>
        <pt x="1179" y="1300" on="0"/>
        <pt x="1174" y="1317" on="0"/>
        <pt x="1147" y="1317" on="0"/>
        <pt x="1127" y="1296" on="0"/>
        <pt x="1105" y="1268" on="1"/>
        <pt x="667" y="696" on="1"/>
      </contour>
    </TTGlyph>
    <TTGlyph name="AE.sc" xMin="20" yMin="0" xMax="1350" yMax="945">
      <contour>
        <pt x="41" y="0" on="1"/>
        <pt x="20" y="0" on="0"/>
        <pt x="20" y="22" on="1"/>
        <pt x="20" y="44" on="0"/>
        <pt x="87" y="61" on="1"/>
        <pt x="117" y="68" on="0"/>
        <pt x="148" y="119" on="1"/>
        <pt x="156" y="133" on="0"/>
        <pt x="164" y="146" on="1"/>
        <pt x="585" y="847" on="1"/>
        <pt x="589" y="855" on="0"/>
        <pt x="589" y="870" on="0"/>
        <pt x="575" y="884" on="0"/>
        <pt x="565" y="889" on="1"/>
        <pt x="545" y="899" on="0"/>
        <pt x="522" y="899" on="1"/>
        <pt x="467" y="899" on="1"/>
        <pt x="454" y="899" on="0"/>
        <pt x="454" y="945" on="0"/>
        <pt x="466" y="945" on="1"/>
        <pt x="1254" y="945" on="1"/>
        <pt x="1276" y="945" on="0"/>
        <pt x="1278" y="921" on="1"/>
        <pt x="1289" y="727" on="1"/>
        <pt x="1289" y="720" on="0"/>
        <pt x="1267" y="720" on="1"/>
        <pt x="1248" y="720" on="0"/>
        <pt x="1237" y="736" on="0"/>
        <pt x="1233" y="779" on="0"/>
        <pt x="1226" y="802" on="1"/>
        <pt x="1210" y="862" on="0"/>
        <pt x="1151" y="870" on="1"/>
        <pt x="872" y="870" on="1"/>
        <pt x="863" y="870" on="0"/>
        <pt x="863" y="862" on="1"/>
        <pt x="863" y="535" on="1"/>
        <pt x="863" y="529" on="0"/>
        <pt x="870" y="529" on="1"/>
        <pt x="1101" y="529" on="1"/>
        <pt x="1184" y="529" on="0"/>
        <pt x="1184" y="633" on="1"/>
        <pt x="1184" y="638" on="0"/>
        <pt x="1190" y="638" on="1"/>
        <pt x="1227" y="638" on="1"/>
        <pt x="1233" y="638" on="0"/>
        <pt x="1233" y="633" on="1"/>
        <pt x="1233" y="325" on="1"/>
        <pt x="1233" y="320" on="0"/>
        <pt x="1227" y="320" on="1"/>
        <pt x="1190" y="320" on="1"/>
        <pt x="1184" y="320" on="0"/>
        <pt x="1184" y="325" on="1"/>
        <pt x="1184" y="423" on="0"/>
        <pt x="1127" y="440" on="1"/>
        <pt x="1111" y="444" on="0"/>
        <pt x="1093" y="444" on="1"/>
        <pt x="870" y="444" on="1"/>
        <pt x="863" y="444" on="0"/>
        <pt x="863" y="438" on="1"/>
        <pt x="863" y="133" on="1"/>
        <pt x="863" y="82" on="0"/>
        <pt x="910" y="76" on="1"/>
        <pt x="923" y="75" on="0"/>
        <pt x="938" y="75" on="1"/>
        <pt x="1160" y="75" on="1"/>
        <pt x="1229" y="75" on="0"/>
        <pt x="1268" y="126" on="1"/>
        <pt x="1296" y="162" on="0"/>
        <pt x="1299" y="197" on="1"/>
        <pt x="1304" y="244" on="0"/>
        <pt x="1332" y="244" on="1"/>
        <pt x="1335" y="244" on="0"/>
        <pt x="1350" y="237" on="0"/>
        <pt x="1350" y="234" on="1"/>
        <pt x="1328" y="9" on="1"/>
        <pt x="1325" y="0" on="0"/>
        <pt x="1319" y="0" on="1"/>
        <pt x="528" y="0" on="1"/>
        <pt x="513" y="0" on="0"/>
        <pt x="498" y="18" on="0"/>
        <pt x="498" y="26" on="1"/>
        <pt x="498" y="48" on="0"/>
        <pt x="549" y="53" on="0"/>
        <pt x="613" y="54" on="0"/>
        <pt x="639" y="62" on="1"/>
        <pt x="699" y="79" on="0"/>
        <pt x="699" y="141" on="1"/>
        <pt x="699" y="385" on="1"/>
        <pt x="463" y="385" on="1"/>
        <pt x="424" y="385" on="0"/>
        <pt x="407" y="358" on="1"/>
        <pt x="269" y="127" on="1"/>
        <pt x="263" y="118" on="0"/>
        <pt x="263" y="85" on="0"/>
        <pt x="292" y="64" on="0"/>
        <pt x="312" y="58" on="1"/>
        <pt x="336" y="52" on="0"/>
        <pt x="386" y="48" on="1"/>
        <pt x="400" y="47" on="0"/>
        <pt x="400" y="0" on="0"/>
        <pt x="387" y="0" on="1"/>
      </contour>
      <contour>
        <pt x="699" y="459" on="1"/>
        <pt x="699" y="794" on="1"/>
        <pt x="699" y="806" on="0"/>
        <pt x="690" y="806" on="1"/>
        <pt x="677" y="806" on="0"/>
        <pt x="665" y="787" on="1"/>
        <pt x="476" y="471" on="1"/>
        <pt x="475" y="470" on="0"/>
        <pt x="475" y="459" on="0"/>
        <pt x="497" y="459" on="1"/>
      </contour>
    </TTGlyph>
    <TTGlyph name="AEacute" xMin="-20" yMin="0" xMax="2089" yMax="1950">
      <component glyphName="acute" x="1350" y="498" flags="0x1004"/>
      <component glyphName="AE" x="0" y="0" flags="0x1004"/>
    </TTGlyph>
    <TTGlyph name="A_R" xMin="0" yMin="-25" xMax="2115" yMax="1425">
      <contour>
        <pt x="518" y="0" on="1"/>
        <pt x="16" y="0" on="1"/>
        <pt x="4" y="0" on="0"/>
        <pt x="0" y="10" on="0"/>
        <pt x="0" y="28" on="0"/>
        <pt x="15" y="43" on="0"/>
        <pt x="26" y="48" on="1"/>
        <pt x="37" y="52" on="0"/>
        <pt x="101" y="64" on="0"/>
        <pt x="140" y="89" on="0"/>
        <pt x="155" y="106" on="1"/>
        <pt x="177" y="131" on="0"/>
        <pt x="198" y="186" on="1"/>
        <pt x="750" y="1076" on="0"/>
        <pt x="844" y="1245" on="0"/>
        <pt x="852" y="1262" on="1"/>
        <pt x="864" y="1284" on="0"/>
        <pt x="864" y="1318" on="0"/>
        <pt x="847" y="1347" on="0"/>
        <pt x="834" y="1356" on="1"/>
        <pt x="808" y="1373" on="0"/>
        <pt x="769" y="1373" on="1"/>
        <pt x="661" y="1373" on="1"/>
        <pt x="658" y="1373" on="0"/>
        <pt x="648" y="1384" on="0"/>
        <pt x="648" y="1390" on="1"/>
        <pt x="648" y="1410" on="0"/>
        <pt x="666" y="1410" on="1"/>
        <pt x="713" y="1410" on="0"/>
        <pt x="760" y="1410" on="1"/>
        <pt x="1309" y="1425" on="1"/>
        <pt x="1410" y="1425" on="1"/>
        <pt x="1587" y="1413" on="0"/>
        <pt x="1704" y="1298" on="1"/>
        <pt x="1826" y="1180" on="0"/>
        <pt x="1826" y="1008" on="1"/>
        <pt x="1826" y="839" on="0"/>
        <pt x="1684" y="744" on="1"/>
        <pt x="1640" y="715" on="0"/>
        <pt x="1589" y="692" on="1"/>
        <pt x="1892" y="197" on="1"/>
        <pt x="1971" y="67" on="0"/>
        <pt x="2104" y="14" on="1"/>
        <pt x="2115" y="11" on="0"/>
        <pt x="2115" y="0" on="1"/>
        <pt x="2115" y="-25" on="0"/>
        <pt x="2082" y="-25" on="1"/>
        <pt x="1857" y="-25" on="0"/>
        <pt x="1724" y="146" on="1"/>
        <pt x="1695" y="184" on="0"/>
        <pt x="1666" y="231" on="1"/>
        <pt x="1410" y="633" on="1"/>
        <pt x="1407" y="636" on="0"/>
        <pt x="1405" y="637" on="1"/>
        <pt x="1169" y="648" on="1"/>
        <pt x="1161" y="648" on="1"/>
        <pt x="1146" y="648" on="0"/>
        <pt x="1146" y="634" on="1"/>
        <pt x="1146" y="173" on="1"/>
        <pt x="1146" y="118" on="0"/>
        <pt x="1170" y="98" on="1"/>
        <pt x="1208" y="64" on="0"/>
        <pt x="1284" y="54" on="1"/>
        <pt x="1304" y="51" on="0"/>
        <pt x="1322" y="47" on="1"/>
        <pt x="1362" y="40" on="0"/>
        <pt x="1383" y="40" on="0"/>
        <pt x="1383" y="32" on="1"/>
        <pt x="1383" y="8" on="1"/>
        <pt x="1383" y="0" on="0"/>
        <pt x="1375" y="0" on="1"/>
        <pt x="680" y="0" on="1"/>
        <pt x="650" y="0" on="0"/>
        <pt x="650" y="22" on="1"/>
        <pt x="650" y="41" on="0"/>
        <pt x="726" y="47" on="0"/>
        <pt x="822" y="49" on="0"/>
        <pt x="862" y="60" on="1"/>
        <pt x="951" y="85" on="0"/>
        <pt x="951" y="178" on="1"/>
        <pt x="951" y="623" on="1"/>
        <pt x="626" y="623" on="1"/>
        <pt x="591" y="615" on="0"/>
        <pt x="578" y="588" on="1"/>
        <pt x="576" y="583" on="0"/>
        <pt x="576" y="582" on="1"/>
        <pt x="311" y="143" on="1"/>
        <pt x="308" y="134" on="0"/>
        <pt x="308" y="98" on="0"/>
        <pt x="355" y="66" on="0"/>
        <pt x="388" y="57" on="1"/>
        <pt x="434" y="45" on="0"/>
        <pt x="512" y="41" on="1"/>
        <pt x="536" y="36" on="0"/>
        <pt x="536" y="0" on="0"/>
      </contour>
      <contour>
        <pt x="1215" y="1372" on="0"/>
        <pt x="1188" y="1371" on="0"/>
        <pt x="1146" y="1370" on="0"/>
        <pt x="1146" y="1354" on="1"/>
        <pt x="1146" y="748" on="1"/>
        <pt x="1148" y="718" on="1"/>
        <pt x="1151" y="697" on="0"/>
        <pt x="1167" y="696" on="1"/>
        <pt x="1269" y="690" on="1"/>
        <pt x="1550" y="690" on="0"/>
        <pt x="1608" y="890" on="1"/>
        <pt x="1627" y="953" on="0"/>
        <pt x="1627" y="1114" on="0"/>
        <pt x="1573" y="1242" on="0"/>
        <pt x="1526" y="1286" on="1"/>
        <pt x="1430" y="1374" on="0"/>
        <pt x="1277" y="1374" on="1"/>
        <pt x="1263" y="1374" on="0"/>
        <pt x="1239" y="1373" on="0"/>
      </contour>
      <contour>
        <pt x="635" y="750" on="1"/>
        <pt x="626" y="733" on="0"/>
        <pt x="626" y="729" on="1"/>
        <pt x="626" y="716" on="0"/>
        <pt x="658" y="716" on="1"/>
        <pt x="951" y="716" on="1"/>
        <pt x="951" y="1185" on="1"/>
        <pt x="944" y="1204" on="0"/>
        <pt x="936" y="1204" on="0"/>
        <pt x="924" y="1200" on="0"/>
        <pt x="918" y="1196" on="1"/>
        <pt x="901" y="1188" on="0"/>
        <pt x="897" y="1176" on="1"/>
      </contour>
    </TTGlyph>
    <TTGlyph name="Aacute" xMin="-20" yMin="0" xMax="1558" yMax="1950">
      <component glyphName="A" x="0" y="0" flags="0x1004"/>
      <component glyphName="acute" x="1026" y="498" flags="0x1004"/>
    </TTGlyph>
    <TTGlyph name="Aacute.sc" xMin="23" yMin="0" xMax="1035" yMax="1327">
      <component glyphName="A.sc" x="0" y="0" flags="0x1204"/>
      <component glyphName="Acute.sc" x="120" y="0" flags="0x1004"/>
    </TTGlyph>
    <TTGlyph name="Abreve" xMin="-20" yMin="0" xMax="1483" yMax="1950">
      <component glyphName="A" x="0" y="0" flags="0x1204"/>
      <component glyphName="breve" x="616" y="542" flags="0x1004"/>
    </TTGlyph>
    <TTGlyph name="Acircumflex" xMin="-20" yMin="0" xMax="1483" yMax="1948">
      <component glyphName="A" x="0" y="0" flags="0x1204"/>
      <component glyphName="circumflex" x="702" y="497" flags="0x1004"/>
    </TTGlyph>
    <TTGlyph name="Acircumflex.sc" xMin="23" yMin="0" xMax="1035" yMax="1327">
      <component glyphName="A.sc" x="0" y="0" flags="0x1204"/>
      <component glyphName="Circumflex.sc" x="-11" y="0" flags="0x1004"/>
    </TTGlyph>
    <TTGlyph name="Acute" xMin="135" yMin="1640" xMax="559" yMax="1950">
      <contour>
        <pt x="135" y="1682" on="1"/>
        <pt x="135" y="1686" on="0"/>
        <pt x="139" y="1690" on="1"/>
        <pt x="421" y="1920" on="1"/>
        <pt x="458" y="1950" on="0"/>
        <pt x="522" y="1950" on="0"/>
        <pt x="559" y="1904" on="0"/>
        <pt x="559" y="1858" on="0"/>
        <pt x="544" y="1828" on="0"/>
        <pt x="532" y="1816" on="1"/>
        <pt x="513" y="1796" on="0"/>
        <pt x="479" y="1781" on="1"/>
        <pt x="163" y="1641" on="1"/>
        <pt x="162" y="1640" on="0"/>
        <pt x="152" y="1640" on="0"/>
        <pt x="150" y="1645" on="1"/>
      </contour>
    </TTGlyph>
    <TTGlyph name="Acute.sc" xMin="382" yMin="1123" xMax="667" yMax="1327">
      <contour>
        <pt x="382" y="1148" on="1"/>
        <pt x="382" y="1150" on="0"/>
        <pt x="385" y="1153" on="1"/>
        <pt x="573" y="1307" on="1"/>
        <pt x="598" y="1327" on="0"/>
        <pt x="641" y="1327" on="0"/>
        <pt x="667" y="1297" on="0"/>
        <pt x="667" y="1275" on="1"/>
        <pt x="667" y="1238" on="0"/>
        <pt x="533" y="1179" on="0"/>
        <pt x="447" y="1140" on="0"/>
        <pt x="427" y="1131" on="1"/>
        <pt x="397" y="1117" on="0"/>
        <pt x="393" y="1123" on="1"/>
      </contour>
    </TTGlyph>
    <TTGlyph name="Adieresis" xMin="-20" yMin="0" xMax="1483" yMax="1930">
      <component glyphName="A" x="0" y="0" flags="0x1204"/>
      <component glyphName="dieresis" x="626" y="571" flags="0x1004"/>
    </TTGlyph>
    <TTGlyph name="Adieresis.sc" xMin="23" yMin="0" xMax="1035" yMax="1277">
      <component glyphName="A.sc" x="0" y="0" flags="0x1204"/>
      <component glyphName="Dieresis.sc" x="-9" y="0" flags="0x1004"/>
    </TTGlyph>
    <TTGlyph name="Agrave" xMin="-20" yMin="0" xMax="1483" yMax="1950">
      <component glyphName="A" x="0" y="0" flags="0x1204"/>
      <component glyphName="grave" x="700" y="498" flags="0x1004"/>
    </TTGlyph>
    <TTGlyph name="Agrave.sc" xMin="23" yMin="0" xMax="1035" yMax="1327">
      <component glyphName="A.sc" x="0" y="0" flags="0x1204"/>
      <component glyphName="Gravesmall" x="-114" y="0" flags="0x1004"/>
    </TTGlyph>
    <TTGlyph name="Alpha" xMin="-20" yMin="0" xMax="1483" yMax="1417">
      <component glyphName="A" x="0" y="0" flags="0x1204"/>
    </TTGlyph>
    <TTGlyph name="Alphatonos" xMin="14" yMin="0" xMax="1517" yMax="1453">
      <component glyphName="A" x="34" y="0" flags="0x1004"/>
      <component glyphName="tonos" x="-129" y="-69" flags="0x1004"/>
    </TTGlyph>
    <TTGlyph name="Amacron" xMin="-20" yMin="0" xMax="1485" yMax="1849">
      <component glyphName="A" x="0" y="0" flags="0x1004"/>
      <component glyphName="macron" x="586" y="542" flags="0x1004"/>
    </TTGlyph>
    <TTGlyph name="Amacron.sc" xMin="23" yMin="0" xMax="1035" yMax="1240">
      <component glyphName="A.sc" x="0" y="0" flags="0x1204"/>
      <component glyphName="Macron.sc" x="-9" y="0" flags="0x1004"/>
    </TTGlyph>
    <TTGlyph name="Aogonek" xMin="-20" yMin="-546" xMax="1483" yMax="1417">
      <component glyphName="A" x="0" y="0" flags="0x1204"/>
      <component glyphName="ogonek" x="726" y="0" flags="0x1004"/>
    </TTGlyph>
    <TTGlyph name="Aring" xMin="-20" yMin="0" xMax="1483" yMax="1984">
      <component glyphName="A" x="0" y="0" flags="0x1204"/>
      <component glyphName="ring" x="696" y="537" flags="0x1004"/>
    </TTGlyph>
    <TTGlyph name="Aring.sc" xMin="23" yMin="0" xMax="1035" yMax="1327">
      <component glyphName="A.sc" x="0" y="0" flags="0x1204"/>
      <component glyphName="Ring.sc" x="-4" y="0" flags="0x1004"/>
    </TTGlyph>
    <TTGlyph name="Aringacute" xMin="-20" yMin="0" xMax="1483" yMax="2038">
      <contour>
        <pt x="1077" y="1824" on="1"/>
        <pt x="1077" y="1827" on="0"/>
        <pt x="1080" y="1830" on="1"/>
        <pt x="1306" y="2014" on="1"/>
        <pt x="1334" y="2038" on="0"/>
        <pt x="1386" y="2038" on="0"/>
        <pt x="1416" y="2001" on="0"/>
        <pt x="1416" y="1976" on="1"/>
        <pt x="1416" y="1931" on="0"/>
        <pt x="1352" y="1903" on="1"/>
        <pt x="1099" y="1791" on="1"/>
        <pt x="1099" y="1790" on="0"/>
        <pt x="1091" y="1790" on="0"/>
        <pt x="1089" y="1794" on="1"/>
      </contour>
      <contour>
        <pt x="1032" y="1600" on="1"/>
        <pt x="1032" y="1660" on="0"/>
        <pt x="1075" y="1704" on="1"/>
        <pt x="1117" y="1748" on="0"/>
        <pt x="1179" y="1748" on="1"/>
        <pt x="1239" y="1748" on="0"/>
        <pt x="1326" y="1661" on="0"/>
        <pt x="1326" y="1600" on="1"/>
        <pt x="1326" y="1538" on="0"/>
        <pt x="1282" y="1496" on="1"/>
        <pt x="1238" y="1453" on="0"/>
        <pt x="1179" y="1453" on="1"/>
        <pt x="1118" y="1453" on="0"/>
        <pt x="1032" y="1539" on="0"/>
      </contour>
      <contour>
        <pt x="1102" y="1652" on="0"/>
        <pt x="1088" y="1618" on="0"/>
        <pt x="1088" y="1562" on="0"/>
        <pt x="1140" y="1509" on="0"/>
        <pt x="1197" y="1509" on="0"/>
        <pt x="1230" y="1523" on="0"/>
        <pt x="1242" y="1536" on="1"/>
        <pt x="1270" y="1563" on="0"/>
        <pt x="1270" y="1618" on="0"/>
        <pt x="1255" y="1652" on="0"/>
        <pt x="1242" y="1664" on="1"/>
        <pt x="1215" y="1692" on="0"/>
        <pt x="1159" y="1692" on="0"/>
        <pt x="1126" y="1677" on="0"/>
      </contour>
      <contour>
        <pt x="-20" y="12" on="1"/>
        <pt x="-20" y="40" on="0"/>
        <pt x="1" y="40" on="1"/>
        <pt x="23" y="40" on="1"/>
        <pt x="61" y="40" on="0"/>
        <pt x="101" y="69" on="0"/>
        <pt x="201" y="200" on="0"/>
        <pt x="380" y="432" on="0"/>
        <pt x="561" y="668" on="0"/>
        <pt x="740" y="902" on="0"/>
        <pt x="905" y="1117" on="0"/>
        <pt x="1050" y="1306" on="0"/>
        <pt x="1116" y="1392" on="0"/>
        <pt x="1147" y="1417" on="0"/>
        <pt x="1170" y="1417" on="1"/>
        <pt x="1196" y="1417" on="1"/>
        <pt x="1225" y="1417" on="0"/>
        <pt x="1241" y="1386" on="0"/>
        <pt x="1242" y="1363" on="1"/>
        <pt x="1271" y="150" on="1"/>
        <pt x="1274" y="66" on="0"/>
        <pt x="1374" y="46" on="1"/>
        <pt x="1401" y="40" on="0"/>
        <pt x="1426" y="40" on="1"/>
        <pt x="1470" y="40" on="1"/>
        <pt x="1483" y="40" on="0"/>
        <pt x="1483" y="25" on="1"/>
        <pt x="1483" y="14" on="1"/>
        <pt x="1483" y="0" on="0"/>
        <pt x="1469" y="0" on="1"/>
        <pt x="848" y="0" on="1"/>
        <pt x="834" y="0" on="0"/>
        <pt x="834" y="11" on="1"/>
        <pt x="834" y="30" on="1"/>
        <pt x="834" y="40" on="0"/>
        <pt x="884" y="40" on="0"/>
        <pt x="939" y="44" on="0"/>
        <pt x="958" y="48" on="1"/>
        <pt x="1030" y="60" on="0"/>
        <pt x="1074" y="118" on="0"/>
        <pt x="1082" y="144" on="1"/>
        <pt x="1094" y="182" on="0"/>
        <pt x="1094" y="252" on="1"/>
        <pt x="1087" y="540" on="1"/>
        <pt x="1087" y="558" on="1"/>
        <pt x="1087" y="602" on="0"/>
        <pt x="1034" y="602" on="1"/>
        <pt x="632" y="602" on="1"/>
        <pt x="592" y="602" on="0"/>
        <pt x="567" y="568" on="1"/>
        <pt x="516" y="499" on="0"/>
        <pt x="411" y="365" on="0"/>
        <pt x="347" y="280" on="0"/>
        <pt x="321" y="244" on="0"/>
        <pt x="310" y="225" on="1"/>
        <pt x="285" y="182" on="0"/>
        <pt x="285" y="96" on="0"/>
        <pt x="360" y="40" on="0"/>
        <pt x="421" y="40" on="1"/>
        <pt x="470" y="40" on="1"/>
        <pt x="483" y="40" on="0"/>
        <pt x="483" y="29" on="1"/>
        <pt x="479" y="4" on="0"/>
        <pt x="468" y="0" on="0"/>
        <pt x="458" y="0" on="1"/>
        <pt x="-1" y="0" on="1"/>
        <pt x="-20" y="0" on="0"/>
      </contour>
      <contour>
        <pt x="1083" y="727" on="1"/>
        <pt x="1072" y="1175" on="1"/>
        <pt x="1072" y="1202" on="0"/>
        <pt x="1062" y="1202" on="1"/>
        <pt x="1051" y="1201" on="0"/>
        <pt x="1013" y="1149" on="0"/>
        <pt x="933" y="1043" on="0"/>
        <pt x="885" y="982" on="1"/>
        <pt x="779" y="846" on="0"/>
        <pt x="689" y="727" on="0"/>
        <pt x="679" y="714" on="0"/>
        <pt x="674" y="707" on="1"/>
        <pt x="661" y="689" on="0"/>
        <pt x="661" y="677" on="0"/>
        <pt x="666" y="677" on="1"/>
        <pt x="1035" y="677" on="1"/>
        <pt x="1057" y="677" on="0"/>
        <pt x="1083" y="704" on="0"/>
      </contour>
    </TTGlyph>
    <TTGlyph name="Atilde" xMin="-20" yMin="0" xMax="1483" yMax="1928">
      <component glyphName="A" x="0" y="0" flags="0x1204"/>
      <component glyphName="tilde" x="631" y="560" flags="0x1004"/>
    </TTGlyph>
    <TTGlyph name="Atilde.sc" xMin="23" yMin="0" xMax="1035" yMax="1327">
      <component glyphName="A.sc" x="0" y="0" flags="0x1204"/>
      <component glyphName="Tilde.sc" x="-14" y="0" flags="0x1004"/>
    </TTGlyph>
    <TTGlyph name="B" xMin="20" yMin="-1" xMax="1305" yMax="1410">
      <contour>
        <pt x="654" y="-1" on="1"/>
        <pt x="474" y="0" on="1"/>
        <pt x="251" y="0" on="0"/>
        <pt x="22" y="0" on="0"/>
        <pt x="20" y="6" on="0"/>
        <pt x="20" y="8" on="1"/>
        <pt x="27" y="42" on="1"/>
        <pt x="31" y="50" on="0"/>
        <pt x="65" y="50" on="0"/>
        <pt x="130" y="57" on="0"/>
        <pt x="159" y="70" on="1"/>
        <pt x="226" y="100" on="0"/>
        <pt x="242" y="176" on="1"/>
        <pt x="466" y="1231" on="1"/>
        <pt x="471" y="1254" on="0"/>
        <pt x="471" y="1307" on="0"/>
        <pt x="448" y="1340" on="0"/>
        <pt x="428" y="1348" on="1"/>
        <pt x="400" y="1358" on="0"/>
        <pt x="323" y="1358" on="1"/>
        <pt x="255" y="1358" on="1"/>
        <pt x="248" y="1358" on="0"/>
        <pt x="248" y="1367" on="1"/>
        <pt x="256" y="1400" on="1"/>
        <pt x="256" y="1410" on="0"/>
        <pt x="265" y="1410" on="1"/>
        <pt x="840" y="1410" on="1"/>
        <pt x="1151" y="1410" on="0"/>
        <pt x="1264" y="1240" on="1"/>
        <pt x="1305" y="1179" on="0"/>
        <pt x="1305" y="1037" on="0"/>
        <pt x="1263" y="951" on="0"/>
        <pt x="1198" y="884" on="0"/>
        <pt x="1123" y="835" on="0"/>
        <pt x="1057" y="804" on="0"/>
        <pt x="1011" y="788" on="0"/>
        <pt x="1009" y="787" on="1"/>
        <pt x="1265" y="628" on="0"/>
        <pt x="1265" y="444" on="1"/>
        <pt x="1265" y="253" on="0"/>
        <pt x="1158" y="142" on="1"/>
        <pt x="1019" y="-1" on="0"/>
        <pt x="700" y="-1" on="1"/>
        <pt x="677" y="-1" on="0"/>
      </contour>
      <contour>
        <pt x="566" y="769" on="1"/>
        <pt x="543" y="769" on="0"/>
        <pt x="535" y="733" on="1"/>
        <pt x="507" y="603" on="0"/>
        <pt x="469" y="424" on="0"/>
        <pt x="444" y="307" on="0"/>
        <pt x="430" y="241" on="0"/>
        <pt x="426" y="225" on="1"/>
        <pt x="422" y="204" on="0"/>
        <pt x="422" y="165" on="0"/>
        <pt x="464" y="109" on="0"/>
        <pt x="498" y="88" on="1"/>
        <pt x="568" y="46" on="0"/>
        <pt x="748" y="46" on="0"/>
        <pt x="899" y="106" on="0"/>
        <pt x="954" y="159" on="1"/>
        <pt x="1072" y="271" on="0"/>
        <pt x="1072" y="449" on="1"/>
        <pt x="1072" y="589" on="0"/>
        <pt x="980" y="678" on="1"/>
        <pt x="888" y="769" on="0"/>
        <pt x="744" y="769" on="1"/>
      </contour>
      <contour>
        <pt x="564" y="874" on="1"/>
        <pt x="563" y="870" on="0"/>
        <pt x="563" y="860" on="1"/>
        <pt x="563" y="836" on="0"/>
        <pt x="591" y="832" on="1"/>
        <pt x="655" y="826" on="0"/>
        <pt x="814" y="826" on="0"/>
        <pt x="968" y="872" on="0"/>
        <pt x="1020" y="908" on="1"/>
        <pt x="1123" y="982" on="0"/>
        <pt x="1123" y="1084" on="1"/>
        <pt x="1123" y="1273" on="0"/>
        <pt x="988" y="1336" on="1"/>
        <pt x="940" y="1358" on="0"/>
        <pt x="811" y="1358" on="0"/>
        <pt x="734" y="1357" on="0"/>
        <pt x="710" y="1352" on="1"/>
        <pt x="666" y="1344" on="0"/>
        <pt x="658" y="1312" on="1"/>
      </contour>
    </TTGlyph>
    <TTGlyph name="B.sc" xMin="26" yMin="0" xMax="944" yMax="972">
      <contour>
        <pt x="32" y="0" on="1"/>
        <pt x="26" y="0" on="0"/>
        <pt x="26" y="5" on="1"/>
        <pt x="26" y="42" on="1"/>
        <pt x="26" y="48" on="0"/>
        <pt x="51" y="48" on="0"/>
        <pt x="117" y="55" on="0"/>
        <pt x="149" y="64" on="1"/>
        <pt x="228" y="88" on="0"/>
        <pt x="228" y="139" on="1"/>
        <pt x="228" y="814" on="1"/>
        <pt x="220" y="902" on="0"/>
        <pt x="150" y="908" on="1"/>
        <pt x="128" y="910" on="0"/>
        <pt x="102" y="910" on="1"/>
        <pt x="64" y="910" on="1"/>
        <pt x="59" y="910" on="0"/>
        <pt x="59" y="916" on="1"/>
        <pt x="59" y="959" on="1"/>
        <pt x="59" y="964" on="0"/>
        <pt x="62" y="964" on="1"/>
        <pt x="62" y="964" on="0"/>
        <pt x="72" y="964" on="1"/>
        <pt x="137" y="965" on="1"/>
        <pt x="137" y="965" on="0"/>
        <pt x="209" y="965" on="1"/>
        <pt x="209" y="965" on="0"/>
        <pt x="509" y="972" on="1"/>
        <pt x="798" y="972" on="0"/>
        <pt x="874" y="819" on="1"/>
        <pt x="893" y="781" on="0"/>
        <pt x="893" y="683" on="0"/>
        <pt x="851" y="616" on="0"/>
        <pt x="800" y="572" on="0"/>
        <pt x="757" y="551" on="0"/>
        <pt x="755" y="550" on="1"/>
        <pt x="944" y="446" on="0"/>
        <pt x="944" y="292" on="1"/>
        <pt x="944" y="104" on="0"/>
        <pt x="782" y="37" on="1"/>
        <pt x="706" y="5" on="0"/>
        <pt x="592" y="0" on="0"/>
        <pt x="578" y="0" on="1"/>
      </contour>
      <contour>
        <pt x="401" y="512" on="1"/>
        <pt x="393" y="512" on="0"/>
        <pt x="393" y="505" on="1"/>
        <pt x="393" y="169" on="1"/>
        <pt x="393" y="121" on="0"/>
        <pt x="440" y="90" on="1"/>
        <pt x="481" y="64" on="0"/>
        <pt x="585" y="64" on="0"/>
        <pt x="670" y="95" on="0"/>
        <pt x="702" y="124" on="1"/>
        <pt x="772" y="186" on="0"/>
        <pt x="772" y="280" on="1"/>
        <pt x="772" y="390" on="0"/>
        <pt x="696" y="454" on="1"/>
        <pt x="625" y="512" on="0"/>
        <pt x="508" y="512" on="1"/>
      </contour>
      <contour>
        <pt x="392" y="587" on="1"/>
        <pt x="392" y="574" on="0"/>
        <pt x="406" y="574" on="1"/>
        <pt x="571" y="574" on="1"/>
        <pt x="674" y="574" on="0"/>
        <pt x="712" y="665" on="1"/>
        <pt x="723" y="693" on="0"/>
        <pt x="723" y="777" on="0"/>
        <pt x="691" y="849" on="0"/>
        <pt x="662" y="872" on="1"/>
        <pt x="606" y="918" on="0"/>
        <pt x="505" y="918" on="1"/>
        <pt x="470" y="916" on="0"/>
        <pt x="427" y="916" on="0"/>
        <pt x="414" y="914" on="1"/>
        <pt x="392" y="911" on="0"/>
        <pt x="392" y="884" on="1"/>
      </contour>
    </TTGlyph>
    <TTGlyph name="Beta" xMin="20" yMin="-1" xMax="1305" yMax="1410">
      <component glyphName="B" x="0" y="0" flags="0x1204"/>
    </TTGlyph>
    <TTGlyph name="Breve.sc" xMin="343" yMin="1101" xMax="707" yMax="1310">
      <contour>
        <pt x="524" y="1101" on="1"/>
        <pt x="487" y="1101" on="0"/>
        <pt x="421" y="1136" on="0"/>
        <pt x="396" y="1165" on="1"/>
        <pt x="343" y="1226" on="0"/>
        <pt x="343" y="1310" on="1"/>
        <pt x="364" y="1310" on="1"/>
        <pt x="364" y="1256" on="0"/>
        <pt x="420" y="1216" on="1"/>
        <pt x="469" y="1181" on="0"/>
        <pt x="526" y="1181" on="1"/>
        <pt x="577" y="1181" on="0"/>
        <pt x="615" y="1213" on="1"/>
        <pt x="685" y="1271" on="0"/>
        <pt x="685" y="1310" on="1"/>
        <pt x="707" y="1310" on="1"/>
        <pt x="707" y="1233" on="0"/>
        <pt x="653" y="1168" on="1"/>
        <pt x="597" y="1101" on="0"/>
      </contour>
    </TTGlyph>
    <TTGlyph name="C" xMin="110" yMin="-30" xMax="1581" yMax="1452">
      <contour>
        <pt x="1299" y="20" on="1"/>
        <pt x="1216" y="32" on="1"/>
        <pt x="1149" y="32" on="0"/>
        <pt x="1074" y="10" on="1"/>
        <pt x="934" y="-30" on="0"/>
        <pt x="792" y="-30" on="0"/>
        <pt x="617" y="-5" on="0"/>
        <pt x="447" y="54" on="0"/>
        <pt x="294" y="152" on="0"/>
        <pt x="236" y="225" on="1"/>
        <pt x="110" y="384" on="0"/>
        <pt x="110" y="629" on="1"/>
        <pt x="110" y="864" on="0"/>
        <pt x="257" y="1062" on="1"/>
        <pt x="391" y="1242" on="0"/>
        <pt x="615" y="1348" on="1"/>
        <pt x="832" y="1452" on="0"/>
        <pt x="1060" y="1452" on="1"/>
        <pt x="1187" y="1452" on="0"/>
        <pt x="1413" y="1410" on="0"/>
        <pt x="1464" y="1393" on="1"/>
        <pt x="1581" y="1354" on="0"/>
        <pt x="1581" y="1298" on="1"/>
        <pt x="1581" y="1225" on="0"/>
        <pt x="1520" y="1037" on="0"/>
        <pt x="1500" y="993" on="0"/>
        <pt x="1489" y="993" on="1"/>
        <pt x="1469" y="993" on="0"/>
        <pt x="1466" y="1010" on="1"/>
        <pt x="1463" y="1061" on="0"/>
        <pt x="1456" y="1162" on="0"/>
        <pt x="1412" y="1248" on="0"/>
        <pt x="1340" y="1315" on="0"/>
        <pt x="1296" y="1339" on="1"/>
        <pt x="1202" y="1390" on="0"/>
        <pt x="1003" y="1390" on="0"/>
        <pt x="801" y="1333" on="0"/>
        <pt x="621" y="1229" on="0"/>
        <pt x="469" y="1085" on="0"/>
        <pt x="414" y="998" on="1"/>
        <pt x="296" y="812" on="0"/>
        <pt x="296" y="605" on="1"/>
        <pt x="296" y="360" on="0"/>
        <pt x="444" y="198" on="1"/>
        <pt x="598" y="31" on="0"/>
        <pt x="845" y="31" on="1"/>
        <pt x="1004" y="31" on="0"/>
        <pt x="1146" y="136" on="1"/>
        <pt x="1270" y="228" on="0"/>
        <pt x="1317" y="351" on="1"/>
        <pt x="1324" y="370" on="0"/>
        <pt x="1341" y="395" on="0"/>
        <pt x="1358" y="395" on="1"/>
        <pt x="1393" y="395" on="0"/>
        <pt x="1393" y="378" on="1"/>
        <pt x="1392" y="376" on="0"/>
        <pt x="1391" y="367" on="0"/>
        <pt x="1387" y="343" on="0"/>
        <pt x="1378" y="298" on="0"/>
        <pt x="1361" y="222" on="0"/>
        <pt x="1336" y="109" on="0"/>
        <pt x="1317" y="23" on="0"/>
        <pt x="1306" y="20" on="0"/>
      </contour>
    </TTGlyph>
    <TTGlyph name="C.sc" xMin="97" yMin="-18" xMax="1066" yMax="972">
      <contour>
        <pt x="969" y="25" on="1"/>
        <pt x="967" y="20" on="0"/>
        <pt x="941" y="26" on="0"/>
        <pt x="884" y="26" on="0"/>
        <pt x="821" y="12" on="0"/>
        <pt x="784" y="4" on="1"/>
        <pt x="684" y="-18" on="0"/>
        <pt x="528" y="-18" on="0"/>
        <pt x="329" y="50" on="0"/>
        <pt x="256" y="113" on="1"/>
        <pt x="97" y="249" on="0"/>
        <pt x="97" y="466" on="1"/>
        <pt x="97" y="688" on="0"/>
        <pt x="254" y="831" on="1"/>
        <pt x="408" y="972" on="0"/>
        <pt x="644" y="972" on="1"/>
        <pt x="724" y="972" on="0"/>
        <pt x="881" y="936" on="1"/>
        <pt x="901" y="930" on="0"/>
        <pt x="945" y="912" on="0"/>
        <pt x="953" y="912" on="1"/>
        <pt x="973" y="918" on="1"/>
        <pt x="1014" y="918" on="1"/>
        <pt x="1023" y="918" on="0"/>
        <pt x="1023" y="906" on="1"/>
        <pt x="1023" y="698" on="1"/>
        <pt x="1023" y="691" on="0"/>
        <pt x="1008" y="691" on="1"/>
        <pt x="978" y="691" on="0"/>
        <pt x="975" y="696" on="1"/>
        <pt x="968" y="707" on="0"/>
        <pt x="935" y="776" on="0"/>
        <pt x="871" y="845" on="0"/>
        <pt x="832" y="866" on="1"/>
        <pt x="759" y="906" on="0"/>
        <pt x="560" y="906" on="0"/>
        <pt x="420" y="849" on="0"/>
        <pt x="374" y="796" on="1"/>
        <pt x="284" y="694" on="0"/>
        <pt x="284" y="505" on="1"/>
        <pt x="284" y="306" on="0"/>
        <pt x="384" y="188" on="1"/>
        <pt x="493" y="60" on="0"/>
        <pt x="688" y="60" on="1"/>
        <pt x="852" y="60" on="0"/>
        <pt x="962" y="169" on="1"/>
        <pt x="998" y="204" on="0"/>
        <pt x="1024" y="253" on="0"/>
        <pt x="1029" y="253" on="1"/>
        <pt x="1059" y="253" on="1"/>
        <pt x="1066" y="253" on="0"/>
        <pt x="1066" y="239" on="0"/>
        <pt x="1062" y="228" on="0"/>
        <pt x="1043" y="187" on="0"/>
        <pt x="1004" y="103" on="0"/>
      </contour>
    </TTGlyph>
    <TTGlyph name="Cacute" xMin="110" yMin="-30" xMax="1581" yMax="1950">
      <component glyphName="C" x="0" y="0" flags="0x1204"/>
      <component glyphName="acute" x="939" y="498" flags="0x1004"/>
    </TTGlyph>
    <TTGlyph name="Caron" xMin="36" yMin="1559" xMax="586" yMax="1949">
      <contour>
        <pt x="553" y="1945" on="1"/>
        <pt x="557" y="1949" on="0"/>
        <pt x="564" y="1949" on="0"/>
        <pt x="572" y="1941" on="0"/>
        <pt x="576" y="1936" on="1"/>
        <pt x="586" y="1922" on="0"/>
        <pt x="586" y="1912" on="0"/>
        <pt x="579" y="1902" on="1"/>
        <pt x="331" y="1581" on="1"/>
        <pt x="314" y="1559" on="0"/>
        <pt x="305" y="1559" on="1"/>
        <pt x="296" y="1559" on="0"/>
        <pt x="280" y="1581" on="1"/>
        <pt x="43" y="1902" on="1"/>
        <pt x="36" y="1912" on="0"/>
        <pt x="36" y="1920" on="0"/>
        <pt x="42" y="1930" on="0"/>
        <pt x="46" y="1936" on="1"/>
        <pt x="56" y="1949" on="0"/>
        <pt x="59" y="1949" on="1"/>
        <pt x="67" y="1949" on="0"/>
        <pt x="71" y="1945" on="1"/>
        <pt x="285" y="1721" on="1"/>
        <pt x="288" y="1718" on="0"/>
        <pt x="303" y="1700" on="0"/>
        <pt x="305" y="1700" on="1"/>
        <pt x="307" y="1700" on="0"/>
        <pt x="323" y="1718" on="0"/>
        <pt x="326" y="1721" on="1"/>
      </contour>
    </TTGlyph>
    <TTGlyph name="Caron.sc" xMin="340" yMin="1066" xMax="709" yMax="1327">
      <contour>
        <pt x="687" y="1324" on="1"/>
        <pt x="690" y="1327" on="0"/>
        <pt x="695" y="1327" on="0"/>
        <pt x="709" y="1309" on="0"/>
        <pt x="709" y="1302" on="0"/>
        <pt x="703" y="1296" on="1"/>
        <pt x="538" y="1080" on="1"/>
        <pt x="524" y="1066" on="0"/>
        <pt x="520" y="1066" on="1"/>
        <pt x="512" y="1066" on="0"/>
        <pt x="504" y="1080" on="1"/>
        <pt x="344" y="1296" on="1"/>
        <pt x="340" y="1301" on="0"/>
        <pt x="340" y="1309" on="0"/>
        <pt x="353" y="1327" on="0"/>
        <pt x="360" y="1327" on="0"/>
        <pt x="418" y="1267" on="0"/>
        <pt x="480" y="1201" on="0"/>
        <pt x="496" y="1184" on="1"/>
        <pt x="520" y="1160" on="0"/>
        <pt x="521" y="1160" on="1"/>
      </contour>
    </TTGlyph>
    <TTGlyph name="Ccaron" xMin="110" yMin="-30" xMax="1581" yMax="1948">
      <component glyphName="C" x="0" y="0" flags="0x1204"/>
      <component glyphName="caron" x="599" y="497" flags="0x1004"/>
    </TTGlyph>
    <TTGlyph name="Ccedilla" xMin="110" yMin="-532" xMax="1581" yMax="1452">
      <contour>
        <pt x="1299" y="20" on="1"/>
        <pt x="1216" y="32" on="1"/>
        <pt x="1149" y="32" on="0"/>
        <pt x="1074" y="10" on="1"/>
        <pt x="934" y="-30" on="0"/>
        <pt x="873" y="-30" on="1"/>
        <pt x="853" y="-29" on="1"/>
        <pt x="746" y="-154" on="1"/>
        <pt x="818" y="-173" on="0"/>
        <pt x="857" y="-228" on="1"/>
        <pt x="886" y="-269" on="0"/>
        <pt x="886" y="-305" on="1"/>
        <pt x="870" y="-499" on="0"/>
        <pt x="553" y="-532" on="1"/>
        <pt x="497" y="-532" on="0"/>
        <pt x="497" y="-489" on="1"/>
        <pt x="497" y="-470" on="0"/>
        <pt x="526" y="-460" on="0"/>
        <pt x="573" y="-452" on="0"/>
        <pt x="626" y="-442" on="0"/>
        <pt x="681" y="-425" on="0"/>
        <pt x="703" y="-411" on="1"/>
        <pt x="753" y="-379" on="0"/>
        <pt x="753" y="-324" on="1"/>
        <pt x="753" y="-280" on="0"/>
        <pt x="696" y="-246" on="1"/>
        <pt x="653" y="-221" on="0"/>
        <pt x="603" y="-215" on="1"/>
        <pt x="757" y="-24" on="1"/>
        <pt x="490" y="4" on="0"/>
        <pt x="320" y="140" on="1"/>
        <pt x="110" y="309" on="0"/>
        <pt x="110" y="629" on="1"/>
        <pt x="110" y="864" on="0"/>
        <pt x="257" y="1062" on="1"/>
        <pt x="391" y="1242" on="0"/>
        <pt x="615" y="1348" on="1"/>
        <pt x="832" y="1452" on="0"/>
        <pt x="1060" y="1452" on="1"/>
        <pt x="1187" y="1452" on="0"/>
        <pt x="1413" y="1410" on="0"/>
        <pt x="1464" y="1393" on="1"/>
        <pt x="1581" y="1354" on="0"/>
        <pt x="1581" y="1298" on="1"/>
        <pt x="1581" y="1225" on="0"/>
        <pt x="1520" y="1037" on="0"/>
        <pt x="1500" y="993" on="0"/>
        <pt x="1489" y="993" on="1"/>
        <pt x="1469" y="993" on="0"/>
        <pt x="1466" y="1010" on="1"/>
        <pt x="1463" y="1061" on="0"/>
        <pt x="1456" y="1162" on="0"/>
        <pt x="1412" y="1248" on="0"/>
        <pt x="1340" y="1315" on="0"/>
        <pt x="1296" y="1339" on="1"/>
        <pt x="1202" y="1390" on="0"/>
        <pt x="1003" y="1390" on="0"/>
        <pt x="801" y="1333" on="0"/>
        <pt x="621" y="1229" on="0"/>
        <pt x="469" y="1085" on="0"/>
        <pt x="414" y="998" on="1"/>
        <pt x="296" y="812" on="0"/>
        <pt x="296" y="605" on="1"/>
        <pt x="296" y="360" on="0"/>
        <pt x="444" y="198" on="1"/>
        <pt x="598" y="31" on="0"/>
        <pt x="845" y="31" on="1"/>
        <pt x="1004" y="31" on="0"/>
        <pt x="1146" y="136" on="1"/>
        <pt x="1270" y="228" on="0"/>
        <pt x="1317" y="351" on="1"/>
        <pt x="1324" y="370" on="0"/>
        <pt x="1341" y="395" on="0"/>
        <pt x="1358" y="395" on="1"/>
        <pt x="1393" y="395" on="0"/>
        <pt x="1393" y="378" on="1"/>
        <pt x="1392" y="376" on="0"/>
        <pt x="1391" y="367" on="0"/>
        <pt x="1387" y="343" on="0"/>
        <pt x="1378" y="298" on="0"/>
        <pt x="1361" y="222" on="0"/>
        <pt x="1336" y="109" on="0"/>
        <pt x="1317" y="23" on="0"/>
        <pt x="1306" y="20" on="0"/>
      </contour>
    </TTGlyph>
    <TTGlyph name="Ccedilla.sc" xMin="97" yMin="-372" xMax="1066" yMax="972">
      <component glyphName="C.sc" x="0" y="0" flags="0x1204"/>
      <component glyphName="Cedilla.sc" x="0" y="0" flags="0x1004"/>
    </TTGlyph>
    <TTGlyph name="Ccircumflex" xMin="110" yMin="-30" xMax="1581" yMax="1948">
      <component glyphName="C" x="0" y="0" flags="0x1204"/>
      <component glyphName="circumflex" x="649" y="497" flags="0x1004"/>
    </TTGlyph>
    <TTGlyph name="Cdotaccent" xMin="110" yMin="-30" xMax="1581" yMax="1917">
      <component glyphName="C" x="0" y="0" flags="0x1204"/>
      <component glyphName="dotaccent" x="509" y="571" flags="0x1004"/>
    </TTGlyph>
    <TTGlyph name="Cedilla.sc" xMin="395" yMin="-372" xMax="655" yMax="-16">
      <contour>
        <pt x="655" y="-221" on="1"/>
        <pt x="641" y="-351" on="0"/>
        <pt x="433" y="-372" on="1"/>
        <pt x="415" y="-372" on="0"/>
        <pt x="395" y="-365" on="0"/>
        <pt x="395" y="-354" on="1"/>
        <pt x="395" y="-339" on="0"/>
        <pt x="417" y="-326" on="0"/>
        <pt x="470" y="-316" on="0"/>
        <pt x="497" y="-306" on="1"/>
        <pt x="566" y="-280" on="0"/>
        <pt x="566" y="-233" on="1"/>
        <pt x="566" y="-189" on="0"/>
        <pt x="494" y="-166" on="1"/>
        <pt x="477" y="-161" on="0"/>
        <pt x="465" y="-160" on="1"/>
        <pt x="582" y="-16" on="1"/>
        <pt x="650" y="-16" on="1"/>
        <pt x="562" y="-119" on="1"/>
        <pt x="632" y="-140" on="0"/>
        <pt x="650" y="-198" on="1"/>
        <pt x="655" y="-212" on="0"/>
      </contour>
    </TTGlyph>
    <TTGlyph name="Chi" xMin="20" yMin="0" xMax="1667" yMax="1411">
      <component glyphName="X" x="0" y="0" flags="0x1204"/>
    </TTGlyph>
    <TTGlyph name="Circumflex.sc" xMin="340" yMin="1066" xMax="709" yMax="1327">
      <contour>
        <pt x="534" y="1219" on="1"/>
        <pt x="532" y="1221" on="0"/>
        <pt x="523" y="1233" on="0"/>
        <pt x="521" y="1233" on="1"/>
        <pt x="519" y="1233" on="0"/>
        <pt x="509" y="1221" on="0"/>
        <pt x="507" y="1219" on="1"/>
        <pt x="363" y="1069" on="1"/>
        <pt x="360" y="1066" on="0"/>
        <pt x="353" y="1066" on="0"/>
        <pt x="340" y="1084" on="0"/>
        <pt x="340" y="1088" on="1"/>
        <pt x="340" y="1092" on="0"/>
        <pt x="344" y="1097" on="1"/>
        <pt x="504" y="1314" on="1"/>
        <pt x="517" y="1327" on="0"/>
        <pt x="524" y="1327" on="0"/>
        <pt x="533" y="1317" on="0"/>
        <pt x="538" y="1312" on="1"/>
        <pt x="703" y="1097" on="1"/>
        <pt x="709" y="1091" on="0"/>
        <pt x="709" y="1084" on="0"/>
        <pt x="695" y="1066" on="0"/>
        <pt x="690" y="1066" on="0"/>
        <pt x="687" y="1069" on="1"/>
      </contour>
    </TTGlyph>
    <TTGlyph name="Copt-ph" xMin="125" yMin="0" xMax="1799" yMax="1645">
      <contour>
        <pt x="125" y="1245" on="1"/>
        <pt x="125" y="1411" on="0"/>
        <pt x="359" y="1645" on="0"/>
        <pt x="525" y="1645" on="1"/>
        <pt x="1399" y="1645" on="1"/>
        <pt x="1565" y="1645" on="0"/>
        <pt x="1799" y="1411" on="0"/>
        <pt x="1799" y="1245" on="1"/>
        <pt x="1799" y="400" on="1"/>
        <pt x="1799" y="233" on="0"/>
        <pt x="1682" y="117" on="1"/>
        <pt x="1563" y="0" on="0"/>
        <pt x="1398" y="0" on="1"/>
        <pt x="526" y="0" on="1"/>
        <pt x="361" y="0" on="0"/>
        <pt x="242" y="117" on="1"/>
        <pt x="125" y="233" on="0"/>
        <pt x="125" y="400" on="1"/>
      </contour>
      <contour>
        <pt x="526" y="1495" on="1"/>
        <pt x="422" y="1495" on="0"/>
        <pt x="349" y="1422" on="1"/>
        <pt x="275" y="1348" on="0"/>
        <pt x="275" y="1245" on="1"/>
        <pt x="275" y="400" on="1"/>
        <pt x="275" y="296" on="0"/>
        <pt x="350" y="223" on="1"/>
        <pt x="424" y="150" on="0"/>
        <pt x="526" y="150" on="1"/>
        <pt x="1398" y="150" on="1"/>
        <pt x="1500" y="150" on="0"/>
        <pt x="1574" y="223" on="1"/>
        <pt x="1649" y="296" on="0"/>
        <pt x="1649" y="400" on="1"/>
        <pt x="1649" y="1245" on="1"/>
        <pt x="1649" y="1348" on="0"/>
        <pt x="1575" y="1422" on="1"/>
        <pt x="1502" y="1495" on="0"/>
        <pt x="1398" y="1495" on="1"/>
      </contour>
      <contour>
        <pt x="1204" y="460" on="1"/>
        <pt x="1188" y="449" on="0"/>
        <pt x="1137" y="412" on="0"/>
        <pt x="1109" y="394" on="1"/>
        <pt x="1039" y="349" on="0"/>
        <pt x="975" y="349" on="0"/>
        <pt x="933" y="373" on="0"/>
        <pt x="914" y="388" on="1"/>
        <pt x="862" y="426" on="0"/>
        <pt x="818" y="426" on="1"/>
        <pt x="776" y="426" on="0"/>
        <pt x="694" y="373" on="0"/>
        <pt x="642" y="349" on="0"/>
        <pt x="576" y="349" on="0"/>
        <pt x="509" y="382" on="0"/>
        <pt x="480" y="409" on="1"/>
        <pt x="413" y="471" on="0"/>
        <pt x="413" y="534" on="1"/>
        <pt x="413" y="659" on="0"/>
        <pt x="523" y="659" on="1"/>
        <pt x="601" y="659" on="0"/>
        <pt x="632" y="614" on="1"/>
        <pt x="643" y="598" on="0"/>
        <pt x="643" y="576" on="1"/>
        <pt x="643" y="509" on="0"/>
        <pt x="586" y="444" on="1"/>
        <pt x="608" y="440" on="0"/>
        <pt x="674" y="440" on="0"/>
        <pt x="741" y="480" on="0"/>
        <pt x="787" y="550" on="0"/>
        <pt x="815" y="646" on="0"/>
        <pt x="822" y="700" on="1"/>
        <pt x="834" y="794" on="0"/>
        <pt x="834" y="933" on="1"/>
        <pt x="834" y="1212" on="0"/>
        <pt x="693" y="1212" on="1"/>
        <pt x="680" y="1212" on="1"/>
        <pt x="674" y="1212" on="0"/>
        <pt x="666" y="1210" on="1"/>
        <pt x="707" y="1175" on="0"/>
        <pt x="707" y="1117" on="1"/>
        <pt x="707" y="1046" on="0"/>
        <pt x="652" y="1019" on="1"/>
        <pt x="634" y="1010" on="0"/>
        <pt x="587" y="1010" on="0"/>
        <pt x="541" y="1026" on="0"/>
        <pt x="523" y="1041" on="1"/>
        <pt x="482" y="1075" on="0"/>
        <pt x="482" y="1131" on="1"/>
        <pt x="482" y="1164" on="0"/>
        <pt x="490" y="1206" on="1"/>
        <pt x="549" y="1278" on="0"/>
        <pt x="587" y="1298" on="1"/>
        <pt x="654" y="1335" on="0"/>
        <pt x="860" y="1335" on="0"/>
        <pt x="1021" y="1274" on="0"/>
        <pt x="1137" y="1169" on="0"/>
        <pt x="1216" y="1028" on="0"/>
        <pt x="1276" y="866" on="0"/>
        <pt x="1325" y="691" on="0"/>
        <pt x="1352" y="606" on="1"/>
        <pt x="1375" y="560" on="0"/>
        <pt x="1474" y="468" on="1"/>
        <pt x="1568" y="382" on="0"/>
        <pt x="1568" y="319" on="0"/>
        <pt x="1398" y="319" on="0"/>
        <pt x="1280" y="382" on="0"/>
      </contour>
      <contour>
        <pt x="929" y="445" on="0"/>
        <pt x="982" y="415" on="0"/>
        <pt x="1049" y="415" on="0"/>
        <pt x="1107" y="463" on="0"/>
        <pt x="1126" y="502" on="1"/>
        <pt x="1164" y="582" on="0"/>
        <pt x="1164" y="800" on="0"/>
        <pt x="1103" y="991" on="0"/>
        <pt x="1003" y="1138" on="0"/>
        <pt x="872" y="1227" on="0"/>
        <pt x="802" y="1229" on="1"/>
        <pt x="873" y="1185" on="0"/>
        <pt x="904" y="1030" on="1"/>
        <pt x="913" y="983" on="0"/>
        <pt x="913" y="885" on="0"/>
        <pt x="904" y="801" on="0"/>
        <pt x="890" y="709" on="0"/>
        <pt x="873" y="604" on="0"/>
        <pt x="865" y="537" on="1"/>
        <pt x="865" y="509" on="0"/>
      </contour>
    </TTGlyph>
    <TTGlyph name="D" xMin="0" yMin="0" xMax="1619" yMax="1410">
      <contour>
        <pt x="235" y="1400" on="1"/>
        <pt x="235" y="1410" on="0"/>
        <pt x="245" y="1410" on="1"/>
        <pt x="823" y="1410" on="1"/>
        <pt x="1129" y="1410" on="0"/>
        <pt x="1352" y="1278" on="1"/>
        <pt x="1518" y="1179" on="0"/>
        <pt x="1584" y="1016" on="1"/>
        <pt x="1619" y="932" on="0"/>
        <pt x="1619" y="720" on="0"/>
        <pt x="1573" y="517" on="0"/>
        <pt x="1473" y="333" on="0"/>
        <pt x="1317" y="178" on="0"/>
        <pt x="1206" y="121" on="1"/>
        <pt x="970" y="0" on="0"/>
        <pt x="622" y="0" on="1"/>
        <pt x="7" y="0" on="1"/>
        <pt x="0" y="0" on="0"/>
        <pt x="0" y="8" on="1"/>
        <pt x="7" y="42" on="1"/>
        <pt x="11" y="50" on="0"/>
        <pt x="45" y="50" on="0"/>
        <pt x="110" y="57" on="0"/>
        <pt x="139" y="70" on="1"/>
        <pt x="206" y="100" on="0"/>
        <pt x="222" y="176" on="1"/>
        <pt x="447" y="1231" on="1"/>
        <pt x="452" y="1254" on="0"/>
        <pt x="452" y="1308" on="0"/>
        <pt x="428" y="1341" on="0"/>
        <pt x="407" y="1348" on="1"/>
        <pt x="378" y="1359" on="0"/>
        <pt x="298" y="1359" on="1"/>
        <pt x="235" y="1359" on="1"/>
        <pt x="228" y="1359" on="0"/>
        <pt x="228" y="1367" on="1"/>
      </contour>
      <contour>
        <pt x="409" y="221" on="1"/>
        <pt x="407" y="211" on="0"/>
        <pt x="407" y="166" on="0"/>
        <pt x="449" y="111" on="0"/>
        <pt x="482" y="92" on="1"/>
        <pt x="553" y="52" on="0"/>
        <pt x="643" y="52" on="1"/>
        <pt x="766" y="52" on="0"/>
        <pt x="991" y="125" on="0"/>
        <pt x="1131" y="201" on="0"/>
        <pt x="1263" y="315" on="0"/>
        <pt x="1314" y="396" on="1"/>
        <pt x="1427" y="575" on="0"/>
        <pt x="1427" y="831" on="1"/>
        <pt x="1427" y="1201" on="0"/>
        <pt x="1068" y="1318" on="1"/>
        <pt x="925" y="1365" on="0"/>
        <pt x="739" y="1365" on="1"/>
        <pt x="694" y="1365" on="0"/>
        <pt x="648" y="1344" on="0"/>
        <pt x="641" y="1312" on="1"/>
      </contour>
    </TTGlyph>
    <TTGlyph name="D.sc" xMin="53" yMin="0" xMax="1130" yMax="973">
      <contour>
        <pt x="58" y="906" on="1"/>
        <pt x="53" y="906" on="0"/>
        <pt x="53" y="912" on="1"/>
        <pt x="53" y="951" on="1"/>
        <pt x="53" y="955" on="0"/>
        <pt x="58" y="955" on="1"/>
        <pt x="320" y="967" on="1"/>
        <pt x="437" y="973" on="0"/>
        <pt x="531" y="973" on="0"/>
        <pt x="604" y="971" on="0"/>
        <pt x="638" y="968" on="1"/>
        <pt x="825" y="955" on="0"/>
        <pt x="920" y="888" on="1"/>
        <pt x="1049" y="798" on="0"/>
        <pt x="1104" y="642" on="1"/>
        <pt x="1130" y="567" on="0"/>
        <pt x="1130" y="384" on="0"/>
        <pt x="1042" y="203" on="0"/>
        <pt x="968" y="138" on="1"/>
        <pt x="814" y="0" on="0"/>
        <pt x="600" y="0" on="1"/>
        <pt x="58" y="0" on="1"/>
        <pt x="53" y="0" on="0"/>
        <pt x="53" y="5" on="1"/>
        <pt x="53" y="45" on="1"/>
        <pt x="53" y="50" on="0"/>
        <pt x="58" y="50" on="1"/>
        <pt x="72" y="50" on="1"/>
        <pt x="194" y="50" on="0"/>
        <pt x="194" y="128" on="1"/>
        <pt x="194" y="831" on="1"/>
        <pt x="194" y="887" on="0"/>
        <pt x="132" y="902" on="1"/>
        <pt x="116" y="906" on="0"/>
        <pt x="101" y="906" on="1"/>
      </contour>
      <contour>
        <pt x="357" y="115" on="1"/>
        <pt x="357" y="67" on="0"/>
        <pt x="450" y="64" on="1"/>
        <pt x="478" y="63" on="0"/>
        <pt x="615" y="63" on="0"/>
        <pt x="782" y="115" on="0"/>
        <pt x="839" y="168" on="1"/>
        <pt x="956" y="275" on="0"/>
        <pt x="956" y="482" on="1"/>
        <pt x="956" y="671" on="0"/>
        <pt x="850" y="788" on="1"/>
        <pt x="740" y="910" on="0"/>
        <pt x="557" y="910" on="1"/>
        <pt x="374" y="910" on="1"/>
        <pt x="357" y="910" on="0"/>
        <pt x="357" y="892" on="1"/>
      </contour>
    </TTGlyph>
    <TTGlyph name="Dcaron" xMin="0" yMin="0" xMax="1619" yMax="1948">
      <component glyphName="caron" x="590" y="497" flags="0x1004"/>
      <component glyphName="D" x="0" y="0" flags="0x1004"/>
    </TTGlyph>
    <TTGlyph name="Delta" xMin="29" yMin="0" xMax="1181" yMax="1452">
      <contour>
        <pt x="949" y="1452" on="1"/>
        <pt x="1181" y="0" on="1"/>
        <pt x="29" y="0" on="1"/>
      </contour>
      <contour>
        <pt x="988" y="148" on="1"/>
        <pt x="824" y="1158" on="1"/>
        <pt x="187" y="148" on="1"/>
      </contour>
    </TTGlyph>
    <TTGlyph name="Dieresis" xMin="33" yMin="1682" xMax="666" yMax="1916">
      <contour>
        <pt x="617" y="1700" on="0"/>
        <pt x="574" y="1682" on="0"/>
        <pt x="525" y="1682" on="0"/>
        <pt x="482" y="1700" on="0"/>
        <pt x="466" y="1716" on="1"/>
        <pt x="432" y="1748" on="0"/>
        <pt x="432" y="1822" on="0"/>
        <pt x="450" y="1865" on="0"/>
        <pt x="466" y="1881" on="1"/>
        <pt x="501" y="1916" on="0"/>
        <pt x="574" y="1916" on="0"/>
        <pt x="617" y="1897" on="0"/>
        <pt x="633" y="1881" on="1"/>
        <pt x="666" y="1848" on="0"/>
        <pt x="666" y="1773" on="0"/>
        <pt x="649" y="1731" on="0"/>
      </contour>
      <contour>
        <pt x="150" y="1682" on="1"/>
        <pt x="100" y="1682" on="0"/>
        <pt x="76" y="1706" on="1"/>
        <pt x="33" y="1749" on="0"/>
        <pt x="33" y="1822" on="0"/>
        <pt x="51" y="1865" on="0"/>
        <pt x="66" y="1881" on="1"/>
        <pt x="100" y="1916" on="0"/>
        <pt x="150" y="1916" on="1"/>
        <pt x="200" y="1916" on="0"/>
        <pt x="224" y="1890" on="1"/>
        <pt x="267" y="1846" on="0"/>
        <pt x="267" y="1773" on="0"/>
        <pt x="249" y="1731" on="0"/>
        <pt x="234" y="1716" on="1"/>
        <pt x="200" y="1682" on="0"/>
      </contour>
    </TTGlyph>
    <TTGlyph name="Dieresis.sc" xMin="313" yMin="1119" xMax="737" yMax="1277">
      <contour>
        <pt x="737" y="1164" on="0"/>
        <pt x="693" y="1119" on="0"/>
        <pt x="626" y="1119" on="0"/>
        <pt x="581" y="1164" on="0"/>
        <pt x="581" y="1197" on="1"/>
        <pt x="581" y="1230" on="0"/>
        <pt x="626" y="1277" on="0"/>
        <pt x="693" y="1277" on="0"/>
        <pt x="737" y="1230" on="0"/>
        <pt x="737" y="1197" on="1"/>
      </contour>
      <contour>
        <pt x="392" y="1119" on="1"/>
        <pt x="359" y="1119" on="0"/>
        <pt x="313" y="1164" on="0"/>
        <pt x="313" y="1197" on="1"/>
        <pt x="313" y="1230" on="0"/>
        <pt x="359" y="1277" on="0"/>
        <pt x="392" y="1277" on="1"/>
        <pt x="425" y="1277" on="0"/>
        <pt x="469" y="1230" on="0"/>
        <pt x="469" y="1197" on="1"/>
        <pt x="469" y="1164" on="0"/>
        <pt x="425" y="1119" on="0"/>
      </contour>
    </TTGlyph>
    <TTGlyph name="DieresisAcute" xMin="33" yMin="1682" xMax="666" yMax="1916">
      <contour>
        <pt x="617" y="1700" on="0"/>
        <pt x="574" y="1682" on="0"/>
        <pt x="525" y="1682" on="0"/>
        <pt x="482" y="1700" on="0"/>
        <pt x="466" y="1716" on="1"/>
        <pt x="432" y="1748" on="0"/>
        <pt x="432" y="1822" on="0"/>
        <pt x="450" y="1865" on="0"/>
        <pt x="466" y="1881" on="1"/>
        <pt x="501" y="1916" on="0"/>
        <pt x="574" y="1916" on="0"/>
        <pt x="617" y="1897" on="0"/>
        <pt x="633" y="1881" on="1"/>
        <pt x="666" y="1848" on="0"/>
        <pt x="666" y="1773" on="0"/>
        <pt x="649" y="1731" on="0"/>
      </contour>
      <contour>
        <pt x="150" y="1682" on="1"/>
        <pt x="100" y="1682" on="0"/>
        <pt x="76" y="1706" on="1"/>
        <pt x="33" y="1749" on="0"/>
        <pt x="33" y="1822" on="0"/>
        <pt x="51" y="1865" on="0"/>
        <pt x="66" y="1881" on="1"/>
        <pt x="100" y="1916" on="0"/>
        <pt x="150" y="1916" on="1"/>
        <pt x="200" y="1916" on="0"/>
        <pt x="224" y="1890" on="1"/>
        <pt x="267" y="1846" on="0"/>
        <pt x="267" y="1773" on="0"/>
        <pt x="249" y="1731" on="0"/>
        <pt x="234" y="1716" on="1"/>
        <pt x="200" y="1682" on="0"/>
      </contour>
    </TTGlyph>
    <TTGlyph name="DieresisGrave" xMin="33" yMin="1682" xMax="666" yMax="1916">
      <contour>
        <pt x="617" y="1700" on="0"/>
        <pt x="574" y="1682" on="0"/>
        <pt x="525" y="1682" on="0"/>
        <pt x="482" y="1700" on="0"/>
        <pt x="466" y="1716" on="1"/>
        <pt x="432" y="1748" on="0"/>
        <pt x="432" y="1822" on="0"/>
        <pt x="450" y="1865" on="0"/>
        <pt x="466" y="1881" on="1"/>
        <pt x="501" y="1916" on="0"/>
        <pt x="574" y="1916" on="0"/>
        <pt x="617" y="1897" on="0"/>
        <pt x="633" y="1881" on="1"/>
        <pt x="666" y="1848" on="0"/>
        <pt x="666" y="1773" on="0"/>
        <pt x="649" y="1731" on="0"/>
      </contour>
      <contour>
        <pt x="150" y="1682" on="1"/>
        <pt x="100" y="1682" on="0"/>
        <pt x="76" y="1706" on="1"/>
        <pt x="33" y="1749" on="0"/>
        <pt x="33" y="1822" on="0"/>
        <pt x="51" y="1865" on="0"/>
        <pt x="66" y="1881" on="1"/>
        <pt x="100" y="1916" on="0"/>
        <pt x="150" y="1916" on="1"/>
        <pt x="200" y="1916" on="0"/>
        <pt x="224" y="1890" on="1"/>
        <pt x="267" y="1846" on="0"/>
        <pt x="267" y="1773" on="0"/>
        <pt x="249" y="1731" on="0"/>
        <pt x="234" y="1716" on="1"/>
        <pt x="200" y="1682" on="0"/>
      </contour>
    </TTGlyph>
    <TTGlyph name="Dotaccent.sc" xMin="402" yMin="1076" xMax="648" yMax="1322">
      <contour>
        <pt x="525" y="1076" on="1"/>
        <pt x="471" y="1076" on="0"/>
        <pt x="402" y="1143" on="0"/>
        <pt x="402" y="1224" on="0"/>
        <pt x="420" y="1269" on="0"/>
        <pt x="436" y="1286" on="1"/>
        <pt x="471" y="1322" on="0"/>
        <pt x="525" y="1322" on="1"/>
        <pt x="579" y="1322" on="0"/>
        <pt x="604" y="1296" on="1"/>
        <pt x="648" y="1250" on="0"/>
        <pt x="648" y="1143" on="0"/>
        <pt x="579" y="1076" on="0"/>
      </contour>
    </TTGlyph>
    <TTGlyph name="E" xMin="0" yMin="0" xMax="1340" yMax="1410">
      <contour>
        <pt x="1257" y="311" on="1"/>
        <pt x="1257" y="299" on="0"/>
        <pt x="1207" y="185" on="0"/>
        <pt x="1173" y="79" on="0"/>
        <pt x="1151" y="21" on="0"/>
        <pt x="1125" y="0" on="0"/>
        <pt x="1097" y="0" on="1"/>
        <pt x="7" y="0" on="1"/>
        <pt x="0" y="0" on="0"/>
        <pt x="0" y="8" on="1"/>
        <pt x="5" y="32" on="1"/>
        <pt x="9" y="40" on="0"/>
        <pt x="50" y="40" on="0"/>
        <pt x="109" y="49" on="0"/>
        <pt x="132" y="64" on="1"/>
        <pt x="181" y="96" on="0"/>
        <pt x="199" y="183" on="1"/>
        <pt x="242" y="384" on="0"/>
        <pt x="307" y="689" on="0"/>
        <pt x="356" y="913" on="0"/>
        <pt x="389" y="1065" on="0"/>
        <pt x="411" y="1165" on="0"/>
        <pt x="423" y="1220" on="0"/>
        <pt x="426" y="1235" on="1"/>
        <pt x="429" y="1256" on="0"/>
        <pt x="429" y="1299" on="0"/>
        <pt x="390" y="1338" on="0"/>
        <pt x="360" y="1350" on="1"/>
        <pt x="308" y="1370" on="0"/>
        <pt x="235" y="1370" on="1"/>
        <pt x="229" y="1370" on="0"/>
        <pt x="229" y="1378" on="1"/>
        <pt x="234" y="1402" on="1"/>
        <pt x="236" y="1410" on="0"/>
        <pt x="244" y="1410" on="1"/>
        <pt x="1290" y="1410" on="1"/>
        <pt x="1313" y="1410" on="0"/>
        <pt x="1340" y="1401" on="0"/>
        <pt x="1340" y="1378" on="0"/>
        <pt x="1339" y="1366" on="0"/>
        <pt x="1335" y="1341" on="1"/>
        <pt x="1331" y="1314" on="0"/>
        <pt x="1302" y="1103" on="1"/>
        <pt x="1300" y="1089" on="0"/>
        <pt x="1286" y="1089" on="1"/>
        <pt x="1258" y="1089" on="0"/>
        <pt x="1254" y="1112" on="1"/>
        <pt x="1251" y="1127" on="0"/>
        <pt x="1251" y="1166" on="0"/>
        <pt x="1244" y="1217" on="0"/>
        <pt x="1216" y="1282" on="0"/>
        <pt x="1193" y="1305" on="1"/>
        <pt x="1143" y="1355" on="0"/>
        <pt x="1066" y="1355" on="1"/>
        <pt x="699" y="1355" on="1"/>
        <pt x="644" y="1355" on="0"/>
        <pt x="634" y="1347" on="1"/>
        <pt x="621" y="1337" on="0"/>
        <pt x="611" y="1290" on="1"/>
        <pt x="506" y="790" on="1"/>
        <pt x="504" y="782" on="0"/>
        <pt x="504" y="778" on="1"/>
        <pt x="504" y="753" on="0"/>
        <pt x="546" y="753" on="1"/>
        <pt x="913" y="753" on="1"/>
        <pt x="978" y="753" on="0"/>
        <pt x="1040" y="800" on="1"/>
        <pt x="1087" y="837" on="0"/>
        <pt x="1119" y="896" on="1"/>
        <pt x="1126" y="909" on="0"/>
        <pt x="1136" y="909" on="1"/>
        <pt x="1153" y="909" on="1"/>
        <pt x="1162" y="909" on="0"/>
        <pt x="1162" y="895" on="0"/>
        <pt x="1161" y="895" on="0"/>
        <pt x="1161" y="893" on="1"/>
        <pt x="1081" y="520" on="1"/>
        <pt x="1077" y="499" on="0"/>
        <pt x="1061" y="499" on="1"/>
        <pt x="1050" y="499" on="0"/>
        <pt x="1043" y="506" on="0"/>
        <pt x="1039" y="532" on="0"/>
        <pt x="1038" y="566" on="0"/>
        <pt x="1026" y="615" on="0"/>
        <pt x="999" y="651" on="0"/>
        <pt x="980" y="661" on="1"/>
        <pt x="946" y="678" on="0"/>
        <pt x="882" y="678" on="1"/>
        <pt x="521" y="678" on="1"/>
        <pt x="513" y="678" on="0"/>
        <pt x="483" y="664" on="0"/>
        <pt x="471" y="626" on="0"/>
        <pt x="464" y="589" on="0"/>
        <pt x="440" y="485" on="0"/>
        <pt x="410" y="333" on="0"/>
        <pt x="399" y="284" on="1"/>
        <pt x="384" y="216" on="0"/>
        <pt x="384" y="133" on="0"/>
        <pt x="417" y="88" on="0"/>
        <pt x="446" y="77" on="1"/>
        <pt x="488" y="61" on="0"/>
        <pt x="686" y="61" on="0"/>
        <pt x="817" y="69" on="0"/>
        <pt x="915" y="86" on="0"/>
        <pt x="988" y="115" on="0"/>
        <pt x="1019" y="136" on="1"/>
        <pt x="1061" y="166" on="0"/>
        <pt x="1157" y="264" on="0"/>
        <pt x="1179" y="291" on="0"/>
        <pt x="1190" y="302" on="1"/>
        <pt x="1216" y="330" on="0"/>
        <pt x="1257" y="330" on="0"/>
      </contour>
    </TTGlyph>
    <TTGlyph name="E.sc" xMin="24" yMin="0" xMax="862" yMax="945">
      <contour>
        <pt x="30" y="0" on="1"/>
        <pt x="24" y="0" on="0"/>
        <pt x="24" y="5" on="1"/>
        <pt x="24" y="45" on="1"/>
        <pt x="24" y="50" on="0"/>
        <pt x="30" y="50" on="1"/>
        <pt x="45" y="50" on="1"/>
        <pt x="73" y="52" on="0"/>
        <pt x="132" y="53" on="0"/>
        <pt x="156" y="60" on="1"/>
        <pt x="211" y="76" on="0"/>
        <pt x="211" y="141" on="1"/>
        <pt x="211" y="804" on="1"/>
        <pt x="211" y="870" on="0"/>
        <pt x="132" y="888" on="1"/>
        <pt x="110" y="893" on="0"/>
        <pt x="87" y="897" on="1"/>
        <pt x="74" y="897" on="1"/>
        <pt x="68" y="897" on="0"/>
        <pt x="68" y="902" on="1"/>
        <pt x="68" y="939" on="1"/>
        <pt x="68" y="945" on="0"/>
        <pt x="74" y="945" on="1"/>
        <pt x="765" y="945" on="1"/>
        <pt x="788" y="945" on="0"/>
        <pt x="790" y="921" on="1"/>
        <pt x="801" y="727" on="1"/>
        <pt x="801" y="720" on="0"/>
        <pt x="779" y="720" on="1"/>
        <pt x="760" y="720" on="0"/>
        <pt x="749" y="736" on="0"/>
        <pt x="745" y="779" on="0"/>
        <pt x="738" y="802" on="1"/>
        <pt x="722" y="862" on="0"/>
        <pt x="664" y="870" on="1"/>
        <pt x="384" y="870" on="1"/>
        <pt x="375" y="870" on="0"/>
        <pt x="375" y="862" on="1"/>
        <pt x="375" y="531" on="1"/>
        <pt x="375" y="524" on="0"/>
        <pt x="382" y="524" on="1"/>
        <pt x="613" y="524" on="1"/>
        <pt x="704" y="524" on="0"/>
        <pt x="704" y="624" on="1"/>
        <pt x="704" y="629" on="0"/>
        <pt x="709" y="629" on="1"/>
        <pt x="746" y="629" on="1"/>
        <pt x="751" y="629" on="0"/>
        <pt x="751" y="624" on="1"/>
        <pt x="751" y="337" on="1"/>
        <pt x="751" y="332" on="0"/>
        <pt x="746" y="332" on="1"/>
        <pt x="709" y="332" on="1"/>
        <pt x="704" y="332" on="0"/>
        <pt x="704" y="374" on="0"/>
        <pt x="688" y="419" on="0"/>
        <pt x="676" y="431" on="1"/>
        <pt x="656" y="450" on="0"/>
        <pt x="611" y="450" on="1"/>
        <pt x="382" y="450" on="1"/>
        <pt x="375" y="450" on="0"/>
        <pt x="375" y="443" on="1"/>
        <pt x="375" y="133" on="1"/>
        <pt x="375" y="82" on="0"/>
        <pt x="421" y="76" on="1"/>
        <pt x="434" y="75" on="0"/>
        <pt x="449" y="75" on="1"/>
        <pt x="673" y="75" on="1"/>
        <pt x="741" y="75" on="0"/>
        <pt x="779" y="130" on="1"/>
        <pt x="808" y="173" on="0"/>
        <pt x="813" y="225" on="1"/>
        <pt x="818" y="244" on="0"/>
        <pt x="839" y="244" on="1"/>
        <pt x="841" y="244" on="0"/>
        <pt x="862" y="237" on="0"/>
        <pt x="862" y="234" on="1"/>
        <pt x="840" y="9" on="1"/>
        <pt x="837" y="0" on="0"/>
        <pt x="831" y="0" on="1"/>
      </contour>
    </TTGlyph>
    <TTGlyph name="Eacute" xMin="0" yMin="0" xMax="1340" yMax="1950">
      <component glyphName="E" x="0" y="0" flags="0x1204"/>
      <component glyphName="acute" x="606" y="498" flags="0x1004"/>
    </TTGlyph>
    <TTGlyph name="Eacute.sc" xMin="24" yMin="0" xMax="862" yMax="1327">
      <component glyphName="E.sc" x="0" y="0" flags="0x1204"/>
      <component glyphName="Acute.sc" x="0" y="0" flags="0x1004"/>
    </TTGlyph>
    <TTGlyph name="Ebreve" xMin="0" yMin="0" xMax="1340" yMax="1950">
      <component glyphName="E" x="0" y="0" flags="0x1204"/>
      <component glyphName="breve" x="366" y="542" flags="0x1004"/>
    </TTGlyph>
    <TTGlyph name="Ecaron" xMin="0" yMin="0" xMax="1340" yMax="1948">
      <component glyphName="E" x="0" y="0" flags="0x1204"/>
      <component glyphName="caron" x="426" y="497" flags="0x1004"/>
    </TTGlyph>
    <TTGlyph name="Ecircumflex" xMin="0" yMin="0" xMax="1340" yMax="1972">
      <component glyphName="E" x="0" y="0" flags="0x1204"/>
      <component glyphName="circumflex" x="456" y="521" flags="0x1004"/>
    </TTGlyph>
    <TTGlyph name="Ecircumflex.sc" xMin="24" yMin="0" xMax="862" yMax="1327">
      <component glyphName="E.sc" x="0" y="0" flags="0x1204"/>
      <component glyphName="Circumflex.sc" x="-69" y="0" flags="0x1004"/>
    </TTGlyph>
    <TTGlyph name="Edieresis" xMin="0" yMin="0" xMax="1340" yMax="1930">
      <component glyphName="E" x="0" y="0" flags="0x1204"/>
      <component glyphName="dieresis" x="396" y="571" flags="0x1004"/>
    </TTGlyph>
    <TTGlyph name="Edieresis.sc" xMin="24" yMin="0" xMax="862" yMax="1277">
      <component glyphName="E.sc" x="0" y="0" flags="0x1204"/>
      <component glyphName="Dieresis.sc" x="-79" y="0" flags="0x1004"/>
    </TTGlyph>
    <TTGlyph name="Edotaccent" xMin="0" yMin="0" xMax="1340" yMax="1917">
      <component glyphName="E" x="0" y="0" flags="0x1204"/>
      <component glyphName="dotaccent" x="316" y="571" flags="0x1004"/>
    </TTGlyph>
    <TTGlyph name="Egrave" xMin="0" yMin="0" xMax="1340" yMax="1950">
      <component glyphName="E" x="0" y="0" flags="0x1204"/>
      <component glyphName="grave" x="651" y="498" flags="0x1004"/>
    </TTGlyph>
    <TTGlyph name="Egrave.sc" xMin="24" yMin="0" xMax="862" yMax="1327">
      <component glyphName="E.sc" x="0" y="0" flags="0x1204"/>
      <component glyphName="Gravesmall" x="-139" y="0" flags="0x1004"/>
    </TTGlyph>
    <TTGlyph name="Emacron" xMin="0" yMin="0" xMax="1340" yMax="1849">
      <component glyphName="E" x="0" y="0" flags="0x1204"/>
      <component glyphName="macron" x="346" y="542" flags="0x1004"/>
    </TTGlyph>
    <TTGlyph name="Emacron.sc" xMin="24" yMin="0" xMax="862" yMax="1240">
      <component glyphName="E.sc" x="0" y="0" flags="0x1204"/>
      <component glyphName="Macron.sc" x="-79" y="0" flags="0x1004"/>
    </TTGlyph>
    <TTGlyph name="Eng" xMin="17" yMin="-642" xMax="1866" yMax="1410">
      <contour>
        <pt x="1029" y="-610" on="0"/>
        <pt x="857" y="-642" on="0"/>
        <pt x="594" y="-642" on="0"/>
        <pt x="594" y="-578" on="1"/>
        <pt x="594" y="-509" on="0"/>
        <pt x="663" y="-491" on="1"/>
        <pt x="682" y="-486" on="0"/>
        <pt x="729" y="-486" on="0"/>
        <pt x="792" y="-501" on="0"/>
        <pt x="824" y="-510" on="1"/>
        <pt x="905" y="-535" on="0"/>
        <pt x="993" y="-535" on="0"/>
        <pt x="1077" y="-518" on="0"/>
        <pt x="1143" y="-473" on="0"/>
        <pt x="1195" y="-394" on="0"/>
        <pt x="1218" y="-332" on="1"/>
        <pt x="1257" y="-225" on="0"/>
        <pt x="1312" y="28" on="1"/>
        <pt x="1295" y="47" on="0"/>
        <pt x="1264" y="98" on="0"/>
        <pt x="1103" y="335" on="0"/>
        <pt x="890" y="648" on="0"/>
        <pt x="741" y="865" on="0"/>
        <pt x="647" y="1002" on="0"/>
        <pt x="591" y="1085" on="0"/>
        <pt x="563" y="1126" on="0"/>
        <pt x="554" y="1140" on="1"/>
        <pt x="520" y="1187" on="0"/>
        <pt x="510" y="1187" on="1"/>
        <pt x="495" y="1187" on="0"/>
        <pt x="486" y="1141" on="1"/>
        <pt x="448" y="954" on="0"/>
        <pt x="368" y="592" on="0"/>
        <pt x="317" y="347" on="0"/>
        <pt x="317" y="238" on="0"/>
        <pt x="333" y="150" on="0"/>
        <pt x="351" y="116" on="1"/>
        <pt x="391" y="40" on="0"/>
        <pt x="469" y="40" on="1"/>
        <pt x="503" y="40" on="0"/>
        <pt x="522" y="34" on="0"/>
        <pt x="522" y="23" on="1"/>
        <pt x="522" y="14" on="1"/>
        <pt x="522" y="0" on="0"/>
        <pt x="500" y="0" on="1"/>
        <pt x="49" y="0" on="1"/>
        <pt x="33" y="0" on="0"/>
        <pt x="17" y="6" on="0"/>
        <pt x="17" y="35" on="0"/>
        <pt x="29" y="47" on="0"/>
        <pt x="47" y="55" on="0"/>
        <pt x="68" y="60" on="0"/>
        <pt x="100" y="72" on="0"/>
        <pt x="146" y="107" on="0"/>
        <pt x="166" y="130" on="1"/>
        <pt x="209" y="180" on="0"/>
        <pt x="221" y="231" on="1"/>
        <pt x="432" y="1225" on="1"/>
        <pt x="434" y="1237" on="0"/>
        <pt x="442" y="1266" on="0"/>
        <pt x="442" y="1302" on="0"/>
        <pt x="405" y="1337" on="0"/>
        <pt x="378" y="1348" on="1"/>
        <pt x="328" y="1370" on="0"/>
        <pt x="247" y="1370" on="0"/>
        <pt x="225" y="1375" on="0"/>
        <pt x="225" y="1389" on="1"/>
        <pt x="225" y="1403" on="0"/>
        <pt x="243" y="1410" on="0"/>
        <pt x="264" y="1410" on="1"/>
        <pt x="515" y="1410" on="1"/>
        <pt x="572" y="1410" on="0"/>
        <pt x="589" y="1400" on="1"/>
        <pt x="610" y="1389" on="0"/>
        <pt x="640" y="1344" on="1"/>
        <pt x="1333" y="326" on="1"/>
        <pt x="1339" y="317" on="0"/>
        <pt x="1354" y="294" on="0"/>
        <pt x="1367" y="294" on="0"/>
        <pt x="1373" y="321" on="0"/>
        <pt x="1384" y="361" on="0"/>
        <pt x="1393" y="410" on="0"/>
        <pt x="1408" y="490" on="0"/>
        <pt x="1440" y="638" on="0"/>
        <pt x="1458" y="723" on="1"/>
        <pt x="1500" y="913" on="0"/>
        <pt x="1543" y="1116" on="0"/>
        <pt x="1565" y="1209" on="0"/>
        <pt x="1565" y="1244" on="1"/>
        <pt x="1565" y="1312" on="0"/>
        <pt x="1514" y="1352" on="1"/>
        <pt x="1491" y="1370" on="0"/>
        <pt x="1396" y="1370" on="1"/>
        <pt x="1382" y="1370" on="0"/>
        <pt x="1373" y="1386" on="0"/>
        <pt x="1373" y="1393" on="1"/>
        <pt x="1373" y="1410" on="0"/>
        <pt x="1402" y="1410" on="1"/>
        <pt x="1843" y="1410" on="1"/>
        <pt x="1866" y="1410" on="0"/>
        <pt x="1866" y="1370" on="0"/>
        <pt x="1843" y="1370" on="1"/>
        <pt x="1803" y="1370" on="1"/>
        <pt x="1723" y="1370" on="0"/>
        <pt x="1670" y="1300" on="1"/>
        <pt x="1645" y="1268" on="0"/>
        <pt x="1606" y="1074" on="0"/>
        <pt x="1581" y="959" on="0"/>
        <pt x="1549" y="807" on="0"/>
        <pt x="1512" y="636" on="0"/>
        <pt x="1473" y="452" on="0"/>
        <pt x="1435" y="273" on="0"/>
        <pt x="1418" y="190" on="1"/>
        <pt x="1387" y="39" on="0"/>
        <pt x="1384" y="30" on="0"/>
        <pt x="1383" y="22" on="0"/>
        <pt x="1377" y="5" on="0"/>
        <pt x="1353" y="-117" on="0"/>
        <pt x="1306" y="-299" on="0"/>
        <pt x="1242" y="-441" on="0"/>
        <pt x="1155" y="-544" on="0"/>
      </contour>
    </TTGlyph>
    <TTGlyph name="Eogonek" xMin="0" yMin="-546" xMax="1340" yMax="1410">
      <component glyphName="E" x="0" y="0" flags="0x1204"/>
      <component glyphName="ogonek" x="346" y="0" flags="0x1004"/>
    </TTGlyph>
    <TTGlyph name="Epsilon" xMin="0" yMin="0" xMax="1340" yMax="1410">
      <component glyphName="E" x="0" y="0" flags="0x1204"/>
    </TTGlyph>
    <TTGlyph name="Epsilontonos" xMin="-5" yMin="0" xMax="1716" yMax="1453">
      <component glyphName="E" x="376" y="0" flags="0x1004"/>
      <component glyphName="tonos" x="-247" y="-69" flags="0x1004"/>
    </TTGlyph>
    <TTGlyph name="Eta" xMin="20" yMin="0" xMax="1775" yMax="1410">
      <component glyphName="H" x="0" y="0" flags="0x1204"/>
    </TTGlyph>
    <TTGlyph name="Etatonos" xMin="7" yMin="0" xMax="2092" yMax="1453">
      <component glyphName="H" x="317" y="0" flags="0x1004"/>
      <component glyphName="tonos" x="-235" y="-69" flags="0x1004"/>
    </TTGlyph>
    <TTGlyph name="Eth" xMin="0" yMin="0" xMax="1619" yMax="1410">
      <contour>
        <pt x="235" y="1400" on="1"/>
        <pt x="235" y="1410" on="0"/>
        <pt x="245" y="1410" on="1"/>
        <pt x="823" y="1410" on="1"/>
        <pt x="1129" y="1410" on="0"/>
        <pt x="1352" y="1278" on="1"/>
        <pt x="1518" y="1179" on="0"/>
        <pt x="1584" y="1016" on="1"/>
        <pt x="1619" y="932" on="0"/>
        <pt x="1619" y="720" on="0"/>
        <pt x="1573" y="517" on="0"/>
        <pt x="1473" y="333" on="0"/>
        <pt x="1317" y="178" on="0"/>
        <pt x="1206" y="121" on="1"/>
        <pt x="970" y="0" on="0"/>
        <pt x="622" y="0" on="1"/>
        <pt x="7" y="0" on="1"/>
        <pt x="0" y="0" on="0"/>
        <pt x="0" y="8" on="1"/>
        <pt x="7" y="42" on="1"/>
        <pt x="11" y="50" on="0"/>
        <pt x="45" y="50" on="0"/>
        <pt x="110" y="57" on="0"/>
        <pt x="139" y="70" on="1"/>
        <pt x="206" y="100" on="0"/>
        <pt x="222" y="176" on="1"/>
        <pt x="328" y="675" on="1"/>
        <pt x="140" y="675" on="1"/>
        <pt x="118" y="675" on="0"/>
        <pt x="118" y="695" on="1"/>
        <pt x="124" y="725" on="1"/>
        <pt x="129" y="750" on="0"/>
        <pt x="146" y="750" on="1"/>
        <pt x="344" y="750" on="1"/>
        <pt x="447" y="1231" on="1"/>
        <pt x="452" y="1254" on="0"/>
        <pt x="452" y="1308" on="0"/>
        <pt x="428" y="1341" on="0"/>
        <pt x="407" y="1348" on="1"/>
        <pt x="378" y="1359" on="0"/>
        <pt x="298" y="1359" on="1"/>
        <pt x="235" y="1359" on="1"/>
        <pt x="228" y="1359" on="0"/>
        <pt x="228" y="1367" on="1"/>
      </contour>
      <contour>
        <pt x="409" y="221" on="1"/>
        <pt x="407" y="211" on="0"/>
        <pt x="407" y="166" on="0"/>
        <pt x="449" y="111" on="0"/>
        <pt x="482" y="92" on="1"/>
        <pt x="553" y="52" on="0"/>
        <pt x="643" y="52" on="1"/>
        <pt x="766" y="52" on="0"/>
        <pt x="991" y="125" on="0"/>
        <pt x="1131" y="201" on="0"/>
        <pt x="1263" y="315" on="0"/>
        <pt x="1314" y="396" on="1"/>
        <pt x="1427" y="575" on="0"/>
        <pt x="1427" y="831" on="1"/>
        <pt x="1427" y="1201" on="0"/>
        <pt x="1068" y="1318" on="1"/>
        <pt x="925" y="1365" on="0"/>
        <pt x="739" y="1365" on="1"/>
        <pt x="694" y="1365" on="0"/>
        <pt x="648" y="1344" on="0"/>
        <pt x="641" y="1312" on="1"/>
        <pt x="521" y="750" on="1"/>
        <pt x="861" y="750" on="1"/>
        <pt x="882" y="750" on="0"/>
        <pt x="882" y="730" on="1"/>
        <pt x="876" y="700" on="1"/>
        <pt x="871" y="675" on="0"/>
        <pt x="855" y="675" on="1"/>
        <pt x="505" y="675" on="1"/>
      </contour>
    </TTGlyph>
    <TTGlyph name="Eth.sc" xMin="47" yMin="0" xMax="1130" yMax="973">
      <contour>
        <pt x="72" y="50" on="1"/>
        <pt x="194" y="50" on="0"/>
        <pt x="194" y="128" on="1"/>
        <pt x="194" y="456" on="1"/>
        <pt x="61" y="456" on="1"/>
        <pt x="47" y="456" on="0"/>
        <pt x="47" y="472" on="1"/>
        <pt x="47" y="518" on="1"/>
        <pt x="47" y="533" on="0"/>
        <pt x="61" y="533" on="1"/>
        <pt x="194" y="533" on="1"/>
        <pt x="194" y="831" on="1"/>
        <pt x="194" y="887" on="0"/>
        <pt x="132" y="902" on="1"/>
        <pt x="116" y="906" on="0"/>
        <pt x="101" y="906" on="1"/>
        <pt x="58" y="906" on="1"/>
        <pt x="53" y="906" on="0"/>
        <pt x="53" y="912" on="1"/>
        <pt x="53" y="951" on="1"/>
        <pt x="53" y="955" on="0"/>
        <pt x="58" y="955" on="1"/>
        <pt x="320" y="967" on="1"/>
        <pt x="437" y="973" on="0"/>
        <pt x="531" y="973" on="0"/>
        <pt x="604" y="971" on="0"/>
        <pt x="638" y="968" on="1"/>
        <pt x="825" y="955" on="0"/>
        <pt x="920" y="888" on="1"/>
        <pt x="1049" y="798" on="0"/>
        <pt x="1104" y="642" on="1"/>
        <pt x="1130" y="567" on="0"/>
        <pt x="1130" y="384" on="0"/>
        <pt x="1042" y="203" on="0"/>
        <pt x="968" y="138" on="1"/>
        <pt x="814" y="0" on="0"/>
        <pt x="600" y="0" on="1"/>
        <pt x="58" y="0" on="1"/>
        <pt x="53" y="0" on="0"/>
        <pt x="53" y="5" on="1"/>
        <pt x="53" y="45" on="1"/>
        <pt x="53" y="50" on="0"/>
        <pt x="58" y="50" on="1"/>
      </contour>
      <contour>
        <pt x="357" y="115" on="1"/>
        <pt x="357" y="67" on="0"/>
        <pt x="450" y="64" on="1"/>
        <pt x="478" y="63" on="0"/>
        <pt x="615" y="63" on="0"/>
        <pt x="782" y="115" on="0"/>
        <pt x="839" y="168" on="1"/>
        <pt x="956" y="275" on="0"/>
        <pt x="956" y="482" on="1"/>
        <pt x="956" y="671" on="0"/>
        <pt x="850" y="788" on="1"/>
        <pt x="740" y="910" on="0"/>
        <pt x="557" y="910" on="1"/>
        <pt x="374" y="910" on="1"/>
        <pt x="357" y="910" on="0"/>
        <pt x="357" y="892" on="1"/>
        <pt x="357" y="533" on="1"/>
        <pt x="576" y="533" on="1"/>
        <pt x="590" y="533" on="0"/>
        <pt x="590" y="518" on="1"/>
        <pt x="590" y="472" on="1"/>
        <pt x="590" y="456" on="0"/>
        <pt x="576" y="456" on="1"/>
        <pt x="357" y="456" on="1"/>
      </contour>
    </TTGlyph>
    <TTGlyph name="Euro" xMin="60" yMin="-27" xMax="1341" yMax="1379">
      <contour>
        <pt x="955" y="28" on="1"/>
        <pt x="916" y="42" on="0"/>
        <pt x="834" y="16" on="0"/>
        <pt x="795" y="4" on="1"/>
        <pt x="688" y="-27" on="0"/>
        <pt x="523" y="-27" on="0"/>
        <pt x="367" y="47" on="0"/>
        <pt x="315" y="116" on="1"/>
        <pt x="211" y="252" on="0"/>
        <pt x="211" y="503" on="1"/>
        <pt x="83" y="503" on="1"/>
        <pt x="60" y="503" on="0"/>
        <pt x="60" y="522" on="1"/>
        <pt x="60" y="524" on="0"/>
        <pt x="63" y="535" on="0"/>
        <pt x="67" y="555" on="1"/>
        <pt x="74" y="589" on="0"/>
        <pt x="101" y="589" on="1"/>
        <pt x="220" y="589" on="1"/>
        <pt x="230" y="670" on="0"/>
        <pt x="263" y="774" on="1"/>
        <pt x="140" y="774" on="1"/>
        <pt x="117" y="774" on="0"/>
        <pt x="117" y="793" on="1"/>
        <pt x="117" y="795" on="0"/>
        <pt x="120" y="806" on="0"/>
        <pt x="124" y="826" on="1"/>
        <pt x="131" y="860" on="0"/>
        <pt x="158" y="860" on="1"/>
        <pt x="295" y="860" on="1"/>
        <pt x="394" y="1093" on="0"/>
        <pt x="580" y="1237" on="1"/>
        <pt x="764" y="1379" on="0"/>
        <pt x="968" y="1379" on="1"/>
        <pt x="1071" y="1379" on="0"/>
        <pt x="1224" y="1316" on="1"/>
        <pt x="1280" y="1292" on="0"/>
        <pt x="1288" y="1292" on="1"/>
        <pt x="1335" y="1299" on="1"/>
        <pt x="1341" y="1299" on="0"/>
        <pt x="1341" y="1291" on="0"/>
        <pt x="1339" y="1280" on="0"/>
        <pt x="1327" y="1222" on="0"/>
        <pt x="1302" y="1100" on="0"/>
        <pt x="1276" y="982" on="0"/>
        <pt x="1269" y="978" on="0"/>
        <pt x="1262" y="978" on="1"/>
        <pt x="1249" y="978" on="0"/>
        <pt x="1247" y="984" on="1"/>
        <pt x="1246" y="991" on="0"/>
        <pt x="1240" y="1021" on="0"/>
        <pt x="1239" y="1027" on="1"/>
        <pt x="1187" y="1314" on="0"/>
        <pt x="966" y="1314" on="1"/>
        <pt x="787" y="1314" on="0"/>
        <pt x="644" y="1187" on="1"/>
        <pt x="505" y="1063" on="0"/>
        <pt x="444" y="860" on="1"/>
        <pt x="997" y="860" on="1"/>
        <pt x="1020" y="860" on="0"/>
        <pt x="1020" y="841" on="1"/>
        <pt x="1019" y="835" on="1"/>
        <pt x="1004" y="799" on="1"/>
        <pt x="993" y="774" on="0"/>
        <pt x="972" y="774" on="1"/>
        <pt x="421" y="774" on="1"/>
        <pt x="413" y="744" on="0"/>
        <pt x="406" y="712" on="1"/>
        <pt x="392" y="644" on="0"/>
        <pt x="385" y="589" on="1"/>
        <pt x="889" y="589" on="1"/>
        <pt x="910" y="589" on="0"/>
        <pt x="910" y="570" on="1"/>
        <pt x="910" y="560" on="0"/>
        <pt x="900" y="538" on="1"/>
        <pt x="882" y="503" on="0"/>
        <pt x="861" y="503" on="1"/>
        <pt x="376" y="503" on="1"/>
        <pt x="379" y="170" on="0"/>
        <pt x="540" y="76" on="1"/>
        <pt x="601" y="40" on="0"/>
        <pt x="756" y="40" on="0"/>
        <pt x="871" y="88" on="0"/>
        <pt x="922" y="130" on="1"/>
        <pt x="1014" y="205" on="0"/>
        <pt x="1114" y="351" on="1"/>
        <pt x="1118" y="357" on="0"/>
        <pt x="1125" y="357" on="1"/>
        <pt x="1135" y="357" on="1"/>
        <pt x="1140" y="357" on="0"/>
        <pt x="1140" y="338" on="0"/>
        <pt x="1131" y="324" on="1"/>
        <pt x="965" y="35" on="1"/>
        <pt x="961" y="28" on="0"/>
      </contour>
    </TTGlyph>
    <TTGlyph name="F" xMin="0" yMin="0" xMax="1341" yMax="1410">
      <contour>
        <pt x="503" y="779" on="1"/>
        <pt x="503" y="753" on="0"/>
        <pt x="544" y="753" on="1"/>
        <pt x="914" y="753" on="1"/>
        <pt x="1013" y="753" on="0"/>
        <pt x="1088" y="846" on="1"/>
        <pt x="1108" y="871" on="0"/>
        <pt x="1126" y="909" on="0"/>
        <pt x="1137" y="909" on="1"/>
        <pt x="1148" y="909" on="1"/>
        <pt x="1163" y="909" on="0"/>
        <pt x="1163" y="899" on="1"/>
        <pt x="1163" y="898" on="0"/>
        <pt x="1162" y="894" on="0"/>
        <pt x="1158" y="872" on="0"/>
        <pt x="1148" y="826" on="0"/>
        <pt x="1140" y="784" on="1"/>
        <pt x="1084" y="515" on="0"/>
        <pt x="1073" y="499" on="0"/>
        <pt x="1050" y="499" on="0"/>
        <pt x="1047" y="504" on="1"/>
        <pt x="1041" y="513" on="0"/>
        <pt x="1039" y="566" on="0"/>
        <pt x="1027" y="615" on="0"/>
        <pt x="1000" y="651" on="0"/>
        <pt x="980" y="661" on="1"/>
        <pt x="947" y="678" on="0"/>
        <pt x="883" y="678" on="1"/>
        <pt x="518" y="678" on="1"/>
        <pt x="482" y="678" on="0"/>
        <pt x="473" y="648" on="1"/>
        <pt x="470" y="640" on="0"/>
        <pt x="457" y="577" on="0"/>
        <pt x="438" y="488" on="0"/>
        <pt x="416" y="382" on="0"/>
        <pt x="405" y="330" on="1"/>
        <pt x="365" y="143" on="0"/>
        <pt x="365" y="96" on="0"/>
        <pt x="400" y="60" on="0"/>
        <pt x="427" y="52" on="1"/>
        <pt x="464" y="40" on="0"/>
        <pt x="551" y="40" on="1"/>
        <pt x="557" y="40" on="0"/>
        <pt x="557" y="32" on="1"/>
        <pt x="552" y="8" on="1"/>
        <pt x="549" y="0" on="0"/>
        <pt x="543" y="0" on="1"/>
        <pt x="7" y="0" on="1"/>
        <pt x="0" y="0" on="0"/>
        <pt x="0" y="8" on="1"/>
        <pt x="5" y="32" on="1"/>
        <pt x="9" y="40" on="0"/>
        <pt x="50" y="40" on="0"/>
        <pt x="109" y="49" on="0"/>
        <pt x="132" y="64" on="1"/>
        <pt x="181" y="96" on="0"/>
        <pt x="199" y="183" on="1"/>
        <pt x="242" y="384" on="0"/>
        <pt x="307" y="691" on="0"/>
        <pt x="356" y="918" on="0"/>
        <pt x="389" y="1074" on="0"/>
        <pt x="410" y="1177" on="0"/>
        <pt x="422" y="1233" on="0"/>
        <pt x="424" y="1247" on="1"/>
        <pt x="428" y="1267" on="0"/>
        <pt x="428" y="1271" on="1"/>
        <pt x="428" y="1370" on="0"/>
        <pt x="236" y="1370" on="1"/>
        <pt x="230" y="1370" on="0"/>
        <pt x="230" y="1378" on="1"/>
        <pt x="235" y="1402" on="1"/>
        <pt x="237" y="1410" on="0"/>
        <pt x="245" y="1410" on="1"/>
        <pt x="1291" y="1410" on="1"/>
        <pt x="1316" y="1410" on="0"/>
        <pt x="1341" y="1404" on="0"/>
        <pt x="1341" y="1381" on="0"/>
        <pt x="1340" y="1377" on="1"/>
        <pt x="1284" y="1114" on="1"/>
        <pt x="1278" y="1089" on="0"/>
        <pt x="1264" y="1089" on="1"/>
        <pt x="1238" y="1089" on="0"/>
        <pt x="1234" y="1112" on="1"/>
        <pt x="1231" y="1127" on="0"/>
        <pt x="1231" y="1166" on="0"/>
        <pt x="1224" y="1217" on="0"/>
        <pt x="1196" y="1282" on="0"/>
        <pt x="1173" y="1305" on="1"/>
        <pt x="1123" y="1355" on="0"/>
        <pt x="1044" y="1355" on="1"/>
        <pt x="705" y="1355" on="1"/>
        <pt x="646" y="1355" on="0"/>
        <pt x="634" y="1346" on="1"/>
        <pt x="619" y="1334" on="0"/>
        <pt x="607" y="1280" on="1"/>
        <pt x="504" y="790" on="1"/>
        <pt x="503" y="786" on="0"/>
      </contour>
    </TTGlyph>
    <TTGlyph name="F.sc" xMin="83" yMin="0" xMax="792" yMax="945">
      <contour>
        <pt x="633" y="547" on="1"/>
        <pt x="723" y="547" on="0"/>
        <pt x="723" y="635" on="1"/>
        <pt x="723" y="640" on="0"/>
        <pt x="729" y="640" on="1"/>
        <pt x="765" y="640" on="1"/>
        <pt x="771" y="640" on="0"/>
        <pt x="771" y="635" on="1"/>
        <pt x="771" y="375" on="1"/>
        <pt x="771" y="370" on="0"/>
        <pt x="765" y="370" on="1"/>
        <pt x="729" y="370" on="1"/>
        <pt x="723" y="370" on="0"/>
        <pt x="723" y="375" on="1"/>
        <pt x="723" y="474" on="0"/>
        <pt x="635" y="474" on="1"/>
        <pt x="371" y="474" on="1"/>
        <pt x="355" y="474" on="0"/>
        <pt x="355" y="455" on="1"/>
        <pt x="355" y="126" on="1"/>
        <pt x="355" y="91" on="0"/>
        <pt x="400" y="68" on="1"/>
        <pt x="438" y="48" on="0"/>
        <pt x="487" y="48" on="1"/>
        <pt x="492" y="48" on="0"/>
        <pt x="492" y="42" on="1"/>
        <pt x="492" y="5" on="1"/>
        <pt x="492" y="0" on="0"/>
        <pt x="487" y="0" on="1"/>
        <pt x="88" y="0" on="1"/>
        <pt x="83" y="0" on="0"/>
        <pt x="83" y="5" on="1"/>
        <pt x="83" y="42" on="1"/>
        <pt x="83" y="48" on="0"/>
        <pt x="107" y="48" on="0"/>
        <pt x="145" y="60" on="0"/>
        <pt x="159" y="72" on="1"/>
        <pt x="191" y="98" on="0"/>
        <pt x="191" y="131" on="1"/>
        <pt x="191" y="823" on="1"/>
        <pt x="191" y="866" on="0"/>
        <pt x="145" y="886" on="1"/>
        <pt x="117" y="897" on="0"/>
        <pt x="91" y="897" on="1"/>
        <pt x="89" y="897" on="1"/>
        <pt x="84" y="897" on="0"/>
        <pt x="84" y="902" on="1"/>
        <pt x="84" y="939" on="1"/>
        <pt x="84" y="945" on="0"/>
        <pt x="89" y="945" on="1"/>
        <pt x="775" y="945" on="1"/>
        <pt x="783" y="943" on="0"/>
        <pt x="792" y="939" on="0"/>
        <pt x="792" y="929" on="1"/>
        <pt x="792" y="757" on="1"/>
        <pt x="792" y="744" on="0"/>
        <pt x="775" y="744" on="1"/>
        <pt x="752" y="744" on="1"/>
        <pt x="751" y="744" on="0"/>
        <pt x="746" y="767" on="0"/>
        <pt x="742" y="782" on="1"/>
        <pt x="731" y="823" on="0"/>
        <pt x="709" y="846" on="0"/>
        <pt x="692" y="860" on="0"/>
        <pt x="682" y="864" on="1"/>
        <pt x="662" y="870" on="0"/>
        <pt x="623" y="870" on="1"/>
        <pt x="369" y="870" on="1"/>
        <pt x="355" y="870" on="0"/>
        <pt x="355" y="857" on="1"/>
        <pt x="355" y="563" on="1"/>
        <pt x="355" y="547" on="0"/>
        <pt x="371" y="547" on="1"/>
      </contour>
    </TTGlyph>
    <TTGlyph name="Fraktur-ph" xMin="125" yMin="0" xMax="1799" yMax="1645">
      <contour>
        <pt x="125" y="1245" on="1"/>
        <pt x="125" y="1411" on="0"/>
        <pt x="359" y="1645" on="0"/>
        <pt x="525" y="1645" on="1"/>
        <pt x="1399" y="1645" on="1"/>
        <pt x="1565" y="1645" on="0"/>
        <pt x="1799" y="1411" on="0"/>
        <pt x="1799" y="1245" on="1"/>
        <pt x="1799" y="400" on="1"/>
        <pt x="1799" y="233" on="0"/>
        <pt x="1682" y="117" on="1"/>
        <pt x="1563" y="0" on="0"/>
        <pt x="1398" y="0" on="1"/>
        <pt x="526" y="0" on="1"/>
        <pt x="361" y="0" on="0"/>
        <pt x="242" y="117" on="1"/>
        <pt x="125" y="233" on="0"/>
        <pt x="125" y="400" on="1"/>
      </contour>
      <contour>
        <pt x="526" y="1495" on="1"/>
        <pt x="422" y="1495" on="0"/>
        <pt x="349" y="1422" on="1"/>
        <pt x="275" y="1348" on="0"/>
        <pt x="275" y="1245" on="1"/>
        <pt x="275" y="400" on="1"/>
        <pt x="275" y="296" on="0"/>
        <pt x="350" y="223" on="1"/>
        <pt x="424" y="150" on="0"/>
        <pt x="526" y="150" on="1"/>
        <pt x="1398" y="150" on="1"/>
        <pt x="1500" y="150" on="0"/>
        <pt x="1574" y="223" on="1"/>
        <pt x="1649" y="296" on="0"/>
        <pt x="1649" y="400" on="1"/>
        <pt x="1649" y="1245" on="1"/>
        <pt x="1649" y="1348" on="0"/>
        <pt x="1575" y="1422" on="1"/>
        <pt x="1502" y="1495" on="0"/>
        <pt x="1398" y="1495" on="1"/>
      </contour>
      <contour>
        <pt x="1406" y="963" on="1"/>
        <pt x="1407" y="1024" on="1"/>
        <pt x="1407" y="1121" on="0"/>
        <pt x="1370" y="1156" on="1"/>
        <pt x="1335" y="1189" on="0"/>
        <pt x="1246" y="1189" on="1"/>
        <pt x="1189" y="1172" on="0"/>
        <pt x="1164" y="1140" on="1"/>
        <pt x="1155" y="1127" on="0"/>
        <pt x="1142" y="1104" on="0"/>
        <pt x="1135" y="1094" on="0"/>
        <pt x="1135" y="1081" on="0"/>
        <pt x="1145" y="1069" on="0"/>
        <pt x="1150" y="1043" on="1"/>
        <pt x="1165" y="965" on="0"/>
        <pt x="1165" y="876" on="1"/>
        <pt x="1165" y="662" on="0"/>
        <pt x="1058" y="506" on="1"/>
        <pt x="957" y="360" on="0"/>
        <pt x="934" y="360" on="1"/>
        <pt x="926" y="360" on="0"/>
        <pt x="908" y="378" on="0"/>
        <pt x="896" y="389" on="1"/>
        <pt x="864" y="418" on="0"/>
        <pt x="820" y="418" on="0"/>
        <pt x="799" y="391" on="0"/>
        <pt x="789" y="384" on="1"/>
        <pt x="772" y="384" on="0"/>
        <pt x="772" y="405" on="0"/>
        <pt x="795" y="444" on="0"/>
        <pt x="812" y="463" on="1"/>
        <pt x="852" y="510" on="0"/>
        <pt x="893" y="510" on="0"/>
        <pt x="937" y="484" on="0"/>
        <pt x="977" y="459" on="1"/>
        <pt x="1017" y="479" on="0"/>
        <pt x="1046" y="594" on="1"/>
        <pt x="1070" y="688" on="0"/>
        <pt x="1070" y="815" on="0"/>
        <pt x="1063" y="924" on="0"/>
        <pt x="1052" y="980" on="1"/>
        <pt x="1019" y="1148" on="0"/>
        <pt x="938" y="1192" on="1"/>
        <pt x="922" y="1201" on="0"/>
        <pt x="869" y="1201" on="0"/>
        <pt x="832" y="1158" on="0"/>
        <pt x="832" y="1138" on="1"/>
        <pt x="832" y="1115" on="0"/>
        <pt x="850" y="1057" on="0"/>
        <pt x="864" y="997" on="0"/>
        <pt x="868" y="966" on="1"/>
        <pt x="877" y="906" on="0"/>
        <pt x="877" y="781" on="0"/>
        <pt x="857" y="669" on="0"/>
        <pt x="834" y="610" on="1"/>
        <pt x="782" y="473" on="0"/>
        <pt x="683" y="398" on="1"/>
        <pt x="671" y="378" on="0"/>
        <pt x="639" y="360" on="0"/>
        <pt x="630" y="360" on="0"/>
        <pt x="616" y="378" on="0"/>
        <pt x="604" y="389" on="1"/>
        <pt x="574" y="418" on="0"/>
        <pt x="539" y="418" on="1"/>
        <pt x="530" y="418" on="0"/>
        <pt x="521" y="408" on="1"/>
        <pt x="504" y="389" on="0"/>
        <pt x="479" y="389" on="0"/>
        <pt x="479" y="403" on="1"/>
        <pt x="479" y="410" on="0"/>
        <pt x="507" y="445" on="1"/>
        <pt x="562" y="513" on="0"/>
        <pt x="588" y="513" on="1"/>
        <pt x="609" y="513" on="0"/>
        <pt x="633" y="497" on="1"/>
        <pt x="682" y="464" on="0"/>
        <pt x="695" y="461" on="1"/>
        <pt x="789" y="527" on="0"/>
        <pt x="789" y="727" on="1"/>
        <pt x="789" y="787" on="0"/>
        <pt x="769" y="950" on="1"/>
        <pt x="745" y="1090" on="0"/>
        <pt x="651" y="1146" on="1"/>
        <pt x="611" y="1169" on="0"/>
        <pt x="523" y="1169" on="0"/>
        <pt x="477" y="1137" on="0"/>
        <pt x="460" y="1112" on="1"/>
        <pt x="425" y="1060" on="0"/>
        <pt x="425" y="1003" on="1"/>
        <pt x="425" y="887" on="0"/>
        <pt x="527" y="826" on="1"/>
        <pt x="533" y="822" on="0"/>
        <pt x="550" y="815" on="0"/>
        <pt x="558" y="810" on="1"/>
        <pt x="575" y="800" on="0"/>
        <pt x="575" y="777" on="0"/>
        <pt x="566" y="777" on="1"/>
        <pt x="498" y="777" on="0"/>
        <pt x="442" y="857" on="1"/>
        <pt x="387" y="935" on="0"/>
        <pt x="387" y="1063" on="0"/>
        <pt x="423" y="1153" on="0"/>
        <pt x="454" y="1187" on="1"/>
        <pt x="523" y="1261" on="0"/>
        <pt x="624" y="1261" on="1"/>
        <pt x="728" y="1261" on="0"/>
        <pt x="783" y="1189" on="1"/>
        <pt x="784" y="1187" on="0"/>
        <pt x="791" y="1178" on="0"/>
        <pt x="797" y="1168" on="0"/>
        <pt x="802" y="1160" on="1"/>
        <pt x="804" y="1160" on="0"/>
        <pt x="821" y="1197" on="0"/>
        <pt x="839" y="1218" on="1"/>
        <pt x="888" y="1277" on="0"/>
        <pt x="958" y="1277" on="1"/>
        <pt x="958" y="1276" on="0"/>
        <pt x="959" y="1276" on="1"/>
        <pt x="960" y="1276" on="1"/>
        <pt x="1045" y="1271" on="0"/>
        <pt x="1097" y="1189" on="1"/>
        <pt x="1104" y="1167" on="0"/>
        <pt x="1123" y="1140" on="0"/>
        <pt x="1127" y="1140" on="1"/>
        <pt x="1165" y="1258" on="0"/>
        <pt x="1326" y="1258" on="1"/>
        <pt x="1403" y="1258" on="0"/>
        <pt x="1458" y="1194" on="1"/>
        <pt x="1493" y="1152" on="0"/>
        <pt x="1499" y="1062" on="0"/>
        <pt x="1499" y="1014" on="0"/>
        <pt x="1520" y="985" on="1"/>
        <pt x="1520" y="962" on="0"/>
        <pt x="1484" y="960" on="1"/>
        <pt x="1386" y="955" on="0"/>
        <pt x="1374" y="825" on="1"/>
        <pt x="1371" y="792" on="0"/>
        <pt x="1371" y="744" on="1"/>
        <pt x="1371" y="615" on="0"/>
        <pt x="1374" y="522" on="1"/>
        <pt x="1377" y="486" on="0"/>
        <pt x="1420" y="459" on="1"/>
        <pt x="1431" y="452" on="0"/>
        <pt x="1446" y="452" on="0"/>
        <pt x="1462" y="463" on="0"/>
        <pt x="1470" y="470" on="1"/>
        <pt x="1492" y="488" on="0"/>
        <pt x="1513" y="488" on="0"/>
        <pt x="1513" y="468" on="0"/>
        <pt x="1502" y="455" on="0"/>
        <pt x="1473" y="431" on="0"/>
        <pt x="1423" y="392" on="0"/>
        <pt x="1383" y="360" on="1"/>
        <pt x="1347" y="360" on="0"/>
        <pt x="1320" y="390" on="1"/>
        <pt x="1270" y="444" on="0"/>
        <pt x="1270" y="478" on="1"/>
        <pt x="1270" y="807" on="1"/>
        <pt x="1270" y="907" on="0"/>
      </contour>
    </TTGlyph>
    <TTGlyph name="G" xMin="100" yMin="-27" xMax="1614" yMax="1452">
      <contour>
        <pt x="1477" y="122" on="1"/>
        <pt x="1495" y="122" on="0"/>
        <pt x="1495" y="111" on="1"/>
        <pt x="1495" y="77" on="0"/>
        <pt x="1430" y="56" on="1"/>
        <pt x="1316" y="18" on="0"/>
        <pt x="1017" y="-16" on="1"/>
        <pt x="915" y="-27" on="0"/>
        <pt x="879" y="-27" on="1"/>
        <pt x="537" y="-27" on="0"/>
        <pt x="325" y="152" on="1"/>
        <pt x="100" y="341" on="0"/>
        <pt x="100" y="674" on="1"/>
        <pt x="100" y="882" on="0"/>
        <pt x="242" y="1069" on="1"/>
        <pt x="374" y="1241" on="0"/>
        <pt x="579" y="1347" on="1"/>
        <pt x="783" y="1452" on="0"/>
        <pt x="972" y="1452" on="1"/>
        <pt x="1176" y="1452" on="0"/>
        <pt x="1311" y="1431" on="0"/>
        <pt x="1348" y="1422" on="1"/>
        <pt x="1452" y="1397" on="0"/>
        <pt x="1547" y="1358" on="0"/>
        <pt x="1552" y="1352" on="1"/>
        <pt x="1567" y="1332" on="0"/>
        <pt x="1581" y="1134" on="0"/>
        <pt x="1581" y="1036" on="0"/>
        <pt x="1549" y="1036" on="0"/>
        <pt x="1532" y="1045" on="0"/>
        <pt x="1523" y="1062" on="0"/>
        <pt x="1518" y="1084" on="0"/>
        <pt x="1480" y="1167" on="0"/>
        <pt x="1403" y="1282" on="0"/>
        <pt x="1350" y="1322" on="1"/>
        <pt x="1242" y="1405" on="0"/>
        <pt x="1057" y="1405" on="1"/>
        <pt x="870" y="1405" on="0"/>
        <pt x="692" y="1297" on="1"/>
        <pt x="520" y="1192" on="0"/>
        <pt x="412" y="1021" on="1"/>
        <pt x="301" y="843" on="0"/>
        <pt x="301" y="648" on="1"/>
        <pt x="301" y="377" on="0"/>
        <pt x="434" y="212" on="1"/>
        <pt x="576" y="36" on="0"/>
        <pt x="838" y="36" on="1"/>
        <pt x="1068" y="36" on="0"/>
        <pt x="1175" y="106" on="1"/>
        <pt x="1219" y="134" on="0"/>
        <pt x="1229" y="180" on="1"/>
        <pt x="1278" y="401" on="1"/>
        <pt x="1281" y="413" on="0"/>
        <pt x="1281" y="445" on="0"/>
        <pt x="1258" y="478" on="0"/>
        <pt x="1240" y="488" on="1"/>
        <pt x="1203" y="510" on="0"/>
        <pt x="1124" y="510" on="0"/>
        <pt x="1124" y="546" on="0"/>
        <pt x="1153" y="546" on="1"/>
        <pt x="1213" y="546" on="0"/>
        <pt x="1272" y="546" on="1"/>
        <pt x="1468" y="545" on="1"/>
        <pt x="1524" y="545" on="0"/>
        <pt x="1614" y="545" on="0"/>
        <pt x="1614" y="525" on="1"/>
        <pt x="1614" y="510" on="0"/>
        <pt x="1539" y="510" on="0"/>
        <pt x="1480" y="457" on="0"/>
        <pt x="1466" y="396" on="0"/>
        <pt x="1452" y="329" on="0"/>
        <pt x="1437" y="260" on="0"/>
        <pt x="1423" y="193" on="0"/>
        <pt x="1416" y="162" on="0"/>
        <pt x="1416" y="156" on="1"/>
        <pt x="1416" y="122" on="0"/>
      </contour>
    </TTGlyph>
    <TTGlyph name="G.sc" xMin="104" yMin="11" xMax="1121" yMax="970">
      <contour>
        <pt x="1114" y="416" on="1"/>
        <pt x="1121" y="416" on="0"/>
        <pt x="1121" y="393" on="1"/>
        <pt x="1121" y="373" on="0"/>
        <pt x="1096" y="362" on="0"/>
        <pt x="1058" y="352" on="0"/>
        <pt x="1042" y="343" on="1"/>
        <pt x="1005" y="322" on="0"/>
        <pt x="1005" y="278" on="1"/>
        <pt x="1005" y="91" on="1"/>
        <pt x="1005" y="83" on="0"/>
        <pt x="949" y="58" on="0"/>
        <pt x="857" y="24" on="0"/>
        <pt x="808" y="11" on="1"/>
        <pt x="596" y="-46" on="0"/>
        <pt x="426" y="16" on="1"/>
        <pt x="231" y="88" on="0"/>
        <pt x="146" y="272" on="1"/>
        <pt x="104" y="365" on="0"/>
        <pt x="104" y="582" on="0"/>
        <pt x="191" y="760" on="0"/>
        <pt x="263" y="826" on="1"/>
        <pt x="418" y="970" on="0"/>
        <pt x="621" y="970" on="1"/>
        <pt x="742" y="970" on="0"/>
        <pt x="883" y="918" on="1"/>
        <pt x="909" y="909" on="0"/>
        <pt x="912" y="909" on="1"/>
        <pt x="921" y="909" on="1"/>
        <pt x="947" y="917" on="1"/>
        <pt x="985" y="917" on="1"/>
        <pt x="992" y="917" on="0"/>
        <pt x="992" y="909" on="1"/>
        <pt x="992" y="686" on="1"/>
        <pt x="992" y="673" on="0"/>
        <pt x="978" y="673" on="1"/>
        <pt x="954" y="673" on="1"/>
        <pt x="942" y="675" on="0"/>
        <pt x="936" y="714" on="0"/>
        <pt x="918" y="769" on="0"/>
        <pt x="866" y="838" on="0"/>
        <pt x="830" y="858" on="1"/>
        <pt x="766" y="896" on="0"/>
        <pt x="562" y="896" on="0"/>
        <pt x="427" y="831" on="0"/>
        <pt x="382" y="776" on="1"/>
        <pt x="294" y="665" on="0"/>
        <pt x="294" y="489" on="1"/>
        <pt x="294" y="306" on="0"/>
        <pt x="383" y="189" on="1"/>
        <pt x="481" y="60" on="0"/>
        <pt x="662" y="60" on="1"/>
        <pt x="804" y="60" on="0"/>
        <pt x="840" y="107" on="1"/>
        <pt x="840" y="249" on="1"/>
        <pt x="840" y="310" on="0"/>
        <pt x="814" y="332" on="1"/>
        <pt x="770" y="370" on="0"/>
        <pt x="674" y="370" on="1"/>
        <pt x="667" y="370" on="0"/>
        <pt x="667" y="416" on="0"/>
        <pt x="674" y="416" on="1"/>
      </contour>
    </TTGlyph>
    <TTGlyph name="Gamma" xMin="0" yMin="0" xMax="1341" yMax="1410">
      <contour>
        <pt x="369" y="160" on="1"/>
        <pt x="365" y="148" on="0"/>
        <pt x="365" y="97" on="0"/>
        <pt x="401" y="61" on="0"/>
        <pt x="429" y="52" on="1"/>
        <pt x="466" y="40" on="0"/>
        <pt x="551" y="40" on="1"/>
        <pt x="557" y="40" on="0"/>
        <pt x="557" y="32" on="1"/>
        <pt x="552" y="8" on="1"/>
        <pt x="549" y="0" on="0"/>
        <pt x="543" y="0" on="1"/>
        <pt x="7" y="0" on="1"/>
        <pt x="0" y="0" on="0"/>
        <pt x="0" y="8" on="1"/>
        <pt x="5" y="32" on="1"/>
        <pt x="9" y="40" on="0"/>
        <pt x="50" y="40" on="0"/>
        <pt x="109" y="49" on="0"/>
        <pt x="132" y="64" on="1"/>
        <pt x="181" y="96" on="0"/>
        <pt x="199" y="183" on="1"/>
        <pt x="426" y="1250" on="1"/>
        <pt x="429" y="1262" on="0"/>
        <pt x="429" y="1303" on="0"/>
        <pt x="390" y="1341" on="0"/>
        <pt x="360" y="1352" on="1"/>
        <pt x="309" y="1370" on="0"/>
        <pt x="236" y="1370" on="1"/>
        <pt x="230" y="1370" on="0"/>
        <pt x="230" y="1378" on="1"/>
        <pt x="235" y="1402" on="1"/>
        <pt x="237" y="1410" on="0"/>
        <pt x="245" y="1410" on="1"/>
        <pt x="1291" y="1410" on="1"/>
        <pt x="1314" y="1410" on="0"/>
        <pt x="1341" y="1402" on="0"/>
        <pt x="1341" y="1386" on="1"/>
        <pt x="1341" y="1384" on="0"/>
        <pt x="1325" y="1310" on="0"/>
        <pt x="1313" y="1252" on="0"/>
        <pt x="1301" y="1194" on="0"/>
        <pt x="1289" y="1139" on="0"/>
        <pt x="1286" y="1125" on="1"/>
        <pt x="1278" y="1089" on="0"/>
        <pt x="1266" y="1089" on="1"/>
        <pt x="1238" y="1089" on="0"/>
        <pt x="1234" y="1112" on="1"/>
        <pt x="1231" y="1127" on="0"/>
        <pt x="1231" y="1166" on="0"/>
        <pt x="1224" y="1217" on="0"/>
        <pt x="1195" y="1283" on="0"/>
        <pt x="1171" y="1307" on="1"/>
        <pt x="1119" y="1359" on="0"/>
        <pt x="1044" y="1359" on="1"/>
        <pt x="1018" y="1359" on="0"/>
        <pt x="992" y="1359" on="1"/>
        <pt x="904" y="1358" on="1"/>
        <pt x="800" y="1358" on="0"/>
        <pt x="669" y="1358" on="0"/>
        <pt x="639" y="1355" on="0"/>
        <pt x="630" y="1348" on="1"/>
        <pt x="620" y="1341" on="0"/>
        <pt x="610" y="1292" on="1"/>
      </contour>
    </TTGlyph>
    <TTGlyph name="Gbar" xMin="100" yMin="-27" xMax="1683" yMax="1452">
      <contour>
        <pt x="952" y="285" on="1"/>
        <pt x="931" y="285" on="0"/>
        <pt x="931" y="305" on="1"/>
        <pt x="931" y="310" on="1"/>
        <pt x="936" y="335" on="1"/>
        <pt x="941" y="360" on="0"/>
        <pt x="958" y="360" on="1"/>
        <pt x="1269" y="360" on="1"/>
        <pt x="1278" y="401" on="1"/>
        <pt x="1281" y="413" on="0"/>
        <pt x="1281" y="445" on="0"/>
        <pt x="1258" y="478" on="0"/>
        <pt x="1240" y="488" on="1"/>
        <pt x="1203" y="510" on="0"/>
        <pt x="1124" y="510" on="0"/>
        <pt x="1124" y="546" on="0"/>
        <pt x="1153" y="546" on="1"/>
        <pt x="1213" y="546" on="0"/>
        <pt x="1272" y="546" on="1"/>
        <pt x="1468" y="545" on="1"/>
        <pt x="1524" y="545" on="0"/>
        <pt x="1614" y="545" on="0"/>
        <pt x="1614" y="525" on="1"/>
        <pt x="1614" y="510" on="0"/>
        <pt x="1539" y="510" on="0"/>
        <pt x="1480" y="457" on="0"/>
        <pt x="1472" y="422" on="1"/>
        <pt x="1459" y="360" on="1"/>
        <pt x="1662" y="360" on="1"/>
        <pt x="1683" y="360" on="0"/>
        <pt x="1683" y="340" on="1"/>
        <pt x="1683" y="335" on="1"/>
        <pt x="1678" y="310" on="1"/>
        <pt x="1673" y="285" on="0"/>
        <pt x="1656" y="285" on="1"/>
        <pt x="1443" y="285" on="1"/>
        <pt x="1417" y="166" on="1"/>
        <pt x="1416" y="162" on="0"/>
        <pt x="1416" y="156" on="1"/>
        <pt x="1416" y="122" on="0"/>
        <pt x="1477" y="122" on="1"/>
        <pt x="1495" y="122" on="0"/>
        <pt x="1495" y="111" on="1"/>
        <pt x="1495" y="77" on="0"/>
        <pt x="1430" y="56" on="1"/>
        <pt x="1316" y="18" on="0"/>
        <pt x="1017" y="-16" on="1"/>
        <pt x="915" y="-27" on="0"/>
        <pt x="879" y="-27" on="1"/>
        <pt x="537" y="-27" on="0"/>
        <pt x="325" y="152" on="1"/>
        <pt x="100" y="341" on="0"/>
        <pt x="100" y="674" on="1"/>
        <pt x="100" y="882" on="0"/>
        <pt x="242" y="1069" on="1"/>
        <pt x="374" y="1241" on="0"/>
        <pt x="579" y="1347" on="1"/>
        <pt x="783" y="1452" on="0"/>
        <pt x="972" y="1452" on="1"/>
        <pt x="1176" y="1452" on="0"/>
        <pt x="1311" y="1431" on="0"/>
        <pt x="1348" y="1422" on="1"/>
        <pt x="1452" y="1397" on="0"/>
        <pt x="1547" y="1358" on="0"/>
        <pt x="1552" y="1352" on="1"/>
        <pt x="1567" y="1332" on="0"/>
        <pt x="1581" y="1134" on="0"/>
        <pt x="1581" y="1036" on="0"/>
        <pt x="1549" y="1036" on="0"/>
        <pt x="1532" y="1045" on="0"/>
        <pt x="1523" y="1062" on="0"/>
        <pt x="1518" y="1084" on="0"/>
        <pt x="1480" y="1167" on="0"/>
        <pt x="1403" y="1282" on="0"/>
        <pt x="1350" y="1322" on="1"/>
        <pt x="1242" y="1405" on="0"/>
        <pt x="1057" y="1405" on="1"/>
        <pt x="870" y="1405" on="0"/>
        <pt x="692" y="1297" on="1"/>
        <pt x="520" y="1192" on="0"/>
        <pt x="412" y="1021" on="1"/>
        <pt x="301" y="843" on="0"/>
        <pt x="301" y="648" on="1"/>
        <pt x="301" y="377" on="0"/>
        <pt x="434" y="212" on="1"/>
        <pt x="576" y="36" on="0"/>
        <pt x="838" y="36" on="1"/>
        <pt x="1068" y="36" on="0"/>
        <pt x="1175" y="106" on="1"/>
        <pt x="1219" y="134" on="0"/>
        <pt x="1229" y="180" on="1"/>
        <pt x="1252" y="285" on="1"/>
      </contour>
    </TTGlyph>
    <TTGlyph name="Gbreve" xMin="100" yMin="-27" xMax="1614" yMax="1951">
      <component glyphName="G" x="0" y="0" flags="0x1204"/>
      <component glyphName="breve" x="580" y="543" flags="0x1004"/>
    </TTGlyph>
    <TTGlyph name="Gcaron" xMin="100" yMin="-27" xMax="1614" yMax="1948">
      <component glyphName="G" x="0" y="0" flags="0x1204"/>
      <component glyphName="caron" x="610" y="497" flags="0x1004"/>
    </TTGlyph>
    <TTGlyph name="Gcircumflex" xMin="100" yMin="-27" xMax="1614" yMax="1948">
      <component glyphName="G" x="0" y="0" flags="0x1204"/>
      <component glyphName="circumflex" x="640" y="497" flags="0x1004"/>
    </TTGlyph>
    <TTGlyph name="Gcommaaccent" xMin="100" yMin="-640" xMax="1614" yMax="1452">
      <component glyphName="G" x="0" y="0" flags="0x1204"/>
      <component glyphName="commaaccent" x="690" y="0" flags="0x1004"/>
    </TTGlyph>
    <TTGlyph name="Gdotaccent" xMin="100" yMin="-27" xMax="1614" yMax="1917">
      <component glyphName="G" x="0" y="0" flags="0x1204"/>
      <component glyphName="dotaccent" x="560" y="571" flags="0x1004"/>
    </TTGlyph>
    <TTGlyph name="Germandbls.sc" xMin="86" yMin="-18" xMax="1473" yMax="972">
      <component glyphName="S.sc" x="781" y="0" flags="0x1004"/>
      <component glyphName="S.sc" x="1" y="0" flags="0x1004"/>
    </TTGlyph>
    <TTGlyph name="Goth-ph" xMin="125" yMin="0" xMax="1799" yMax="1645">
      <contour>
        <pt x="901" y="624" on="1"/>
        <pt x="908" y="597" on="0"/>
        <pt x="963" y="597" on="1"/>
        <pt x="1044" y="597" on="1"/>
        <pt x="1055" y="603" on="0"/>
        <pt x="1079" y="618" on="0"/>
        <pt x="1085" y="638" on="1"/>
        <pt x="1080" y="681" on="0"/>
        <pt x="1027" y="811" on="0"/>
        <pt x="1016" y="827" on="0"/>
        <pt x="1005" y="868" on="0"/>
        <pt x="997" y="891" on="1"/>
        <pt x="976" y="950" on="0"/>
        <pt x="946" y="950" on="1"/>
        <pt x="915" y="950" on="0"/>
        <pt x="906" y="911" on="1"/>
      </contour>
      <contour>
        <pt x="721" y="221" on="1"/>
        <pt x="695" y="221" on="0"/>
        <pt x="667" y="231" on="0"/>
        <pt x="667" y="271" on="0"/>
        <pt x="688" y="305" on="0"/>
        <pt x="690" y="319" on="1"/>
        <pt x="743" y="906" on="1"/>
        <pt x="784" y="947" on="1"/>
        <pt x="877" y="970" on="0"/>
        <pt x="911" y="1040" on="1"/>
        <pt x="922" y="1062" on="0"/>
        <pt x="922" y="1118" on="0"/>
        <pt x="894" y="1179" on="0"/>
        <pt x="864" y="1206" on="1"/>
        <pt x="799" y="1264" on="0"/>
        <pt x="681" y="1283" on="1"/>
        <pt x="673" y="1291" on="0"/>
        <pt x="673" y="1301" on="1"/>
        <pt x="673" y="1311" on="0"/>
        <pt x="693" y="1319" on="0"/>
        <pt x="704" y="1324" on="1"/>
        <pt x="1018" y="1311" on="1"/>
        <pt x="1039" y="1301" on="0"/>
        <pt x="1048" y="1279" on="1"/>
        <pt x="1303" y="679" on="0"/>
        <pt x="1328" y="605" on="0"/>
        <pt x="1328" y="583" on="1"/>
        <pt x="1321" y="563" on="0"/>
        <pt x="1297" y="549" on="0"/>
        <pt x="1287" y="544" on="1"/>
        <pt x="902" y="530" on="1"/>
        <pt x="889" y="524" on="0"/>
        <pt x="886" y="506" on="0"/>
        <pt x="884" y="500" on="1"/>
        <pt x="838" y="337" on="1"/>
        <pt x="834" y="323" on="0"/>
        <pt x="830" y="293" on="0"/>
        <pt x="820" y="274" on="1"/>
        <pt x="793" y="221" on="0"/>
        <pt x="749" y="221" on="1"/>
      </contour>
      <contour>
        <pt x="125" y="1245" on="1"/>
        <pt x="125" y="1411" on="0"/>
        <pt x="359" y="1645" on="0"/>
        <pt x="525" y="1645" on="1"/>
        <pt x="1399" y="1645" on="1"/>
        <pt x="1565" y="1645" on="0"/>
        <pt x="1799" y="1411" on="0"/>
        <pt x="1799" y="1245" on="1"/>
        <pt x="1799" y="400" on="1"/>
        <pt x="1799" y="233" on="0"/>
        <pt x="1682" y="117" on="1"/>
        <pt x="1563" y="0" on="0"/>
        <pt x="1398" y="0" on="1"/>
        <pt x="526" y="0" on="1"/>
        <pt x="361" y="0" on="0"/>
        <pt x="242" y="117" on="1"/>
        <pt x="125" y="233" on="0"/>
        <pt x="125" y="400" on="1"/>
      </contour>
      <contour>
        <pt x="526" y="1495" on="1"/>
        <pt x="422" y="1495" on="0"/>
        <pt x="349" y="1422" on="1"/>
        <pt x="275" y="1348" on="0"/>
        <pt x="275" y="1245" on="1"/>
        <pt x="275" y="400" on="1"/>
        <pt x="275" y="296" on="0"/>
        <pt x="350" y="223" on="1"/>
        <pt x="424" y="150" on="0"/>
        <pt x="526" y="150" on="1"/>
        <pt x="1398" y="150" on="1"/>
        <pt x="1500" y="150" on="0"/>
        <pt x="1574" y="223" on="1"/>
        <pt x="1649" y="296" on="0"/>
        <pt x="1649" y="400" on="1"/>
        <pt x="1649" y="1245" on="1"/>
        <pt x="1649" y="1348" on="0"/>
        <pt x="1575" y="1422" on="1"/>
        <pt x="1502" y="1495" on="0"/>
        <pt x="1398" y="1495" on="1"/>
      </contour>
    </TTGlyph>
    <TTGlyph name="Grave" xMin="140" yMin="1561" xMax="504" yMax="1950">
      <contour>
        <pt x="478" y="1565" on="1"/>
        <pt x="474" y="1561" on="0"/>
        <pt x="468" y="1561" on="0"/>
        <pt x="464" y="1565" on="1"/>
        <pt x="195" y="1782" on="1"/>
        <pt x="140" y="1829" on="0"/>
        <pt x="140" y="1905" on="0"/>
        <pt x="181" y="1950" on="0"/>
        <pt x="206" y="1950" on="1"/>
        <pt x="251" y="1950" on="0"/>
        <pt x="287" y="1901" on="1"/>
        <pt x="500" y="1606" on="1"/>
        <pt x="504" y="1602" on="0"/>
        <pt x="504" y="1600" on="1"/>
        <pt x="504" y="1598" on="0"/>
        <pt x="500" y="1594" on="1"/>
      </contour>
    </TTGlyph>
    <TTGlyph name="Gravesmall" xMin="402" yMin="1067" xMax="647" yMax="1327">
      <contour>
        <pt x="629" y="1070" on="1"/>
        <pt x="627" y="1067" on="0"/>
        <pt x="622" y="1067" on="0"/>
        <pt x="619" y="1070" on="1"/>
        <pt x="439" y="1215" on="1"/>
        <pt x="402" y="1244" on="0"/>
        <pt x="402" y="1278" on="1"/>
        <pt x="402" y="1298" on="0"/>
        <pt x="430" y="1327" on="0"/>
        <pt x="446" y="1327" on="1"/>
        <pt x="477" y="1327" on="0"/>
        <pt x="501" y="1295" on="1"/>
        <pt x="644" y="1097" on="1"/>
        <pt x="647" y="1094" on="0"/>
        <pt x="647" y="1093" on="1"/>
        <pt x="647" y="1092" on="0"/>
        <pt x="645" y="1091" on="0"/>
        <pt x="644" y="1089" on="1"/>
      </contour>
    </TTGlyph>
    <TTGlyph name="H" xMin="20" yMin="0" xMax="1775" yMax="1410">
      <contour>
        <pt x="1409" y="1274" on="1"/>
        <pt x="1409" y="1370" on="0"/>
        <pt x="1239" y="1370" on="1"/>
        <pt x="1233" y="1370" on="0"/>
        <pt x="1233" y="1378" on="1"/>
        <pt x="1238" y="1402" on="1"/>
        <pt x="1240" y="1410" on="0"/>
        <pt x="1248" y="1410" on="1"/>
        <pt x="1769" y="1410" on="1"/>
        <pt x="1775" y="1410" on="0"/>
        <pt x="1775" y="1402" on="1"/>
        <pt x="1770" y="1378" on="1"/>
        <pt x="1768" y="1370" on="0"/>
        <pt x="1725" y="1370" on="0"/>
        <pt x="1665" y="1361" on="0"/>
        <pt x="1642" y="1346" on="1"/>
        <pt x="1592" y="1315" on="0"/>
        <pt x="1574" y="1227" on="1"/>
        <pt x="1348" y="160" on="1"/>
        <pt x="1344" y="144" on="0"/>
        <pt x="1344" y="96" on="0"/>
        <pt x="1380" y="60" on="0"/>
        <pt x="1408" y="52" on="1"/>
        <pt x="1446" y="40" on="0"/>
        <pt x="1530" y="40" on="1"/>
        <pt x="1536" y="40" on="0"/>
        <pt x="1536" y="32" on="1"/>
        <pt x="1531" y="8" on="1"/>
        <pt x="1528" y="0" on="0"/>
        <pt x="1522" y="0" on="1"/>
        <pt x="986" y="0" on="1"/>
        <pt x="979" y="0" on="0"/>
        <pt x="979" y="8" on="1"/>
        <pt x="984" y="32" on="1"/>
        <pt x="988" y="40" on="0"/>
        <pt x="1029" y="40" on="0"/>
        <pt x="1088" y="49" on="0"/>
        <pt x="1111" y="64" on="1"/>
        <pt x="1160" y="96" on="0"/>
        <pt x="1201" y="289" on="0"/>
        <pt x="1232" y="435" on="0"/>
        <pt x="1253" y="532" on="0"/>
        <pt x="1264" y="587" on="0"/>
        <pt x="1266" y="602" on="1"/>
        <pt x="1270" y="622" on="0"/>
        <pt x="1270" y="627" on="1"/>
        <pt x="1270" y="688" on="0"/>
        <pt x="1218" y="688" on="1"/>
        <pt x="555" y="688" on="1"/>
        <pt x="505" y="688" on="0"/>
        <pt x="486" y="612" on="1"/>
        <pt x="475" y="564" on="0"/>
        <pt x="423" y="316" on="0"/>
        <pt x="403" y="222" on="0"/>
        <pt x="392" y="168" on="0"/>
        <pt x="390" y="154" on="1"/>
        <pt x="386" y="136" on="0"/>
        <pt x="386" y="98" on="0"/>
        <pt x="422" y="61" on="0"/>
        <pt x="450" y="52" on="1"/>
        <pt x="486" y="40" on="0"/>
        <pt x="571" y="40" on="1"/>
        <pt x="577" y="40" on="0"/>
        <pt x="577" y="32" on="1"/>
        <pt x="572" y="8" on="1"/>
        <pt x="569" y="0" on="0"/>
        <pt x="563" y="0" on="1"/>
        <pt x="27" y="0" on="1"/>
        <pt x="20" y="0" on="0"/>
        <pt x="20" y="8" on="1"/>
        <pt x="25" y="32" on="1"/>
        <pt x="29" y="40" on="0"/>
        <pt x="70" y="40" on="0"/>
        <pt x="129" y="49" on="0"/>
        <pt x="152" y="64" on="1"/>
        <pt x="201" y="96" on="0"/>
        <pt x="219" y="183" on="1"/>
        <pt x="446" y="1250" on="1"/>
        <pt x="450" y="1266" on="0"/>
        <pt x="450" y="1277" on="1"/>
        <pt x="450" y="1370" on="0"/>
        <pt x="284" y="1370" on="1"/>
        <pt x="274" y="1370" on="0"/>
        <pt x="274" y="1380" on="1"/>
        <pt x="279" y="1402" on="1"/>
        <pt x="281" y="1410" on="0"/>
        <pt x="289" y="1410" on="1"/>
        <pt x="810" y="1410" on="1"/>
        <pt x="816" y="1410" on="0"/>
        <pt x="816" y="1402" on="1"/>
        <pt x="811" y="1378" on="1"/>
        <pt x="809" y="1370" on="0"/>
        <pt x="766" y="1370" on="0"/>
        <pt x="706" y="1361" on="0"/>
        <pt x="683" y="1346" on="1"/>
        <pt x="634" y="1314" on="0"/>
        <pt x="595" y="1124" on="0"/>
        <pt x="564" y="982" on="0"/>
        <pt x="544" y="887" on="0"/>
        <pt x="533" y="834" on="0"/>
        <pt x="527" y="808" on="0"/>
        <pt x="526" y="804" on="1"/>
        <pt x="523" y="792" on="0"/>
        <pt x="523" y="786" on="1"/>
        <pt x="523" y="764" on="0"/>
        <pt x="554" y="764" on="1"/>
        <pt x="1266" y="764" on="1"/>
        <pt x="1302" y="764" on="0"/>
        <pt x="1347" y="973" on="0"/>
        <pt x="1375" y="1105" on="0"/>
        <pt x="1393" y="1192" on="0"/>
        <pt x="1403" y="1240" on="0"/>
        <pt x="1406" y="1252" on="1"/>
        <pt x="1409" y="1270" on="0"/>
      </contour>
    </TTGlyph>
    <TTGlyph name="H.sc" xMin="63" yMin="0" xMax="1195" yMax="945">
      <contour>
        <pt x="477" y="5" on="1"/>
        <pt x="477" y="0" on="0"/>
        <pt x="473" y="0" on="1"/>
        <pt x="68" y="0" on="1"/>
        <pt x="63" y="0" on="0"/>
        <pt x="63" y="5" on="1"/>
        <pt x="63" y="42" on="1"/>
        <pt x="63" y="48" on="0"/>
        <pt x="89" y="48" on="0"/>
        <pt x="132" y="54" on="0"/>
        <pt x="150" y="64" on="1"/>
        <pt x="189" y="87" on="0"/>
        <pt x="189" y="144" on="1"/>
        <pt x="189" y="816" on="1"/>
        <pt x="189" y="862" on="0"/>
        <pt x="132" y="898" on="0"/>
        <pt x="82" y="900" on="0"/>
        <pt x="82" y="905" on="1"/>
        <pt x="82" y="939" on="1"/>
        <pt x="82" y="945" on="0"/>
        <pt x="86" y="945" on="1"/>
        <pt x="456" y="945" on="1"/>
        <pt x="461" y="945" on="0"/>
        <pt x="461" y="939" on="1"/>
        <pt x="461" y="905" on="1"/>
        <pt x="461" y="902" on="0"/>
        <pt x="456" y="902" on="1"/>
        <pt x="353" y="902" on="0"/>
        <pt x="353" y="807" on="1"/>
        <pt x="353" y="529" on="1"/>
        <pt x="353" y="519" on="0"/>
        <pt x="363" y="519" on="1"/>
        <pt x="891" y="519" on="1"/>
        <pt x="902" y="519" on="0"/>
        <pt x="902" y="529" on="1"/>
        <pt x="902" y="818" on="1"/>
        <pt x="902" y="894" on="0"/>
        <pt x="754" y="900" on="1"/>
        <pt x="748" y="900" on="0"/>
        <pt x="748" y="905" on="1"/>
        <pt x="748" y="939" on="1"/>
        <pt x="748" y="945" on="0"/>
        <pt x="753" y="945" on="1"/>
        <pt x="1171" y="945" on="1"/>
        <pt x="1176" y="945" on="0"/>
        <pt x="1176" y="939" on="1"/>
        <pt x="1176" y="905" on="1"/>
        <pt x="1176" y="902" on="0"/>
        <pt x="1171" y="902" on="1"/>
        <pt x="1065" y="902" on="0"/>
        <pt x="1065" y="807" on="1"/>
        <pt x="1065" y="121" on="1"/>
        <pt x="1065" y="30" on="0"/>
        <pt x="1190" y="27" on="1"/>
        <pt x="1195" y="27" on="0"/>
        <pt x="1195" y="21" on="1"/>
        <pt x="1195" y="5" on="1"/>
        <pt x="1195" y="0" on="0"/>
        <pt x="1190" y="0" on="1"/>
        <pt x="732" y="0" on="1"/>
        <pt x="727" y="0" on="0"/>
        <pt x="727" y="5" on="1"/>
        <pt x="727" y="21" on="1"/>
        <pt x="727" y="27" on="0"/>
        <pt x="752" y="27" on="0"/>
        <pt x="810" y="32" on="0"/>
        <pt x="837" y="41" on="1"/>
        <pt x="902" y="63" on="0"/>
        <pt x="902" y="113" on="1"/>
        <pt x="902" y="434" on="1"/>
        <pt x="902" y="444" on="0"/>
        <pt x="891" y="444" on="1"/>
        <pt x="363" y="444" on="1"/>
        <pt x="353" y="444" on="0"/>
        <pt x="353" y="434" on="1"/>
        <pt x="353" y="128" on="1"/>
        <pt x="353" y="48" on="0"/>
        <pt x="471" y="48" on="1"/>
        <pt x="477" y="48" on="0"/>
        <pt x="477" y="42" on="1"/>
      </contour>
    </TTGlyph>
    <TTGlyph name="Hbar" xMin="20" yMin="0" xMax="1775" yMax="1410">
      <contour>
        <pt x="1409" y="1274" on="1"/>
        <pt x="1409" y="1370" on="0"/>
        <pt x="1239" y="1370" on="1"/>
        <pt x="1233" y="1370" on="0"/>
        <pt x="1233" y="1378" on="1"/>
        <pt x="1238" y="1402" on="1"/>
        <pt x="1240" y="1410" on="0"/>
        <pt x="1248" y="1410" on="1"/>
        <pt x="1769" y="1410" on="1"/>
        <pt x="1775" y="1410" on="0"/>
        <pt x="1775" y="1402" on="1"/>
        <pt x="1770" y="1378" on="1"/>
        <pt x="1768" y="1370" on="0"/>
        <pt x="1725" y="1370" on="0"/>
        <pt x="1665" y="1361" on="0"/>
        <pt x="1642" y="1346" on="1"/>
        <pt x="1592" y="1315" on="0"/>
        <pt x="1574" y="1227" on="1"/>
        <pt x="1555" y="1138" on="1"/>
        <pt x="1720" y="1138" on="1"/>
        <pt x="1741" y="1138" on="0"/>
        <pt x="1741" y="1118" on="1"/>
        <pt x="1735" y="1088" on="1"/>
        <pt x="1730" y="1063" on="0"/>
        <pt x="1714" y="1063" on="1"/>
        <pt x="1539" y="1063" on="1"/>
        <pt x="1348" y="160" on="1"/>
        <pt x="1344" y="144" on="0"/>
        <pt x="1344" y="96" on="0"/>
        <pt x="1380" y="60" on="0"/>
        <pt x="1408" y="52" on="1"/>
        <pt x="1446" y="40" on="0"/>
        <pt x="1530" y="40" on="1"/>
        <pt x="1536" y="40" on="0"/>
        <pt x="1536" y="32" on="1"/>
        <pt x="1531" y="8" on="1"/>
        <pt x="1528" y="0" on="0"/>
        <pt x="1522" y="0" on="1"/>
        <pt x="986" y="0" on="1"/>
        <pt x="979" y="0" on="0"/>
        <pt x="979" y="8" on="1"/>
        <pt x="984" y="32" on="1"/>
        <pt x="988" y="40" on="0"/>
        <pt x="1029" y="40" on="0"/>
        <pt x="1088" y="49" on="0"/>
        <pt x="1111" y="64" on="1"/>
        <pt x="1160" y="96" on="0"/>
        <pt x="1201" y="289" on="0"/>
        <pt x="1232" y="435" on="0"/>
        <pt x="1253" y="532" on="0"/>
        <pt x="1264" y="587" on="0"/>
        <pt x="1266" y="602" on="1"/>
        <pt x="1270" y="622" on="0"/>
        <pt x="1270" y="627" on="1"/>
        <pt x="1270" y="688" on="0"/>
        <pt x="1218" y="688" on="1"/>
        <pt x="555" y="688" on="1"/>
        <pt x="505" y="688" on="0"/>
        <pt x="486" y="612" on="1"/>
        <pt x="475" y="564" on="0"/>
        <pt x="423" y="316" on="0"/>
        <pt x="403" y="222" on="0"/>
        <pt x="392" y="168" on="0"/>
        <pt x="390" y="154" on="1"/>
        <pt x="386" y="136" on="0"/>
        <pt x="386" y="98" on="0"/>
        <pt x="422" y="61" on="0"/>
        <pt x="450" y="52" on="1"/>
        <pt x="486" y="40" on="0"/>
        <pt x="571" y="40" on="1"/>
        <pt x="577" y="40" on="0"/>
        <pt x="577" y="32" on="1"/>
        <pt x="572" y="8" on="1"/>
        <pt x="569" y="0" on="0"/>
        <pt x="563" y="0" on="1"/>
        <pt x="27" y="0" on="1"/>
        <pt x="20" y="0" on="0"/>
        <pt x="20" y="8" on="1"/>
        <pt x="25" y="32" on="1"/>
        <pt x="29" y="40" on="0"/>
        <pt x="70" y="40" on="0"/>
        <pt x="129" y="49" on="0"/>
        <pt x="152" y="64" on="1"/>
        <pt x="201" y="96" on="0"/>
        <pt x="219" y="183" on="1"/>
        <pt x="406" y="1063" on="1"/>
        <pt x="211" y="1063" on="1"/>
        <pt x="190" y="1063" on="0"/>
        <pt x="190" y="1083" on="1"/>
        <pt x="195" y="1113" on="1"/>
        <pt x="200" y="1138" on="0"/>
        <pt x="217" y="1138" on="1"/>
        <pt x="422" y="1138" on="1"/>
        <pt x="446" y="1250" on="1"/>
        <pt x="450" y="1266" on="0"/>
        <pt x="450" y="1277" on="1"/>
        <pt x="450" y="1370" on="0"/>
        <pt x="284" y="1370" on="1"/>
        <pt x="274" y="1370" on="0"/>
        <pt x="274" y="1380" on="1"/>
        <pt x="279" y="1402" on="1"/>
        <pt x="281" y="1410" on="0"/>
        <pt x="289" y="1410" on="1"/>
        <pt x="810" y="1410" on="1"/>
        <pt x="816" y="1410" on="0"/>
        <pt x="816" y="1402" on="1"/>
        <pt x="811" y="1378" on="1"/>
        <pt x="809" y="1370" on="0"/>
        <pt x="766" y="1370" on="0"/>
        <pt x="706" y="1361" on="0"/>
        <pt x="683" y="1346" on="1"/>
        <pt x="634" y="1314" on="0"/>
        <pt x="616" y="1227" on="1"/>
        <pt x="597" y="1138" on="1"/>
        <pt x="1382" y="1138" on="1"/>
        <pt x="1409" y="1262" on="0"/>
      </contour>
      <contour>
        <pt x="523" y="786" on="1"/>
        <pt x="523" y="764" on="0"/>
        <pt x="554" y="764" on="1"/>
        <pt x="1266" y="764" on="1"/>
        <pt x="1302" y="764" on="0"/>
        <pt x="1326" y="878" on="1"/>
        <pt x="1366" y="1063" on="1"/>
        <pt x="581" y="1063" on="1"/>
      </contour>
    </TTGlyph>
    <TTGlyph name="Hcircumflex" xMin="20" yMin="0" xMax="1775" yMax="1948">
      <component glyphName="H" x="0" y="0" flags="0x1204"/>
      <component glyphName="circumflex" x="638" y="497" flags="0x1004"/>
    </TTGlyph>
    <TTGlyph name="Hebrew-ph" xMin="125" yMin="0" xMax="1799" yMax="1645">
      <contour>
        <pt x="125" y="1245" on="1"/>
        <pt x="125" y="1411" on="0"/>
        <pt x="359" y="1645" on="0"/>
        <pt x="525" y="1645" on="1"/>
        <pt x="1399" y="1645" on="1"/>
        <pt x="1565" y="1645" on="0"/>
        <pt x="1799" y="1411" on="0"/>
        <pt x="1799" y="1245" on="1"/>
        <pt x="1799" y="400" on="1"/>
        <pt x="1799" y="233" on="0"/>
        <pt x="1682" y="117" on="1"/>
        <pt x="1563" y="0" on="0"/>
        <pt x="1398" y="0" on="1"/>
        <pt x="526" y="0" on="1"/>
        <pt x="361" y="0" on="0"/>
        <pt x="242" y="117" on="1"/>
        <pt x="125" y="233" on="0"/>
        <pt x="125" y="400" on="1"/>
      </contour>
      <contour>
        <pt x="526" y="1495" on="1"/>
        <pt x="422" y="1495" on="0"/>
        <pt x="349" y="1422" on="1"/>
        <pt x="275" y="1348" on="0"/>
        <pt x="275" y="1245" on="1"/>
        <pt x="275" y="400" on="1"/>
        <pt x="275" y="296" on="0"/>
        <pt x="350" y="223" on="1"/>
        <pt x="424" y="150" on="0"/>
        <pt x="526" y="150" on="1"/>
        <pt x="1398" y="150" on="1"/>
        <pt x="1500" y="150" on="0"/>
        <pt x="1574" y="223" on="1"/>
        <pt x="1649" y="296" on="0"/>
        <pt x="1649" y="400" on="1"/>
        <pt x="1649" y="1245" on="1"/>
        <pt x="1649" y="1348" on="0"/>
        <pt x="1575" y="1422" on="1"/>
        <pt x="1502" y="1495" on="0"/>
        <pt x="1398" y="1495" on="1"/>
      </contour>
      <contour>
        <pt x="1167" y="1237" on="1"/>
        <pt x="1164" y="1213" on="0"/>
        <pt x="1164" y="1179" on="0"/>
        <pt x="1208" y="1132" on="0"/>
        <pt x="1240" y="1101" on="1"/>
        <pt x="1324" y="1032" on="0"/>
        <pt x="1324" y="973" on="1"/>
        <pt x="1324" y="929" on="0"/>
        <pt x="1277" y="898" on="1"/>
        <pt x="1240" y="872" on="0"/>
        <pt x="1190" y="865" on="1"/>
        <pt x="1186" y="897" on="0"/>
        <pt x="1169" y="917" on="0"/>
        <pt x="1150" y="934" on="0"/>
        <pt x="1136" y="949" on="1"/>
        <pt x="1064" y="837" on="1"/>
        <pt x="1253" y="648" on="1"/>
        <pt x="1313" y="588" on="0"/>
        <pt x="1313" y="530" on="1"/>
        <pt x="1313" y="472" on="0"/>
        <pt x="1261" y="434" on="1"/>
        <pt x="1210" y="397" on="0"/>
        <pt x="1141" y="397" on="1"/>
        <pt x="1143" y="406" on="0"/>
        <pt x="1154" y="433" on="0"/>
        <pt x="1154" y="446" on="1"/>
        <pt x="1154" y="489" on="0"/>
        <pt x="1101" y="544" on="1"/>
        <pt x="772" y="874" on="1"/>
        <pt x="719" y="821" on="0"/>
        <pt x="719" y="760" on="0"/>
        <pt x="744" y="719" on="0"/>
        <pt x="781" y="680" on="0"/>
        <pt x="825" y="640" on="0"/>
        <pt x="844" y="620" on="1"/>
        <pt x="887" y="573" on="0"/>
        <pt x="887" y="537" on="1"/>
        <pt x="887" y="479" on="0"/>
        <pt x="802" y="419" on="1"/>
        <pt x="592" y="419" on="1"/>
        <pt x="592" y="442" on="1"/>
        <pt x="707" y="469" on="0"/>
        <pt x="707" y="503" on="1"/>
        <pt x="697" y="529" on="0"/>
        <pt x="621" y="617" on="0"/>
        <pt x="592" y="665" on="0"/>
        <pt x="592" y="728" on="0"/>
        <pt x="623" y="785" on="0"/>
        <pt x="670" y="834" on="0"/>
        <pt x="723" y="878" on="0"/>
        <pt x="746" y="900" on="1"/>
        <pt x="655" y="992" on="1"/>
        <pt x="594" y="1053" on="0"/>
        <pt x="594" y="1113" on="1"/>
        <pt x="594" y="1161" on="0"/>
        <pt x="644" y="1200" on="1"/>
        <pt x="692" y="1237" on="0"/>
        <pt x="739" y="1237" on="1"/>
        <pt x="735" y="1227" on="0"/>
        <pt x="735" y="1212" on="1"/>
        <pt x="735" y="1167" on="0"/>
        <pt x="805" y="1098" on="1"/>
        <pt x="1015" y="888" on="1"/>
        <pt x="1090" y="993" on="1"/>
        <pt x="1019" y="1059" on="0"/>
        <pt x="1019" y="1113" on="1"/>
        <pt x="1019" y="1160" on="0"/>
        <pt x="1072" y="1200" on="1"/>
        <pt x="1120" y="1237" on="0"/>
      </contour>
    </TTGlyph>
    <TTGlyph name="Hungarumlaut" xMin="225" yMin="1562" xMax="859" yMax="1950">
      <component glyphName="hungarumlaut" x="0" y="498" flags="0x1004"/>
    </TTGlyph>
    <TTGlyph name="Hungarumlaut.sc" xMin="296" yMin="1221" xMax="753" yMax="1480">
      <contour>
        <pt x="299" y="1242" on="1"/>
        <pt x="296" y="1245" on="0"/>
        <pt x="296" y="1248" on="0"/>
        <pt x="299" y="1251" on="1"/>
        <pt x="441" y="1448" on="1"/>
        <pt x="465" y="1480" on="0"/>
        <pt x="513" y="1480" on="0"/>
        <pt x="540" y="1451" on="0"/>
        <pt x="540" y="1431" on="1"/>
        <pt x="540" y="1397" on="0"/>
        <pt x="503" y="1368" on="1"/>
        <pt x="323" y="1223" on="1"/>
        <pt x="321" y="1221" on="0"/>
        <pt x="318" y="1221" on="1"/>
        <pt x="315" y="1221" on="0"/>
        <pt x="314" y="1223" on="1"/>
      </contour>
      <contour>
        <pt x="511" y="1242" on="1"/>
        <pt x="510" y="1244" on="0"/>
        <pt x="508" y="1245" on="0"/>
        <pt x="508" y="1246" on="1"/>
        <pt x="508" y="1247" on="0"/>
        <pt x="510" y="1249" on="0"/>
        <pt x="511" y="1251" on="1"/>
        <pt x="654" y="1448" on="1"/>
        <pt x="678" y="1480" on="0"/>
        <pt x="725" y="1480" on="0"/>
        <pt x="753" y="1451" on="0"/>
        <pt x="753" y="1431" on="1"/>
        <pt x="753" y="1398" on="0"/>
        <pt x="715" y="1368" on="1"/>
        <pt x="535" y="1223" on="1"/>
        <pt x="533" y="1221" on="0"/>
        <pt x="530" y="1221" on="1"/>
        <pt x="527" y="1221" on="0"/>
        <pt x="526" y="1223" on="1"/>
      </contour>
    </TTGlyph>
    <TTGlyph name="I" xMin="20" yMin="0" xMax="816" yMax="1410">
      <contour>
        <pt x="450" y="1275" on="1"/>
        <pt x="450" y="1370" on="0"/>
        <pt x="280" y="1370" on="1"/>
        <pt x="274" y="1370" on="0"/>
        <pt x="274" y="1378" on="1"/>
        <pt x="279" y="1402" on="1"/>
        <pt x="281" y="1410" on="0"/>
        <pt x="289" y="1410" on="1"/>
        <pt x="810" y="1410" on="1"/>
        <pt x="816" y="1410" on="0"/>
        <pt x="816" y="1402" on="1"/>
        <pt x="811" y="1378" on="1"/>
        <pt x="809" y="1370" on="0"/>
        <pt x="766" y="1370" on="0"/>
        <pt x="707" y="1361" on="0"/>
        <pt x="684" y="1346" on="1"/>
        <pt x="634" y="1315" on="0"/>
        <pt x="616" y="1227" on="1"/>
        <pt x="389" y="160" on="1"/>
        <pt x="385" y="144" on="0"/>
        <pt x="385" y="96" on="0"/>
        <pt x="421" y="60" on="0"/>
        <pt x="449" y="52" on="1"/>
        <pt x="487" y="40" on="0"/>
        <pt x="571" y="40" on="1"/>
        <pt x="577" y="40" on="0"/>
        <pt x="577" y="32" on="1"/>
        <pt x="572" y="8" on="1"/>
        <pt x="569" y="0" on="0"/>
        <pt x="563" y="0" on="1"/>
        <pt x="27" y="0" on="1"/>
        <pt x="20" y="0" on="0"/>
        <pt x="20" y="8" on="1"/>
        <pt x="25" y="32" on="1"/>
        <pt x="29" y="40" on="0"/>
        <pt x="70" y="40" on="0"/>
        <pt x="129" y="49" on="0"/>
        <pt x="152" y="64" on="1"/>
        <pt x="202" y="95" on="0"/>
        <pt x="220" y="183" on="1"/>
        <pt x="263" y="385" on="0"/>
        <pt x="328" y="691" on="0"/>
        <pt x="377" y="918" on="0"/>
        <pt x="410" y="1073" on="0"/>
        <pt x="432" y="1175" on="0"/>
        <pt x="444" y="1231" on="0"/>
        <pt x="446" y="1246" on="1"/>
        <pt x="450" y="1267" on="0"/>
      </contour>
    </TTGlyph>
    <TTGlyph name="I.sc" xMin="85" yMin="0" xMax="467" yMax="945">
      <contour>
        <pt x="461" y="945" on="1"/>
        <pt x="467" y="945" on="0"/>
        <pt x="467" y="939" on="1"/>
        <pt x="467" y="902" on="1"/>
        <pt x="467" y="897" on="0"/>
        <pt x="437" y="897" on="0"/>
        <pt x="399" y="891" on="0"/>
        <pt x="386" y="881" on="1"/>
        <pt x="358" y="861" on="0"/>
        <pt x="358" y="801" on="1"/>
        <pt x="358" y="128" on="1"/>
        <pt x="358" y="83" on="0"/>
        <pt x="412" y="48" on="0"/>
        <pt x="460" y="48" on="1"/>
        <pt x="465" y="48" on="0"/>
        <pt x="465" y="42" on="1"/>
        <pt x="465" y="5" on="1"/>
        <pt x="465" y="0" on="0"/>
        <pt x="460" y="0" on="1"/>
        <pt x="91" y="0" on="1"/>
        <pt x="85" y="0" on="0"/>
        <pt x="85" y="5" on="1"/>
        <pt x="85" y="42" on="1"/>
        <pt x="85" y="48" on="0"/>
        <pt x="114" y="48" on="0"/>
        <pt x="152" y="54" on="0"/>
        <pt x="166" y="64" on="1"/>
        <pt x="194" y="85" on="0"/>
        <pt x="194" y="144" on="1"/>
        <pt x="194" y="816" on="1"/>
        <pt x="194" y="862" on="0"/>
        <pt x="140" y="897" on="0"/>
        <pt x="87" y="897" on="0"/>
        <pt x="87" y="902" on="1"/>
        <pt x="87" y="939" on="1"/>
        <pt x="87" y="945" on="0"/>
        <pt x="92" y="945" on="1"/>
      </contour>
    </TTGlyph>
    <TTGlyph name="IJ" xMin="20" yMin="-672" xMax="1485" yMax="1410">
      <component glyphName="I" x="0" y="0" flags="0x1004"/>
      <component glyphName="J" x="658" y="0" flags="0x1004"/>
    </TTGlyph>
    <TTGlyph name="Iacute" xMin="29" yMin="0" xMax="922" yMax="1950">
      <component glyphName="I" x="9" y="0" flags="0x1004"/>
      <component glyphName="acute" x="390" y="498" flags="0x1004"/>
    </TTGlyph>
    <TTGlyph name="Iacute.sc" xMin="85" yMin="0" xMax="508" yMax="1327">
      <component glyphName="I.sc" x="0" y="0" flags="0x1204"/>
      <component glyphName="Acute.sc" x="-159" y="0" flags="0x1004"/>
    </TTGlyph>
    <TTGlyph name="Ibreve" xMin="20" yMin="0" xMax="932" yMax="1951">
      <component glyphName="I" x="0" y="0" flags="0x1204"/>
      <component glyphName="breve" x="91" y="543" flags="0x1004"/>
    </TTGlyph>
    <TTGlyph name="Icircumflex" xMin="29" yMin="0" xMax="825" yMax="1948">
      <component glyphName="I" x="9" y="0" flags="0x1004"/>
      <component glyphName="circumflex" x="140" y="497" flags="0x1004"/>
    </TTGlyph>
    <TTGlyph name="Icircumflex.sc" xMin="85" yMin="0" xMax="467" yMax="1327">
      <component glyphName="I.sc" x="0" y="0" flags="0x1204"/>
      <component glyphName="Circumflex.sc" x="-244" y="0" flags="0x1004"/>
    </TTGlyph>
    <TTGlyph name="Idieresis" xMin="29" yMin="0" xMax="923" yMax="1930">
      <component glyphName="I" x="9" y="0" flags="0x1004"/>
      <component glyphName="dieresis" x="105" y="571" flags="0x1004"/>
    </TTGlyph>
    <TTGlyph name="Idieresis.sc" xMin="66" yMin="0" xMax="490" yMax="1277">
      <component glyphName="I.sc" x="0" y="0" flags="0x1204"/>
      <component glyphName="Dieresis.sc" x="-247" y="0" flags="0x1004"/>
    </TTGlyph>
    <TTGlyph name="Idotaccent" xMin="20" yMin="0" xMax="816" yMax="1917">
      <component glyphName="I" x="0" y="0" flags="0x1204"/>
      <component glyphName="dotaccent" x="71" y="571" flags="0x1004"/>
    </TTGlyph>
    <TTGlyph name="Igrave" xMin="20" yMin="0" xMax="816" yMax="1950">
      <component glyphName="I" x="0" y="0" flags="0x1204"/>
      <component glyphName="grave" x="211" y="498" flags="0x1004"/>
    </TTGlyph>
    <TTGlyph name="Igrave.sc" xMin="56" yMin="0" xMax="467" yMax="1327">
      <component glyphName="I.sc" x="0" y="0" flags="0x1204"/>
      <component glyphName="Gravesmall" x="-346" y="0" flags="0x1004"/>
    </TTGlyph>
    <TTGlyph name="Imacron" xMin="20" yMin="0" xMax="940" yMax="1849">
      <component glyphName="I" x="0" y="0" flags="0x1204"/>
      <component glyphName="macron" x="41" y="542" flags="0x1004"/>
    </TTGlyph>
    <TTGlyph name="Imacron.sc" xMin="66" yMin="0" xMax="498" yMax="1240">
      <component glyphName="I.sc" x="0" y="0" flags="0x1204"/>
      <component glyphName="Macron.sc" x="-243" y="0" flags="0x1004"/>
    </TTGlyph>
    <TTGlyph name="Iogonek" xMin="20" yMin="-546" xMax="816" yMax="1410">
      <component glyphName="I" x="0" y="0" flags="0x1204"/>
      <component glyphName="ogonek" x="-208" y="0" flags="0x1004"/>
    </TTGlyph>
    <TTGlyph name="Iota" xMin="20" yMin="0" xMax="816" yMax="1410">
      <component glyphName="I" x="0" y="0" flags="0x1204"/>
    </TTGlyph>
    <TTGlyph name="Iotadieresis" xMin="20" yMin="0" xMax="923" yMax="1929">
      <component glyphName="I" x="0" y="0" flags="0x1200"/>
      <component glyphName="dieresis" x="105" y="570" flags="0x1000"/>
    </TTGlyph>
    <TTGlyph name="Iotatonos" xMin="-49" yMin="0" xMax="1053" yMax="1453">
      <component glyphName="I" x="237" y="0" flags="0x1004"/>
      <component glyphName="tonos" x="-291" y="-69" flags="0x1004"/>
    </TTGlyph>
    <TTGlyph name="Itilde" xMin="20" yMin="0" xMax="904" yMax="1928">
      <component glyphName="I" x="0" y="0" flags="0x1204"/>
      <component glyphName="tilde" x="91" y="560" flags="0x1004"/>
    </TTGlyph>
    <TTGlyph name="J" xMin="-425" yMin="-672" xMax="827" yMax="1410">
      <contour>
        <pt x="-425" y="-608" on="1"/>
        <pt x="-425" y="-539" on="0"/>
        <pt x="-356" y="-521" on="1"/>
        <pt x="-337" y="-516" on="0"/>
        <pt x="-290" y="-516" on="0"/>
        <pt x="-227" y="-531" on="0"/>
        <pt x="-196" y="-540" on="1"/>
        <pt x="-114" y="-565" on="0"/>
        <pt x="-45" y="-565" on="0"/>
        <pt x="9" y="-546" on="0"/>
        <pt x="56" y="-485" on="0"/>
        <pt x="101" y="-374" on="0"/>
        <pt x="151" y="-190" on="0"/>
        <pt x="211" y="78" on="0"/>
        <pt x="290" y="450" on="0"/>
        <pt x="391" y="938" on="0"/>
        <pt x="462" y="1275" on="0"/>
        <pt x="462" y="1316" on="0"/>
        <pt x="438" y="1348" on="0"/>
        <pt x="416" y="1356" on="1"/>
        <pt x="381" y="1370" on="0"/>
        <pt x="291" y="1370" on="1"/>
        <pt x="285" y="1370" on="0"/>
        <pt x="285" y="1378" on="1"/>
        <pt x="290" y="1402" on="1"/>
        <pt x="292" y="1410" on="0"/>
        <pt x="300" y="1410" on="1"/>
        <pt x="821" y="1410" on="1"/>
        <pt x="827" y="1410" on="0"/>
        <pt x="827" y="1402" on="1"/>
        <pt x="822" y="1378" on="1"/>
        <pt x="820" y="1370" on="0"/>
        <pt x="777" y="1370" on="0"/>
        <pt x="718" y="1361" on="0"/>
        <pt x="694" y="1346" on="1"/>
        <pt x="645" y="1315" on="0"/>
        <pt x="627" y="1227" on="1"/>
        <pt x="565" y="934" on="0"/>
        <pt x="477" y="514" on="0"/>
        <pt x="415" y="223" on="0"/>
        <pt x="376" y="39" on="0"/>
        <pt x="352" y="-74" on="0"/>
        <pt x="337" y="-138" on="0"/>
        <pt x="315" y="-227" on="0"/>
        <pt x="268" y="-351" on="0"/>
        <pt x="198" y="-464" on="0"/>
        <pt x="104" y="-561" on="0"/>
        <pt x="42" y="-596" on="1"/>
        <pt x="-91" y="-672" on="0"/>
        <pt x="-425" y="-672" on="0"/>
      </contour>
    </TTGlyph>
    <TTGlyph name="J.sc" xMin="-145" yMin="-428" xMax="461" yMax="945">
      <contour>
        <pt x="456" y="945" on="1"/>
        <pt x="461" y="945" on="0"/>
        <pt x="461" y="939" on="1"/>
        <pt x="461" y="902" on="1"/>
        <pt x="461" y="897" on="0"/>
        <pt x="435" y="897" on="0"/>
        <pt x="397" y="891" on="0"/>
        <pt x="383" y="881" on="1"/>
        <pt x="352" y="859" on="0"/>
        <pt x="352" y="801" on="1"/>
        <pt x="352" y="-6" on="1"/>
        <pt x="352" y="-153" on="0"/>
        <pt x="250" y="-284" on="1"/>
        <pt x="139" y="-428" on="0"/>
        <pt x="-10" y="-428" on="1"/>
        <pt x="-86" y="-428" on="0"/>
        <pt x="-131" y="-386" on="1"/>
        <pt x="-145" y="-373" on="0"/>
        <pt x="-145" y="-344" on="0"/>
        <pt x="-132" y="-322" on="0"/>
        <pt x="-122" y="-314" on="1"/>
        <pt x="-101" y="-297" on="0"/>
        <pt x="-46" y="-297" on="0"/>
        <pt x="-9" y="-317" on="0"/>
        <pt x="18" y="-340" on="0"/>
        <pt x="44" y="-360" on="0"/>
        <pt x="94" y="-360" on="0"/>
        <pt x="137" y="-335" on="0"/>
        <pt x="164" y="-291" on="0"/>
        <pt x="179" y="-233" on="0"/>
        <pt x="183" y="-200" on="1"/>
        <pt x="188" y="-160" on="0"/>
        <pt x="188" y="-67" on="1"/>
        <pt x="188" y="816" on="1"/>
        <pt x="188" y="885" on="0"/>
        <pt x="112" y="894" on="1"/>
        <pt x="88" y="897" on="0"/>
        <pt x="53" y="897" on="0"/>
        <pt x="53" y="902" on="1"/>
        <pt x="53" y="939" on="1"/>
        <pt x="53" y="945" on="0"/>
        <pt x="58" y="945" on="1"/>
      </contour>
    </TTGlyph>
    <TTGlyph name="Jcircumflex" xMin="-425" yMin="-672" xMax="827" yMax="1948">
      <component glyphName="J" x="0" y="0" flags="0x1204"/>
      <component glyphName="circumflex" x="117" y="497" flags="0x1004"/>
    </TTGlyph>
    <TTGlyph name="K" xMin="20" yMin="0" xMax="1656" yMax="1410">
      <contour>
        <pt x="1496" y="40" on="1"/>
        <pt x="1505" y="40" on="0"/>
        <pt x="1505" y="28" on="1"/>
        <pt x="1505" y="10" on="1"/>
        <pt x="1505" y="0" on="0"/>
        <pt x="1492" y="0" on="1"/>
        <pt x="1149" y="0" on="1"/>
        <pt x="1136" y="16" on="0"/>
        <pt x="1066" y="100" on="0"/>
        <pt x="972" y="214" on="0"/>
        <pt x="861" y="346" on="0"/>
        <pt x="752" y="477" on="0"/>
        <pt x="653" y="596" on="0"/>
        <pt x="612" y="645" on="0"/>
        <pt x="597" y="663" on="0"/>
        <pt x="589" y="671" on="1"/>
        <pt x="570" y="690" on="0"/>
        <pt x="541" y="690" on="0"/>
        <pt x="497" y="655" on="0"/>
        <pt x="487" y="617" on="1"/>
        <pt x="389" y="160" on="1"/>
        <pt x="385" y="144" on="0"/>
        <pt x="385" y="96" on="0"/>
        <pt x="421" y="60" on="0"/>
        <pt x="449" y="52" on="1"/>
        <pt x="487" y="40" on="0"/>
        <pt x="571" y="40" on="1"/>
        <pt x="577" y="40" on="0"/>
        <pt x="577" y="32" on="1"/>
        <pt x="572" y="8" on="1"/>
        <pt x="569" y="0" on="0"/>
        <pt x="563" y="0" on="1"/>
        <pt x="27" y="0" on="1"/>
        <pt x="20" y="0" on="0"/>
        <pt x="20" y="8" on="1"/>
        <pt x="25" y="32" on="1"/>
        <pt x="29" y="40" on="0"/>
        <pt x="70" y="40" on="0"/>
        <pt x="129" y="49" on="0"/>
        <pt x="152" y="64" on="1"/>
        <pt x="201" y="96" on="0"/>
        <pt x="219" y="183" on="1"/>
        <pt x="451" y="1271" on="1"/>
        <pt x="453" y="1281" on="0"/>
        <pt x="453" y="1311" on="0"/>
        <pt x="414" y="1344" on="0"/>
        <pt x="386" y="1354" on="1"/>
        <pt x="339" y="1370" on="0"/>
        <pt x="280" y="1370" on="1"/>
        <pt x="274" y="1370" on="0"/>
        <pt x="274" y="1378" on="1"/>
        <pt x="279" y="1402" on="1"/>
        <pt x="281" y="1410" on="0"/>
        <pt x="289" y="1410" on="1"/>
        <pt x="810" y="1410" on="1"/>
        <pt x="816" y="1410" on="0"/>
        <pt x="816" y="1402" on="1"/>
        <pt x="811" y="1378" on="1"/>
        <pt x="809" y="1370" on="0"/>
        <pt x="766" y="1370" on="0"/>
        <pt x="707" y="1361" on="0"/>
        <pt x="684" y="1346" on="1"/>
        <pt x="634" y="1315" on="0"/>
        <pt x="592" y="1116" on="0"/>
        <pt x="559" y="962" on="0"/>
        <pt x="538" y="863" on="0"/>
        <pt x="532" y="836" on="1"/>
        <pt x="524" y="796" on="1"/>
        <pt x="519" y="769" on="0"/>
        <pt x="533" y="769" on="0"/>
        <pt x="573" y="796" on="0"/>
        <pt x="623" y="830" on="0"/>
        <pt x="668" y="862" on="0"/>
        <pt x="705" y="888" on="0"/>
        <pt x="736" y="912" on="0"/>
        <pt x="811" y="966" on="0"/>
        <pt x="903" y="1032" on="0"/>
        <pt x="1004" y="1104" on="0"/>
        <pt x="1095" y="1169" on="0"/>
        <pt x="1169" y="1221" on="0"/>
        <pt x="1203" y="1245" on="0"/>
        <pt x="1223" y="1261" on="0"/>
        <pt x="1229" y="1270" on="1"/>
        <pt x="1240" y="1286" on="0"/>
        <pt x="1240" y="1351" on="0"/>
        <pt x="1214" y="1370" on="0"/>
        <pt x="1183" y="1370" on="1"/>
        <pt x="1148" y="1370" on="1"/>
        <pt x="1130" y="1370" on="0"/>
        <pt x="1130" y="1383" on="1"/>
        <pt x="1130" y="1399" on="1"/>
        <pt x="1130" y="1410" on="0"/>
        <pt x="1147" y="1410" on="1"/>
        <pt x="1644" y="1410" on="1"/>
        <pt x="1656" y="1410" on="0"/>
        <pt x="1656" y="1399" on="1"/>
        <pt x="1656" y="1382" on="1"/>
        <pt x="1656" y="1370" on="0"/>
        <pt x="1603" y="1370" on="0"/>
        <pt x="1558" y="1361" on="0"/>
        <pt x="1518" y="1346" on="0"/>
        <pt x="1474" y="1326" on="0"/>
        <pt x="1423" y="1306" on="0"/>
        <pt x="1370" y="1278" on="0"/>
        <pt x="1332" y="1254" on="1"/>
        <pt x="1266" y="1211" on="0"/>
        <pt x="1108" y="1094" on="0"/>
        <pt x="1056" y="1056" on="0"/>
        <pt x="984" y="1005" on="0"/>
        <pt x="901" y="945" on="0"/>
        <pt x="821" y="888" on="0"/>
        <pt x="753" y="840" on="0"/>
        <pt x="714" y="811" on="0"/>
        <pt x="714" y="806" on="1"/>
        <pt x="714" y="795" on="0"/>
        <pt x="724" y="782" on="1"/>
        <pt x="736" y="767" on="0"/>
        <pt x="810" y="679" on="0"/>
        <pt x="919" y="547" on="0"/>
        <pt x="977" y="478" on="1"/>
        <pt x="1143" y="279" on="0"/>
        <pt x="1213" y="198" on="0"/>
        <pt x="1265" y="135" on="0"/>
        <pt x="1296" y="107" on="1"/>
        <pt x="1368" y="40" on="0"/>
        <pt x="1430" y="40" on="1"/>
      </contour>
    </TTGlyph>
    <TTGlyph name="K.sc" xMin="49" yMin="0" xMax="1093" yMax="945">
      <contour>
        <pt x="49" y="39" on="1"/>
        <pt x="49" y="44" on="0"/>
        <pt x="77" y="45" on="0"/>
        <pt x="124" y="55" on="0"/>
        <pt x="144" y="64" on="1"/>
        <pt x="188" y="86" on="0"/>
        <pt x="188" y="128" on="1"/>
        <pt x="188" y="816" on="1"/>
        <pt x="188" y="894" on="0"/>
        <pt x="55" y="900" on="1"/>
        <pt x="49" y="900" on="0"/>
        <pt x="49" y="905" on="1"/>
        <pt x="49" y="939" on="1"/>
        <pt x="49" y="945" on="0"/>
        <pt x="54" y="945" on="1"/>
        <pt x="480" y="945" on="1"/>
        <pt x="485" y="945" on="0"/>
        <pt x="485" y="939" on="1"/>
        <pt x="485" y="905" on="1"/>
        <pt x="485" y="902" on="0"/>
        <pt x="460" y="902" on="0"/>
        <pt x="416" y="895" on="0"/>
        <pt x="396" y="886" on="1"/>
        <pt x="352" y="864" on="0"/>
        <pt x="352" y="815" on="1"/>
        <pt x="352" y="551" on="1"/>
        <pt x="352" y="492" on="0"/>
        <pt x="360" y="492" on="1"/>
        <pt x="372" y="492" on="0"/>
        <pt x="378" y="495" on="1"/>
        <pt x="524" y="562" on="0"/>
        <pt x="658" y="790" on="1"/>
        <pt x="681" y="829" on="0"/>
        <pt x="681" y="864" on="0"/>
        <pt x="663" y="887" on="0"/>
        <pt x="650" y="892" on="1"/>
        <pt x="632" y="900" on="0"/>
        <pt x="592" y="900" on="1"/>
        <pt x="586" y="900" on="1"/>
        <pt x="581" y="900" on="0"/>
        <pt x="581" y="905" on="1"/>
        <pt x="581" y="939" on="1"/>
        <pt x="581" y="945" on="0"/>
        <pt x="586" y="945" on="1"/>
        <pt x="994" y="945" on="1"/>
        <pt x="1000" y="945" on="0"/>
        <pt x="1000" y="939" on="1"/>
        <pt x="1000" y="905" on="1"/>
        <pt x="1000" y="898" on="0"/>
        <pt x="950" y="896" on="0"/>
        <pt x="883" y="890" on="0"/>
        <pt x="854" y="880" on="1"/>
        <pt x="797" y="860" on="0"/>
        <pt x="758" y="795" on="1"/>
        <pt x="654" y="616" on="0"/>
        <pt x="559" y="528" on="1"/>
        <pt x="545" y="515" on="0"/>
        <pt x="543" y="504" on="1"/>
        <pt x="548" y="494" on="0"/>
        <pt x="593" y="457" on="0"/>
        <pt x="632" y="418" on="1"/>
        <pt x="743" y="305" on="0"/>
        <pt x="857" y="141" on="1"/>
        <pt x="899" y="78" on="0"/>
        <pt x="1006" y="57" on="1"/>
        <pt x="1029" y="52" on="0"/>
        <pt x="1056" y="46" on="0"/>
        <pt x="1072" y="43" on="0"/>
        <pt x="1077" y="43" on="1"/>
        <pt x="1088" y="43" on="1"/>
        <pt x="1093" y="43" on="0"/>
        <pt x="1093" y="38" on="1"/>
        <pt x="1093" y="5" on="1"/>
        <pt x="1093" y="0" on="0"/>
        <pt x="1088" y="0" on="1"/>
        <pt x="629" y="0" on="1"/>
        <pt x="624" y="0" on="0"/>
        <pt x="624" y="5" on="1"/>
        <pt x="624" y="39" on="1"/>
        <pt x="624" y="44" on="0"/>
        <pt x="638" y="45" on="0"/>
        <pt x="664" y="48" on="0"/>
        <pt x="676" y="52" on="1"/>
        <pt x="706" y="62" on="0"/>
        <pt x="705" y="102" on="0"/>
        <pt x="684" y="142" on="0"/>
        <pt x="668" y="166" on="1"/>
        <pt x="635" y="214" on="0"/>
        <pt x="515" y="345" on="0"/>
        <pt x="486" y="370" on="1"/>
        <pt x="420" y="428" on="0"/>
        <pt x="371" y="428" on="1"/>
        <pt x="358" y="428" on="1"/>
        <pt x="352" y="428" on="0"/>
        <pt x="352" y="419" on="1"/>
        <pt x="352" y="136" on="1"/>
        <pt x="352" y="43" on="0"/>
        <pt x="480" y="43" on="1"/>
        <pt x="485" y="43" on="0"/>
        <pt x="485" y="38" on="1"/>
        <pt x="485" y="5" on="1"/>
        <pt x="485" y="0" on="0"/>
        <pt x="480" y="0" on="1"/>
        <pt x="54" y="0" on="1"/>
        <pt x="49" y="0" on="0"/>
        <pt x="49" y="5" on="1"/>
      </contour>
    </TTGlyph>
    <TTGlyph name="Kappa" xMin="20" yMin="0" xMax="1656" yMax="1410">
      <component glyphName="K" x="0" y="0" flags="0x1204"/>
    </TTGlyph>
    <TTGlyph name="Kcommaaccent" xMin="20" yMin="-640" xMax="1656" yMax="1410">
      <component glyphName="K" x="0" y="0" flags="0x1204"/>
      <component glyphName="commaaccent" x="522" y="0" flags="0x1004"/>
    </TTGlyph>
    <TTGlyph name="L" xMin="20" yMin="0" xMax="1276" yMax="1410">
      <contour>
        <pt x="20" y="12" on="1"/>
        <pt x="20" y="40" on="0"/>
        <pt x="77" y="40" on="0"/>
        <pt x="133" y="49" on="0"/>
        <pt x="155" y="64" on="1"/>
        <pt x="200" y="94" on="0"/>
        <pt x="218" y="183" on="1"/>
        <pt x="275" y="451" on="0"/>
        <pt x="353" y="821" on="0"/>
        <pt x="404" y="1061" on="0"/>
        <pt x="432" y="1193" on="0"/>
        <pt x="438" y="1224" on="1"/>
        <pt x="447" y="1266" on="0"/>
        <pt x="447" y="1302" on="0"/>
        <pt x="408" y="1340" on="0"/>
        <pt x="379" y="1351" on="1"/>
        <pt x="329" y="1370" on="0"/>
        <pt x="254" y="1370" on="1"/>
        <pt x="248" y="1370" on="0"/>
        <pt x="248" y="1378" on="1"/>
        <pt x="253" y="1402" on="1"/>
        <pt x="255" y="1410" on="0"/>
        <pt x="263" y="1410" on="1"/>
        <pt x="850" y="1410" on="1"/>
        <pt x="856" y="1410" on="0"/>
        <pt x="856" y="1402" on="1"/>
        <pt x="851" y="1378" on="1"/>
        <pt x="849" y="1370" on="0"/>
        <pt x="806" y="1370" on="0"/>
        <pt x="734" y="1361" on="0"/>
        <pt x="704" y="1346" on="1"/>
        <pt x="635" y="1312" on="0"/>
        <pt x="617" y="1227" on="1"/>
        <pt x="577" y="1040" on="0"/>
        <pt x="517" y="755" on="0"/>
        <pt x="472" y="542" on="0"/>
        <pt x="441" y="393" on="0"/>
        <pt x="421" y="295" on="0"/>
        <pt x="410" y="238" on="0"/>
        <pt x="408" y="223" on="1"/>
        <pt x="404" y="202" on="0"/>
        <pt x="404" y="194" on="1"/>
        <pt x="404" y="61" on="0"/>
        <pt x="590" y="61" on="1"/>
        <pt x="866" y="61" on="0"/>
        <pt x="966" y="100" on="1"/>
        <pt x="1036" y="127" on="0"/>
        <pt x="1129" y="215" on="0"/>
        <pt x="1176" y="264" on="0"/>
        <pt x="1198" y="291" on="0"/>
        <pt x="1209" y="302" on="1"/>
        <pt x="1235" y="330" on="0"/>
        <pt x="1276" y="330" on="0"/>
        <pt x="1276" y="311" on="1"/>
        <pt x="1276" y="299" on="0"/>
        <pt x="1226" y="185" on="0"/>
        <pt x="1192" y="79" on="0"/>
        <pt x="1170" y="21" on="0"/>
        <pt x="1144" y="0" on="0"/>
        <pt x="1116" y="0" on="1"/>
        <pt x="31" y="0" on="1"/>
        <pt x="20" y="0" on="0"/>
      </contour>
    </TTGlyph>
    <TTGlyph name="L.sc" xMin="49" yMin="0" xMax="901" yMax="945">
      <contour>
        <pt x="55" y="0" on="1"/>
        <pt x="49" y="0" on="0"/>
        <pt x="49" y="5" on="1"/>
        <pt x="49" y="42" on="1"/>
        <pt x="49" y="48" on="0"/>
        <pt x="55" y="48" on="1"/>
        <pt x="70" y="48" on="1"/>
        <pt x="157" y="48" on="0"/>
        <pt x="196" y="102" on="1"/>
        <pt x="211" y="121" on="0"/>
        <pt x="211" y="150" on="1"/>
        <pt x="211" y="817" on="1"/>
        <pt x="211" y="859" on="0"/>
        <pt x="158" y="881" on="1"/>
        <pt x="119" y="897" on="0"/>
        <pt x="78" y="897" on="1"/>
        <pt x="63" y="897" on="1"/>
        <pt x="58" y="897" on="0"/>
        <pt x="58" y="902" on="1"/>
        <pt x="58" y="939" on="1"/>
        <pt x="58" y="945" on="0"/>
        <pt x="63" y="945" on="1"/>
        <pt x="550" y="945" on="1"/>
        <pt x="555" y="945" on="0"/>
        <pt x="555" y="939" on="1"/>
        <pt x="555" y="902" on="1"/>
        <pt x="555" y="897" on="0"/>
        <pt x="550" y="897" on="1"/>
        <pt x="521" y="897" on="1"/>
        <pt x="462" y="897" on="0"/>
        <pt x="399" y="878" on="1"/>
        <pt x="384" y="872" on="0"/>
        <pt x="375" y="847" on="0"/>
        <pt x="375" y="817" on="1"/>
        <pt x="375" y="106" on="1"/>
        <pt x="377" y="94" on="0"/>
        <pt x="398" y="75" on="0"/>
        <pt x="412" y="75" on="1"/>
        <pt x="676" y="75" on="1"/>
        <pt x="752" y="75" on="0"/>
        <pt x="834" y="198" on="1"/>
        <pt x="858" y="233" on="0"/>
        <pt x="881" y="237" on="0"/>
        <pt x="885" y="237" on="1"/>
        <pt x="901" y="237" on="0"/>
        <pt x="901" y="225" on="1"/>
        <pt x="896" y="212" on="0"/>
        <pt x="837" y="91" on="0"/>
        <pt x="799" y="12" on="1"/>
        <pt x="794" y="0" on="0"/>
        <pt x="784" y="0" on="1"/>
      </contour>
    </TTGlyph>
    <TTGlyph name="Lacute" xMin="20" yMin="0" xMax="1276" yMax="1950">
      <component glyphName="L" x="0" y="0" flags="0x1204"/>
      <component glyphName="acute" x="395" y="498" flags="0x1004"/>
    </TTGlyph>
    <TTGlyph name="Lambda" xMin="-210" yMin="0" xMax="1293" yMax="1417">
      <contour>
        <pt x="-191" y="0" on="1"/>
        <pt x="-210" y="0" on="0"/>
        <pt x="-210" y="12" on="1"/>
        <pt x="-210" y="36" on="0"/>
        <pt x="-196" y="40" on="0"/>
        <pt x="-189" y="40" on="1"/>
        <pt x="-167" y="40" on="1"/>
        <pt x="-129" y="40" on="0"/>
        <pt x="-89" y="69" on="0"/>
        <pt x="11" y="200" on="0"/>
        <pt x="190" y="432" on="0"/>
        <pt x="371" y="668" on="0"/>
        <pt x="550" y="902" on="0"/>
        <pt x="715" y="1117" on="0"/>
        <pt x="860" y="1306" on="0"/>
        <pt x="926" y="1392" on="0"/>
        <pt x="957" y="1417" on="0"/>
        <pt x="980" y="1417" on="1"/>
        <pt x="1006" y="1417" on="1"/>
        <pt x="1050" y="1417" on="0"/>
        <pt x="1050" y="1363" on="1"/>
        <pt x="1081" y="150" on="1"/>
        <pt x="1084" y="66" on="0"/>
        <pt x="1184" y="46" on="1"/>
        <pt x="1211" y="40" on="0"/>
        <pt x="1236" y="40" on="1"/>
        <pt x="1280" y="40" on="1"/>
        <pt x="1293" y="40" on="0"/>
        <pt x="1293" y="25" on="1"/>
        <pt x="1293" y="14" on="1"/>
        <pt x="1293" y="0" on="0"/>
        <pt x="1279" y="0" on="1"/>
        <pt x="658" y="0" on="1"/>
        <pt x="644" y="0" on="0"/>
        <pt x="644" y="11" on="1"/>
        <pt x="644" y="30" on="1"/>
        <pt x="644" y="40" on="0"/>
        <pt x="694" y="40" on="0"/>
        <pt x="749" y="44" on="0"/>
        <pt x="768" y="48" on="1"/>
        <pt x="840" y="60" on="0"/>
        <pt x="884" y="118" on="0"/>
        <pt x="892" y="144" on="1"/>
        <pt x="904" y="182" on="0"/>
        <pt x="904" y="252" on="1"/>
        <pt x="882" y="1174" on="1"/>
        <pt x="882" y="1180" on="1"/>
        <pt x="882" y="1202" on="0"/>
        <pt x="871" y="1202" on="1"/>
        <pt x="870" y="1202" on="1"/>
        <pt x="861" y="1201" on="0"/>
        <pt x="768" y="1076" on="0"/>
        <pt x="608" y="867" on="0"/>
        <pt x="524" y="759" on="1"/>
        <pt x="145" y="268" on="0"/>
        <pt x="127" y="237" on="1"/>
        <pt x="95" y="182" on="0"/>
        <pt x="95" y="122" on="0"/>
        <pt x="112" y="86" on="0"/>
        <pt x="128" y="72" on="1"/>
        <pt x="163" y="40" on="0"/>
        <pt x="219" y="40" on="1"/>
        <pt x="280" y="40" on="1"/>
        <pt x="300" y="40" on="0"/>
        <pt x="288" y="9" on="1"/>
        <pt x="285" y="0" on="0"/>
        <pt x="268" y="0" on="1"/>
      </contour>
    </TTGlyph>
    <TTGlyph name="Lcaron" xMin="20" yMin="0" xMax="1276" yMax="1452">
      <component glyphName="L" x="0" y="0" flags="0x1204"/>
      <component glyphName="quoteright" x="700" y="0" flags="0x1004"/>
    </TTGlyph>
    <TTGlyph name="Lcommaaccent" xMin="20" yMin="-640" xMax="1276" yMax="1410">
      <component glyphName="L" x="0" y="0" flags="0x1204"/>
      <component glyphName="commaaccent" x="395" y="0" flags="0x1004"/>
    </TTGlyph>
    <TTGlyph name="Ldot" xMin="20" yMin="0" xMax="1276" yMax="1410">
      <component glyphName="L" x="0" y="0" flags="0x1204"/>
      <component glyphName="dotaccent" x="345" y="-569" flags="0x1004"/>
    </TTGlyph>
    <TTGlyph name="Lslash" xMin="20" yMin="0" xMax="1276" yMax="1410">
      <contour>
        <pt x="20" y="12" on="1"/>
        <pt x="20" y="40" on="0"/>
        <pt x="82" y="40" on="0"/>
        <pt x="137" y="49" on="0"/>
        <pt x="158" y="64" on="1"/>
        <pt x="199" y="94" on="0"/>
        <pt x="218" y="183" on="1"/>
        <pt x="299" y="567" on="1"/>
        <pt x="128" y="437" on="1"/>
        <pt x="155" y="561" on="1"/>
        <pt x="325" y="689" on="1"/>
        <pt x="355" y="832" on="0"/>
        <pt x="397" y="1027" on="0"/>
        <pt x="424" y="1154" on="0"/>
        <pt x="439" y="1225" on="0"/>
        <pt x="443" y="1242" on="1"/>
        <pt x="448" y="1264" on="0"/>
        <pt x="448" y="1305" on="0"/>
        <pt x="408" y="1342" on="0"/>
        <pt x="379" y="1352" on="1"/>
        <pt x="331" y="1370" on="0"/>
        <pt x="254" y="1370" on="1"/>
        <pt x="248" y="1370" on="0"/>
        <pt x="248" y="1378" on="1"/>
        <pt x="253" y="1402" on="1"/>
        <pt x="255" y="1410" on="0"/>
        <pt x="263" y="1410" on="1"/>
        <pt x="850" y="1410" on="1"/>
        <pt x="856" y="1410" on="0"/>
        <pt x="856" y="1402" on="1"/>
        <pt x="851" y="1378" on="1"/>
        <pt x="849" y="1370" on="0"/>
        <pt x="806" y="1370" on="0"/>
        <pt x="734" y="1361" on="0"/>
        <pt x="704" y="1346" on="1"/>
        <pt x="635" y="1312" on="0"/>
        <pt x="617" y="1227" on="1"/>
        <pt x="537" y="848" on="1"/>
        <pt x="879" y="1106" on="1"/>
        <pt x="854" y="988" on="1"/>
        <pt x="511" y="728" on="1"/>
        <pt x="411" y="254" on="1"/>
        <pt x="404" y="223" on="0"/>
        <pt x="404" y="194" on="1"/>
        <pt x="404" y="61" on="0"/>
        <pt x="590" y="61" on="1"/>
        <pt x="866" y="61" on="0"/>
        <pt x="966" y="100" on="1"/>
        <pt x="1036" y="127" on="0"/>
        <pt x="1129" y="215" on="0"/>
        <pt x="1176" y="264" on="0"/>
        <pt x="1198" y="291" on="0"/>
        <pt x="1209" y="302" on="1"/>
        <pt x="1235" y="330" on="0"/>
        <pt x="1276" y="330" on="0"/>
        <pt x="1276" y="311" on="1"/>
        <pt x="1276" y="299" on="0"/>
        <pt x="1226" y="185" on="0"/>
        <pt x="1192" y="79" on="0"/>
        <pt x="1170" y="21" on="0"/>
        <pt x="1144" y="0" on="0"/>
        <pt x="1116" y="0" on="1"/>
        <pt x="31" y="0" on="1"/>
        <pt x="20" y="0" on="0"/>
      </contour>
    </TTGlyph>
    <TTGlyph name="Lslash.sc" xMin="49" yMin="0" xMax="901" yMax="945">
      <contour>
        <pt x="49" y="42" on="1"/>
        <pt x="49" y="48" on="0"/>
        <pt x="55" y="48" on="1"/>
        <pt x="70" y="48" on="1"/>
        <pt x="157" y="48" on="0"/>
        <pt x="196" y="102" on="1"/>
        <pt x="211" y="121" on="0"/>
        <pt x="211" y="150" on="1"/>
        <pt x="211" y="369" on="1"/>
        <pt x="113" y="301" on="1"/>
        <pt x="109" y="299" on="0"/>
        <pt x="99" y="299" on="0"/>
        <pt x="85" y="318" on="1"/>
        <pt x="63" y="349" on="0"/>
        <pt x="63" y="362" on="0"/>
        <pt x="68" y="365" on="1"/>
        <pt x="211" y="465" on="1"/>
        <pt x="211" y="817" on="1"/>
        <pt x="211" y="859" on="0"/>
        <pt x="158" y="881" on="1"/>
        <pt x="119" y="897" on="0"/>
        <pt x="78" y="897" on="1"/>
        <pt x="63" y="897" on="1"/>
        <pt x="58" y="897" on="0"/>
        <pt x="58" y="902" on="1"/>
        <pt x="58" y="939" on="1"/>
        <pt x="58" y="945" on="0"/>
        <pt x="63" y="945" on="1"/>
        <pt x="550" y="945" on="1"/>
        <pt x="555" y="945" on="0"/>
        <pt x="555" y="939" on="1"/>
        <pt x="555" y="902" on="1"/>
        <pt x="555" y="897" on="0"/>
        <pt x="550" y="897" on="1"/>
        <pt x="521" y="897" on="1"/>
        <pt x="462" y="897" on="0"/>
        <pt x="399" y="878" on="1"/>
        <pt x="384" y="872" on="0"/>
        <pt x="375" y="847" on="0"/>
        <pt x="375" y="817" on="1"/>
        <pt x="375" y="579" on="1"/>
        <pt x="580" y="723" on="1"/>
        <pt x="582" y="724" on="0"/>
        <pt x="585" y="726" on="0"/>
        <pt x="588" y="726" on="1"/>
        <pt x="593" y="726" on="0"/>
        <pt x="630" y="676" on="0"/>
        <pt x="630" y="662" on="0"/>
        <pt x="625" y="659" on="1"/>
        <pt x="375" y="484" on="1"/>
        <pt x="375" y="106" on="1"/>
        <pt x="377" y="94" on="0"/>
        <pt x="398" y="75" on="0"/>
        <pt x="412" y="75" on="1"/>
        <pt x="676" y="75" on="1"/>
        <pt x="752" y="75" on="0"/>
        <pt x="834" y="198" on="1"/>
        <pt x="858" y="233" on="0"/>
        <pt x="881" y="237" on="0"/>
        <pt x="885" y="237" on="1"/>
        <pt x="901" y="237" on="0"/>
        <pt x="901" y="225" on="1"/>
        <pt x="896" y="212" on="0"/>
        <pt x="837" y="91" on="0"/>
        <pt x="799" y="12" on="1"/>
        <pt x="794" y="0" on="0"/>
        <pt x="784" y="0" on="1"/>
        <pt x="55" y="0" on="1"/>
        <pt x="49" y="0" on="0"/>
        <pt x="49" y="5" on="1"/>
      </contour>
    </TTGlyph>
    <TTGlyph name="M" xMin="20" yMin="0" xMax="2032" yMax="1411">
      <contour>
        <pt x="1604" y="1142" on="1"/>
        <pt x="1604" y="1154" on="1"/>
        <pt x="1604" y="1161" on="0"/>
        <pt x="1598" y="1161" on="1"/>
        <pt x="1589" y="1161" on="0"/>
        <pt x="1575" y="1139" on="1"/>
        <pt x="891" y="68" on="1"/>
        <pt x="871" y="36" on="0"/>
        <pt x="831" y="0" on="0"/>
        <pt x="789" y="0" on="0"/>
        <pt x="776" y="12" on="0"/>
        <pt x="772" y="20" on="1"/>
        <pt x="768" y="30" on="0"/>
        <pt x="744" y="181" on="0"/>
        <pt x="700" y="457" on="0"/>
        <pt x="655" y="741" on="0"/>
        <pt x="609" y="1026" on="0"/>
        <pt x="587" y="1168" on="0"/>
        <pt x="584" y="1190" on="0"/>
        <pt x="582" y="1200" on="1"/>
        <pt x="577" y="1226" on="0"/>
        <pt x="568" y="1226" on="0"/>
        <pt x="559" y="1208" on="0"/>
        <pt x="556" y="1197" on="1"/>
        <pt x="547" y="1170" on="0"/>
        <pt x="502" y="1000" on="0"/>
        <pt x="411" y="657" on="0"/>
        <pt x="356" y="449" on="0"/>
        <pt x="332" y="367" on="0"/>
        <pt x="324" y="332" on="1"/>
        <pt x="308" y="264" on="0"/>
        <pt x="308" y="218" on="1"/>
        <pt x="308" y="110" on="0"/>
        <pt x="369" y="58" on="1"/>
        <pt x="391" y="40" on="0"/>
        <pt x="463" y="40" on="0"/>
        <pt x="463" y="26" on="1"/>
        <pt x="463" y="13" on="1"/>
        <pt x="463" y="0" on="0"/>
        <pt x="423" y="0" on="1"/>
        <pt x="39" y="0" on="1"/>
        <pt x="20" y="0" on="0"/>
        <pt x="20" y="21" on="1"/>
        <pt x="20" y="34" on="0"/>
        <pt x="33" y="40" on="0"/>
        <pt x="56" y="49" on="1"/>
        <pt x="108" y="69" on="0"/>
        <pt x="173" y="140" on="1"/>
        <pt x="214" y="185" on="0"/>
        <pt x="238" y="294" on="1"/>
        <pt x="247" y="330" on="0"/>
        <pt x="311" y="565" on="0"/>
        <pt x="329" y="631" on="1"/>
        <pt x="370" y="782" on="0"/>
        <pt x="394" y="873" on="1"/>
        <pt x="446" y="1073" on="0"/>
        <pt x="470" y="1158" on="0"/>
        <pt x="476" y="1180" on="1"/>
        <pt x="489" y="1236" on="0"/>
        <pt x="489" y="1289" on="0"/>
        <pt x="469" y="1330" on="0"/>
        <pt x="452" y="1344" on="1"/>
        <pt x="420" y="1370" on="0"/>
        <pt x="371" y="1370" on="1"/>
        <pt x="330" y="1370" on="1"/>
        <pt x="313" y="1370" on="0"/>
        <pt x="307" y="1382" on="0"/>
        <pt x="307" y="1390" on="1"/>
        <pt x="307" y="1409" on="0"/>
        <pt x="330" y="1411" on="1"/>
        <pt x="704" y="1411" on="1"/>
        <pt x="736" y="1411" on="0"/>
        <pt x="743" y="1362" on="1"/>
        <pt x="747" y="1327" on="0"/>
        <pt x="773" y="1177" on="0"/>
        <pt x="814" y="916" on="0"/>
        <pt x="855" y="655" on="0"/>
        <pt x="894" y="401" on="0"/>
        <pt x="915" y="278" on="0"/>
        <pt x="920" y="266" on="0"/>
        <pt x="924" y="266" on="1"/>
        <pt x="932" y="266" on="0"/>
        <pt x="939" y="276" on="1"/>
        <pt x="1018" y="401" on="0"/>
        <pt x="1196" y="679" on="0"/>
        <pt x="1288" y="822" on="1"/>
        <pt x="1487" y="1134" on="0"/>
        <pt x="1648" y="1388" on="0"/>
        <pt x="1670" y="1410" on="0"/>
        <pt x="1690" y="1410" on="1"/>
        <pt x="2007" y="1410" on="1"/>
        <pt x="2024" y="1410" on="0"/>
        <pt x="2032" y="1401" on="0"/>
        <pt x="2032" y="1390" on="1"/>
        <pt x="2032" y="1368" on="0"/>
        <pt x="1907" y="1368" on="0"/>
        <pt x="1874" y="1332" on="1"/>
        <pt x="1837" y="1294" on="0"/>
        <pt x="1811" y="1164" on="1"/>
        <pt x="1804" y="1130" on="0"/>
        <pt x="1797" y="1097" on="1"/>
        <pt x="1780" y="1017" on="0"/>
        <pt x="1780" y="1014" on="1"/>
        <pt x="1608" y="201" on="1"/>
        <pt x="1605" y="186" on="0"/>
        <pt x="1605" y="147" on="0"/>
        <pt x="1621" y="101" on="0"/>
        <pt x="1636" y="83" on="1"/>
        <pt x="1667" y="44" on="0"/>
        <pt x="1714" y="40" on="1"/>
        <pt x="1761" y="40" on="1"/>
        <pt x="1790" y="40" on="0"/>
        <pt x="1790" y="6" on="0"/>
        <pt x="1768" y="0" on="0"/>
        <pt x="1749" y="0" on="1"/>
        <pt x="1210" y="0" on="1"/>
        <pt x="1190" y="0" on="0"/>
        <pt x="1190" y="14" on="1"/>
        <pt x="1191" y="24" on="1"/>
        <pt x="1191" y="40" on="0"/>
        <pt x="1249" y="40" on="0"/>
        <pt x="1308" y="68" on="0"/>
        <pt x="1334" y="91" on="1"/>
        <pt x="1391" y="141" on="0"/>
        <pt x="1424" y="298" on="0"/>
        <pt x="1465" y="488" on="0"/>
        <pt x="1487" y="591" on="1"/>
        <pt x="1543" y="853" on="0"/>
        <pt x="1584" y="1043" on="1"/>
        <pt x="1602" y="1130" on="1"/>
        <pt x="1604" y="1138" on="0"/>
      </contour>
    </TTGlyph>
    <TTGlyph name="M.sc" xMin="39" yMin="0" xMax="1380" yMax="945">
      <contour>
        <pt x="326" y="51" on="1"/>
        <pt x="347" y="48" on="0"/>
        <pt x="371" y="48" on="0"/>
        <pt x="371" y="42" on="1"/>
        <pt x="371" y="5" on="1"/>
        <pt x="371" y="0" on="0"/>
        <pt x="368" y="0" on="1"/>
        <pt x="44" y="0" on="1"/>
        <pt x="39" y="0" on="0"/>
        <pt x="39" y="5" on="1"/>
        <pt x="39" y="42" on="1"/>
        <pt x="39" y="48" on="0"/>
        <pt x="44" y="48" on="1"/>
        <pt x="155" y="48" on="0"/>
        <pt x="164" y="142" on="1"/>
        <pt x="166" y="169" on="0"/>
        <pt x="168" y="199" on="1"/>
        <pt x="202" y="834" on="1"/>
        <pt x="202" y="875" on="0"/>
        <pt x="140" y="893" on="1"/>
        <pt x="126" y="897" on="0"/>
        <pt x="112" y="897" on="0"/>
        <pt x="112" y="902" on="1"/>
        <pt x="112" y="939" on="1"/>
        <pt x="112" y="945" on="0"/>
        <pt x="118" y="945" on="1"/>
        <pt x="358" y="945" on="1"/>
        <pt x="371" y="942" on="0"/>
        <pt x="379" y="930" on="1"/>
        <pt x="693" y="230" on="1"/>
        <pt x="709" y="203" on="0"/>
        <pt x="720" y="230" on="1"/>
        <pt x="1031" y="918" on="1"/>
        <pt x="1049" y="945" on="0"/>
        <pt x="1057" y="945" on="1"/>
        <pt x="1299" y="945" on="1"/>
        <pt x="1304" y="945" on="0"/>
        <pt x="1304" y="939" on="1"/>
        <pt x="1304" y="902" on="1"/>
        <pt x="1304" y="897" on="0"/>
        <pt x="1298" y="897" on="0"/>
        <pt x="1269" y="892" on="0"/>
        <pt x="1252" y="884" on="1"/>
        <pt x="1206" y="863" on="0"/>
        <pt x="1206" y="824" on="1"/>
        <pt x="1247" y="126" on="1"/>
        <pt x="1250" y="77" on="0"/>
        <pt x="1311" y="58" on="1"/>
        <pt x="1340" y="48" on="0"/>
        <pt x="1380" y="48" on="0"/>
        <pt x="1380" y="42" on="1"/>
        <pt x="1380" y="5" on="1"/>
        <pt x="1380" y="0" on="0"/>
        <pt x="1374" y="0" on="1"/>
        <pt x="962" y="0" on="1"/>
        <pt x="957" y="0" on="0"/>
        <pt x="957" y="5" on="1"/>
        <pt x="957" y="42" on="1"/>
        <pt x="957" y="48" on="0"/>
        <pt x="962" y="48" on="1"/>
        <pt x="1083" y="48" on="0"/>
        <pt x="1083" y="106" on="1"/>
        <pt x="1047" y="724" on="1"/>
        <pt x="1046" y="732" on="0"/>
        <pt x="1041" y="732" on="0"/>
        <pt x="1038" y="726" on="1"/>
        <pt x="705" y="4" on="1"/>
        <pt x="705" y="0" on="0"/>
        <pt x="685" y="0" on="1"/>
        <pt x="656" y="0" on="1"/>
        <pt x="623" y="0" on="0"/>
        <pt x="623" y="5" on="1"/>
        <pt x="294" y="728" on="1"/>
        <pt x="289" y="737" on="0"/>
        <pt x="288" y="737" on="1"/>
        <pt x="282" y="737" on="0"/>
        <pt x="282" y="729" on="1"/>
        <pt x="250" y="106" on="1"/>
        <pt x="250" y="104" on="1"/>
        <pt x="250" y="62" on="0"/>
      </contour>
    </TTGlyph>
    <TTGlyph name="MUFI-ph" xMin="125" yMin="0" xMax="1799" yMax="1645">
      <contour>
        <pt x="837" y="475" on="1"/>
        <pt x="855" y="475" on="0"/>
        <pt x="855" y="433" on="0"/>
        <pt x="822" y="402" on="0"/>
        <pt x="743" y="402" on="0"/>
        <pt x="642" y="430" on="0"/>
        <pt x="548" y="483" on="0"/>
        <pt x="465" y="558" on="0"/>
        <pt x="434" y="606" on="1"/>
        <pt x="369" y="709" on="0"/>
        <pt x="369" y="937" on="0"/>
        <pt x="435" y="1087" on="0"/>
        <pt x="490" y="1136" on="1"/>
        <pt x="597" y="1230" on="0"/>
        <pt x="760" y="1230" on="1"/>
        <pt x="841" y="1230" on="0"/>
        <pt x="900" y="1180" on="1"/>
        <pt x="948" y="1140" on="0"/>
        <pt x="962" y="1082" on="1"/>
        <pt x="985" y="1175" on="0"/>
        <pt x="1084" y="1216" on="1"/>
        <pt x="1119" y="1230" on="0"/>
        <pt x="1238" y="1230" on="0"/>
        <pt x="1379" y="1184" on="0"/>
        <pt x="1434" y="1136" on="1"/>
        <pt x="1555" y="1027" on="0"/>
        <pt x="1555" y="834" on="1"/>
        <pt x="1555" y="645" on="0"/>
        <pt x="1418" y="520" on="1"/>
        <pt x="1286" y="402" on="0"/>
        <pt x="1131" y="402" on="1"/>
        <pt x="1102" y="402" on="0"/>
        <pt x="1068" y="433" on="0"/>
        <pt x="1068" y="475" on="0"/>
        <pt x="1087" y="475" on="1"/>
        <pt x="1096" y="475" on="0"/>
        <pt x="1101" y="462" on="0"/>
        <pt x="1104" y="454" on="1"/>
        <pt x="1110" y="432" on="0"/>
        <pt x="1180" y="432" on="0"/>
        <pt x="1263" y="466" on="0"/>
        <pt x="1331" y="525" on="0"/>
        <pt x="1384" y="605" on="0"/>
        <pt x="1402" y="650" on="1"/>
        <pt x="1440" y="743" on="0"/>
        <pt x="1440" y="896" on="0"/>
        <pt x="1410" y="1019" on="0"/>
        <pt x="1378" y="1071" on="1"/>
        <pt x="1302" y="1192" on="0"/>
        <pt x="1168" y="1192" on="1"/>
        <pt x="1086" y="1192" on="0"/>
        <pt x="1042" y="1120" on="1"/>
        <pt x="1006" y="1061" on="0"/>
        <pt x="1006" y="982" on="1"/>
        <pt x="1006" y="410" on="1"/>
        <pt x="918" y="410" on="1"/>
        <pt x="918" y="982" on="1"/>
        <pt x="918" y="1118" on="0"/>
        <pt x="834" y="1172" on="1"/>
        <pt x="803" y="1192" on="0"/>
        <pt x="682" y="1192" on="0"/>
        <pt x="579" y="1123" on="0"/>
        <pt x="546" y="1071" on="1"/>
        <pt x="484" y="971" on="0"/>
        <pt x="484" y="842" on="1"/>
        <pt x="484" y="690" on="0"/>
        <pt x="566" y="565" on="1"/>
        <pt x="655" y="432" on="0"/>
        <pt x="792" y="432" on="1"/>
        <pt x="814" y="432" on="0"/>
        <pt x="820" y="454" on="1"/>
        <pt x="823" y="462" on="0"/>
        <pt x="828" y="475" on="0"/>
      </contour>
      <contour>
        <pt x="125" y="1245" on="1"/>
        <pt x="125" y="1411" on="0"/>
        <pt x="359" y="1645" on="0"/>
        <pt x="525" y="1645" on="1"/>
        <pt x="1399" y="1645" on="1"/>
        <pt x="1565" y="1645" on="0"/>
        <pt x="1799" y="1411" on="0"/>
        <pt x="1799" y="1245" on="1"/>
        <pt x="1799" y="400" on="1"/>
        <pt x="1799" y="233" on="0"/>
        <pt x="1682" y="117" on="1"/>
        <pt x="1563" y="0" on="0"/>
        <pt x="1398" y="0" on="1"/>
        <pt x="526" y="0" on="1"/>
        <pt x="361" y="0" on="0"/>
        <pt x="242" y="117" on="1"/>
        <pt x="125" y="233" on="0"/>
        <pt x="125" y="400" on="1"/>
      </contour>
      <contour>
        <pt x="526" y="1495" on="1"/>
        <pt x="422" y="1495" on="0"/>
        <pt x="349" y="1422" on="1"/>
        <pt x="275" y="1348" on="0"/>
        <pt x="275" y="1245" on="1"/>
        <pt x="275" y="400" on="1"/>
        <pt x="275" y="296" on="0"/>
        <pt x="350" y="223" on="1"/>
        <pt x="424" y="150" on="0"/>
        <pt x="526" y="150" on="1"/>
        <pt x="1398" y="150" on="1"/>
        <pt x="1500" y="150" on="0"/>
        <pt x="1574" y="223" on="1"/>
        <pt x="1649" y="296" on="0"/>
        <pt x="1649" y="400" on="1"/>
        <pt x="1649" y="1245" on="1"/>
        <pt x="1649" y="1348" on="0"/>
        <pt x="1575" y="1422" on="1"/>
        <pt x="1502" y="1495" on="0"/>
        <pt x="1398" y="1495" on="1"/>
      </contour>
    </TTGlyph>
    <TTGlyph name="Macron.sc" xMin="309" yMin="1154" xMax="741" yMax="1240">
      <contour>
        <pt x="309" y="1240" on="1"/>
        <pt x="741" y="1240" on="1"/>
        <pt x="741" y="1154" on="1"/>
        <pt x="309" y="1154" on="1"/>
      </contour>
    </TTGlyph>
    <TTGlyph name="Mu" xMin="20" yMin="0" xMax="2032" yMax="1411">
      <component glyphName="M" x="0" y="0" flags="0x1204"/>
    </TTGlyph>
    <TTGlyph name="N" xMin="17" yMin="0" xMax="1866" yMax="1410">
      <contour>
        <pt x="1447" y="328" on="0"/>
        <pt x="1418" y="192" on="0"/>
        <pt x="1403" y="117" on="0"/>
        <pt x="1390" y="46" on="0"/>
        <pt x="1383" y="23" on="0"/>
        <pt x="1372" y="1" on="0"/>
        <pt x="1341" y="1" on="0"/>
        <pt x="1314" y="25" on="0"/>
        <pt x="1287" y="61" on="0"/>
        <pt x="1262" y="102" on="0"/>
        <pt x="1103" y="335" on="0"/>
        <pt x="890" y="648" on="0"/>
        <pt x="741" y="865" on="0"/>
        <pt x="647" y="1002" on="0"/>
        <pt x="591" y="1085" on="0"/>
        <pt x="563" y="1126" on="0"/>
        <pt x="554" y="1140" on="1"/>
        <pt x="520" y="1187" on="0"/>
        <pt x="510" y="1187" on="1"/>
        <pt x="495" y="1187" on="0"/>
        <pt x="486" y="1141" on="1"/>
        <pt x="448" y="954" on="0"/>
        <pt x="368" y="592" on="0"/>
        <pt x="317" y="347" on="0"/>
        <pt x="317" y="238" on="0"/>
        <pt x="333" y="150" on="0"/>
        <pt x="351" y="116" on="1"/>
        <pt x="391" y="40" on="0"/>
        <pt x="469" y="40" on="1"/>
        <pt x="503" y="40" on="0"/>
        <pt x="522" y="34" on="0"/>
        <pt x="522" y="23" on="1"/>
        <pt x="522" y="14" on="1"/>
        <pt x="522" y="0" on="0"/>
        <pt x="500" y="0" on="1"/>
        <pt x="49" y="0" on="1"/>
        <pt x="33" y="0" on="0"/>
        <pt x="17" y="6" on="0"/>
        <pt x="17" y="35" on="0"/>
        <pt x="29" y="47" on="0"/>
        <pt x="47" y="55" on="0"/>
        <pt x="68" y="60" on="0"/>
        <pt x="100" y="72" on="0"/>
        <pt x="146" y="107" on="0"/>
        <pt x="166" y="130" on="1"/>
        <pt x="209" y="180" on="0"/>
        <pt x="221" y="231" on="1"/>
        <pt x="432" y="1225" on="1"/>
        <pt x="434" y="1237" on="0"/>
        <pt x="442" y="1266" on="0"/>
        <pt x="442" y="1302" on="0"/>
        <pt x="405" y="1337" on="0"/>
        <pt x="378" y="1348" on="1"/>
        <pt x="328" y="1370" on="0"/>
        <pt x="247" y="1370" on="0"/>
        <pt x="225" y="1375" on="0"/>
        <pt x="225" y="1389" on="1"/>
        <pt x="225" y="1403" on="0"/>
        <pt x="243" y="1410" on="0"/>
        <pt x="264" y="1410" on="1"/>
        <pt x="515" y="1410" on="1"/>
        <pt x="572" y="1410" on="0"/>
        <pt x="589" y="1400" on="1"/>
        <pt x="610" y="1389" on="0"/>
        <pt x="640" y="1344" on="1"/>
        <pt x="1333" y="326" on="1"/>
        <pt x="1339" y="317" on="0"/>
        <pt x="1354" y="294" on="0"/>
        <pt x="1367" y="294" on="0"/>
        <pt x="1373" y="321" on="0"/>
        <pt x="1384" y="361" on="0"/>
        <pt x="1393" y="410" on="0"/>
        <pt x="1408" y="490" on="0"/>
        <pt x="1440" y="638" on="0"/>
        <pt x="1458" y="723" on="1"/>
        <pt x="1500" y="913" on="0"/>
        <pt x="1543" y="1116" on="0"/>
        <pt x="1565" y="1209" on="0"/>
        <pt x="1565" y="1244" on="1"/>
        <pt x="1565" y="1312" on="0"/>
        <pt x="1514" y="1352" on="1"/>
        <pt x="1491" y="1370" on="0"/>
        <pt x="1396" y="1370" on="1"/>
        <pt x="1382" y="1370" on="0"/>
        <pt x="1373" y="1386" on="0"/>
        <pt x="1373" y="1393" on="1"/>
        <pt x="1373" y="1410" on="0"/>
        <pt x="1402" y="1410" on="1"/>
        <pt x="1843" y="1410" on="1"/>
        <pt x="1866" y="1410" on="0"/>
        <pt x="1866" y="1370" on="0"/>
        <pt x="1843" y="1370" on="1"/>
        <pt x="1803" y="1370" on="1"/>
        <pt x="1723" y="1370" on="0"/>
        <pt x="1670" y="1300" on="1"/>
        <pt x="1645" y="1268" on="0"/>
        <pt x="1606" y="1074" on="0"/>
        <pt x="1582" y="962" on="0"/>
        <pt x="1551" y="815" on="0"/>
        <pt x="1517" y="653" on="0"/>
        <pt x="1481" y="485" on="0"/>
      </contour>
    </TTGlyph>
    <TTGlyph name="N.sc" xMin="63" yMin="-14" xMax="1254" yMax="945">
      <contour>
        <pt x="443" y="42" on="1"/>
        <pt x="443" y="5" on="1"/>
        <pt x="443" y="0" on="0"/>
        <pt x="438" y="0" on="1"/>
        <pt x="68" y="0" on="1"/>
        <pt x="63" y="0" on="0"/>
        <pt x="63" y="5" on="1"/>
        <pt x="63" y="42" on="1"/>
        <pt x="63" y="48" on="0"/>
        <pt x="74" y="48" on="1"/>
        <pt x="122" y="48" on="0"/>
        <pt x="131" y="52" on="1"/>
        <pt x="165" y="69" on="0"/>
        <pt x="185" y="141" on="0"/>
        <pt x="185" y="187" on="1"/>
        <pt x="185" y="841" on="1"/>
        <pt x="180" y="897" on="0"/>
        <pt x="68" y="897" on="1"/>
        <pt x="63" y="897" on="0"/>
        <pt x="63" y="902" on="1"/>
        <pt x="63" y="939" on="1"/>
        <pt x="63" y="945" on="0"/>
        <pt x="68" y="945" on="1"/>
        <pt x="377" y="945" on="1"/>
        <pt x="1012" y="241" on="1"/>
        <pt x="1018" y="235" on="0"/>
        <pt x="1025" y="235" on="0"/>
        <pt x="1025" y="241" on="1"/>
        <pt x="1025" y="681" on="1"/>
        <pt x="1025" y="823" on="0"/>
        <pt x="1000" y="880" on="0"/>
        <pt x="955" y="897" on="0"/>
        <pt x="914" y="897" on="1"/>
        <pt x="879" y="897" on="1"/>
        <pt x="874" y="897" on="0"/>
        <pt x="874" y="902" on="1"/>
        <pt x="874" y="939" on="1"/>
        <pt x="874" y="945" on="0"/>
        <pt x="879" y="945" on="1"/>
        <pt x="1248" y="945" on="1"/>
        <pt x="1254" y="945" on="0"/>
        <pt x="1254" y="939" on="1"/>
        <pt x="1254" y="902" on="1"/>
        <pt x="1254" y="897" on="0"/>
        <pt x="1235" y="897" on="0"/>
        <pt x="1193" y="886" on="0"/>
        <pt x="1173" y="876" on="1"/>
        <pt x="1124" y="852" on="0"/>
        <pt x="1124" y="818" on="1"/>
        <pt x="1124" y="15" on="1"/>
        <pt x="1124" y="-14" on="0"/>
        <pt x="1068" y="-14" on="1"/>
        <pt x="1024" y="-14" on="0"/>
        <pt x="1003" y="10" on="1"/>
        <pt x="308" y="781" on="1"/>
        <pt x="302" y="787" on="0"/>
        <pt x="295" y="787" on="1"/>
        <pt x="292" y="787" on="0"/>
        <pt x="292" y="781" on="1"/>
        <pt x="292" y="133" on="1"/>
        <pt x="292" y="85" on="0"/>
        <pt x="356" y="62" on="1"/>
        <pt x="395" y="48" on="0"/>
        <pt x="443" y="48" on="0"/>
      </contour>
    </TTGlyph>
    <TTGlyph name="Nacute" xMin="17" yMin="0" xMax="1866" yMax="1950">
      <component glyphName="N" x="0" y="0" flags="0x1204"/>
      <component glyphName="acute" x="920" y="498" flags="0x1004"/>
    </TTGlyph>
    <TTGlyph name="Ncaron" xMin="17" yMin="0" xMax="1866" yMax="1948">
      <component glyphName="N" x="0" y="0" flags="0x1204"/>
      <component glyphName="caron" x="650" y="497" flags="0x1004"/>
    </TTGlyph>
    <TTGlyph name="Ncommaaccent" xMin="17" yMin="-640" xMax="1866" yMax="1410">
      <component glyphName="N" x="0" y="0" flags="0x1204"/>
      <component glyphName="commaaccent" x="625" y="0" flags="0x1004"/>
    </TTGlyph>
    <TTGlyph name="Ntilde" xMin="17" yMin="0" xMax="1866" yMax="1928">
      <component glyphName="N" x="0" y="0" flags="0x1204"/>
      <component glyphName="tilde" x="620" y="560" flags="0x1004"/>
    </TTGlyph>
    <TTGlyph name="Ntilde.sc" xMin="63" yMin="-14" xMax="1254" yMax="1327">
      <component glyphName="N.sc" x="0" y="0" flags="0x1204"/>
      <component glyphName="Tilde.sc" x="150" y="0" flags="0x1004"/>
    </TTGlyph>
    <TTGlyph name="Nu" xMin="17" yMin="0" xMax="1866" yMax="1410">
      <component glyphName="N" x="0" y="0" flags="0x1204"/>
    </TTGlyph>
</ttFont>
